%TF.GenerationSoftware,KiCad,Pcbnew,8.0.1*%
%TF.CreationDate,2024-04-17T20:24:41+03:00*%
%TF.ProjectId,Daughterboard,44617567-6874-4657-9262-6f6172642e6b,rev?*%
%TF.SameCoordinates,Original*%
%TF.FileFunction,Drillmap*%
%TF.FilePolarity,Positive*%
%FSLAX45Y45*%
G04 Gerber Fmt 4.5, Leading zero omitted, Abs format (unit mm)*
G04 Created by KiCad (PCBNEW 8.0.1) date 2024-04-17 20:24:41*
%MOMM*%
%LPD*%
G01*
G04 APERTURE LIST*
%ADD10C,0.100000*%
%ADD11C,0.200000*%
G04 APERTURE END LIST*
D10*
X8870000Y-8890000D02*
X16470000Y-8890000D01*
X16470000Y-12780000D01*
X8870000Y-12780000D01*
X8870000Y-8890000D01*
D11*
X9125777Y-13096484D02*
X9125777Y-12896484D01*
X9125777Y-12896484D02*
X9173396Y-12896484D01*
X9173396Y-12896484D02*
X9201967Y-12906008D01*
X9201967Y-12906008D02*
X9221015Y-12925055D01*
X9221015Y-12925055D02*
X9230539Y-12944103D01*
X9230539Y-12944103D02*
X9240063Y-12982198D01*
X9240063Y-12982198D02*
X9240063Y-13010769D01*
X9240063Y-13010769D02*
X9230539Y-13048865D01*
X9230539Y-13048865D02*
X9221015Y-13067912D01*
X9221015Y-13067912D02*
X9201967Y-13086960D01*
X9201967Y-13086960D02*
X9173396Y-13096484D01*
X9173396Y-13096484D02*
X9125777Y-13096484D01*
X9325777Y-13096484D02*
X9325777Y-12963150D01*
X9325777Y-13001246D02*
X9335301Y-12982198D01*
X9335301Y-12982198D02*
X9344824Y-12972674D01*
X9344824Y-12972674D02*
X9363872Y-12963150D01*
X9363872Y-12963150D02*
X9382920Y-12963150D01*
X9449586Y-13096484D02*
X9449586Y-12963150D01*
X9449586Y-12896484D02*
X9440063Y-12906008D01*
X9440063Y-12906008D02*
X9449586Y-12915531D01*
X9449586Y-12915531D02*
X9459110Y-12906008D01*
X9459110Y-12906008D02*
X9449586Y-12896484D01*
X9449586Y-12896484D02*
X9449586Y-12915531D01*
X9573396Y-13096484D02*
X9554348Y-13086960D01*
X9554348Y-13086960D02*
X9544824Y-13067912D01*
X9544824Y-13067912D02*
X9544824Y-12896484D01*
X9678158Y-13096484D02*
X9659110Y-13086960D01*
X9659110Y-13086960D02*
X9649586Y-13067912D01*
X9649586Y-13067912D02*
X9649586Y-12896484D01*
X9906729Y-13096484D02*
X9906729Y-12896484D01*
X9906729Y-12896484D02*
X9973396Y-13039341D01*
X9973396Y-13039341D02*
X10040063Y-12896484D01*
X10040063Y-12896484D02*
X10040063Y-13096484D01*
X10221015Y-13096484D02*
X10221015Y-12991722D01*
X10221015Y-12991722D02*
X10211491Y-12972674D01*
X10211491Y-12972674D02*
X10192444Y-12963150D01*
X10192444Y-12963150D02*
X10154348Y-12963150D01*
X10154348Y-12963150D02*
X10135301Y-12972674D01*
X10221015Y-13086960D02*
X10201967Y-13096484D01*
X10201967Y-13096484D02*
X10154348Y-13096484D01*
X10154348Y-13096484D02*
X10135301Y-13086960D01*
X10135301Y-13086960D02*
X10125777Y-13067912D01*
X10125777Y-13067912D02*
X10125777Y-13048865D01*
X10125777Y-13048865D02*
X10135301Y-13029817D01*
X10135301Y-13029817D02*
X10154348Y-13020293D01*
X10154348Y-13020293D02*
X10201967Y-13020293D01*
X10201967Y-13020293D02*
X10221015Y-13010769D01*
X10316253Y-12963150D02*
X10316253Y-13163150D01*
X10316253Y-12972674D02*
X10335301Y-12963150D01*
X10335301Y-12963150D02*
X10373396Y-12963150D01*
X10373396Y-12963150D02*
X10392444Y-12972674D01*
X10392444Y-12972674D02*
X10401967Y-12982198D01*
X10401967Y-12982198D02*
X10411491Y-13001246D01*
X10411491Y-13001246D02*
X10411491Y-13058388D01*
X10411491Y-13058388D02*
X10401967Y-13077436D01*
X10401967Y-13077436D02*
X10392444Y-13086960D01*
X10392444Y-13086960D02*
X10373396Y-13096484D01*
X10373396Y-13096484D02*
X10335301Y-13096484D01*
X10335301Y-13096484D02*
X10316253Y-13086960D01*
X10497205Y-13077436D02*
X10506729Y-13086960D01*
X10506729Y-13086960D02*
X10497205Y-13096484D01*
X10497205Y-13096484D02*
X10487682Y-13086960D01*
X10487682Y-13086960D02*
X10497205Y-13077436D01*
X10497205Y-13077436D02*
X10497205Y-13096484D01*
X10497205Y-12972674D02*
X10506729Y-12982198D01*
X10506729Y-12982198D02*
X10497205Y-12991722D01*
X10497205Y-12991722D02*
X10487682Y-12982198D01*
X10487682Y-12982198D02*
X10497205Y-12972674D01*
X10497205Y-12972674D02*
X10497205Y-12991722D01*
M02*
