G04 #@! TF.GenerationSoftware,KiCad,Pcbnew,8.0.1*
G04 #@! TF.CreationDate,2024-04-17T20:24:04+03:00*
G04 #@! TF.ProjectId,Daughterboard,44617567-6874-4657-9262-6f6172642e6b,rev?*
G04 #@! TF.SameCoordinates,Original*
G04 #@! TF.FileFunction,Copper,L3,Inr*
G04 #@! TF.FilePolarity,Positive*
%FSLAX46Y46*%
G04 Gerber Fmt 4.6, Leading zero omitted, Abs format (unit mm)*
G04 Created by KiCad (PCBNEW 8.0.1) date 2024-04-17 20:24:04*
%MOMM*%
%LPD*%
G01*
G04 APERTURE LIST*
G04 #@! TA.AperFunction,ComponentPad*
%ADD10C,1.000000*%
G04 #@! TD*
G04 #@! TA.AperFunction,ComponentPad*
%ADD11C,1.400000*%
G04 #@! TD*
G04 #@! TA.AperFunction,ComponentPad*
%ADD12C,1.397000*%
G04 #@! TD*
G04 #@! TA.AperFunction,ViaPad*
%ADD13C,0.800000*%
G04 #@! TD*
G04 APERTURE END LIST*
D10*
X105800000Y-92500000D03*
X163400000Y-98200000D03*
X111800000Y-90400000D03*
D11*
X103000000Y-90600000D03*
X100460000Y-90600000D03*
D10*
X105800000Y-90400000D03*
X163400000Y-90600000D03*
D12*
X96340000Y-97140000D03*
X96340000Y-94600000D03*
X93800000Y-97140000D03*
X93800000Y-94600000D03*
X91260000Y-97140000D03*
X91260000Y-94600000D03*
D10*
X111800000Y-92500000D03*
X163400000Y-94600000D03*
D12*
X96132100Y-121189700D03*
X96132100Y-118649700D03*
X93592100Y-121189700D03*
X93592100Y-118649700D03*
X91052100Y-121189700D03*
X91052100Y-118649700D03*
D11*
X114350000Y-90600000D03*
X116890000Y-90600000D03*
D13*
X154050000Y-116600000D03*
X154050000Y-115250000D03*
X155400000Y-117950000D03*
X155400000Y-116600000D03*
X155400000Y-115250000D03*
X152700000Y-117950000D03*
X154050000Y-117950000D03*
X152700000Y-115250000D03*
X152700000Y-116600000D03*
X122400000Y-121336360D03*
X120563638Y-125372720D03*
X126072724Y-125372720D03*
X123318181Y-125372720D03*
X129745448Y-116290910D03*
X124236362Y-126381810D03*
X140477500Y-90300000D03*
X128827267Y-125372720D03*
X126990905Y-122345450D03*
X128827267Y-118309090D03*
X118862500Y-91200000D03*
X126072724Y-117300000D03*
X122400000Y-125372720D03*
X125154543Y-116290910D03*
X150302500Y-90300000D03*
X126990905Y-124363630D03*
X128827267Y-117300000D03*
X141460000Y-90300000D03*
X124236362Y-117300000D03*
X143425000Y-90300000D03*
X129670000Y-91200000D03*
X154232500Y-91200000D03*
X126990905Y-115281820D03*
X126990905Y-121336360D03*
X122400000Y-115281820D03*
X122400000Y-124363630D03*
X122792500Y-91200000D03*
X155215000Y-90300000D03*
X125154543Y-126381810D03*
X138512500Y-91200000D03*
X121481819Y-123354540D03*
X123775000Y-91200000D03*
X127705000Y-90300000D03*
X120563638Y-115281820D03*
X122792500Y-90300000D03*
X121810000Y-91200000D03*
X121481819Y-118309090D03*
X128687500Y-91200000D03*
X126072724Y-119318180D03*
X141460000Y-91200000D03*
X121810000Y-90300000D03*
X127909086Y-123354540D03*
X123318181Y-121336360D03*
X127909086Y-116290910D03*
X149320000Y-90300000D03*
X153250000Y-90300000D03*
X129745448Y-122345450D03*
X143425000Y-91200000D03*
X123318181Y-120327270D03*
X125154543Y-118309090D03*
X127909086Y-115281820D03*
X157180000Y-90300000D03*
X125740000Y-90300000D03*
X130652500Y-90300000D03*
X125740000Y-91200000D03*
X152267500Y-90300000D03*
X127909086Y-120327270D03*
X126072724Y-123354540D03*
X126072724Y-115281820D03*
X120563638Y-120327270D03*
X120563638Y-121336360D03*
X151285000Y-90300000D03*
X126722500Y-91200000D03*
X118862500Y-90300000D03*
X121481819Y-115281820D03*
X116900000Y-121400000D03*
X120563638Y-118309090D03*
X123318181Y-117300000D03*
X121481819Y-121336360D03*
X121481819Y-122345450D03*
X126990905Y-117300000D03*
X126072724Y-122345450D03*
X140477500Y-91200000D03*
X125154543Y-125372720D03*
X120563638Y-116290910D03*
X123318181Y-119318180D03*
X139495000Y-90300000D03*
X124236362Y-118309090D03*
X124236362Y-115281820D03*
X126990905Y-123354540D03*
X126072724Y-116290910D03*
X129670000Y-90300000D03*
X128827267Y-119318180D03*
X126072724Y-120327270D03*
X120563638Y-126381810D03*
X125154543Y-124363630D03*
X148337500Y-91200000D03*
X157180000Y-91200000D03*
X124757500Y-90300000D03*
X142442500Y-91200000D03*
X137530000Y-90300000D03*
X121481819Y-125372720D03*
X126072724Y-126381810D03*
X122400000Y-116290910D03*
X126990905Y-116290910D03*
X129745448Y-115281820D03*
X121481819Y-126381810D03*
X123318181Y-118309090D03*
X133600000Y-91200000D03*
X124236362Y-120327270D03*
X135565000Y-90300000D03*
X126072724Y-121336360D03*
X122400000Y-123354540D03*
X155215000Y-91200000D03*
X127909086Y-125372720D03*
X125154543Y-117300000D03*
X147355000Y-90300000D03*
X126072724Y-118309090D03*
X123318181Y-126381810D03*
X124236362Y-123354540D03*
X127909086Y-124363630D03*
X116800000Y-115400000D03*
X126990905Y-120327270D03*
X129745448Y-126381810D03*
X156197500Y-91200000D03*
X126072724Y-124363630D03*
X144407500Y-91200000D03*
X120827500Y-90300000D03*
X153250000Y-91200000D03*
X124236362Y-124363630D03*
X115300000Y-110800000D03*
X121481819Y-119318180D03*
X120827500Y-91200000D03*
X123318181Y-116290910D03*
X120563638Y-124363630D03*
X144407500Y-90300000D03*
X148337500Y-90300000D03*
X127909086Y-122345450D03*
X119845000Y-91200000D03*
X124757500Y-91200000D03*
X122400000Y-118309090D03*
X121481819Y-120327270D03*
X136547500Y-90300000D03*
X126990905Y-125372720D03*
X120563638Y-117300000D03*
X137530000Y-91200000D03*
X128827267Y-124363630D03*
X158162500Y-90300000D03*
X125154543Y-121336360D03*
X146372500Y-90300000D03*
X154232500Y-90300000D03*
X139495000Y-91200000D03*
X128827267Y-126381810D03*
X125154543Y-122345450D03*
X125154543Y-115281820D03*
X128827267Y-123354540D03*
X129745448Y-124363630D03*
X142442500Y-90300000D03*
X123318181Y-122345450D03*
X136547500Y-91200000D03*
X125154543Y-120327270D03*
X122400000Y-120327270D03*
X122400000Y-119318180D03*
X147355000Y-91200000D03*
X129745448Y-121336360D03*
X129745448Y-120327270D03*
X125154543Y-123354540D03*
X120563638Y-122345450D03*
X128827267Y-122345450D03*
X122400000Y-126381810D03*
X127909086Y-117300000D03*
X128827267Y-120327270D03*
X128687500Y-90300000D03*
X131635000Y-90300000D03*
X115300000Y-112000000D03*
X152267500Y-91200000D03*
X120563638Y-119318180D03*
X122400000Y-117300000D03*
X134582500Y-90300000D03*
X138512500Y-90300000D03*
X150302500Y-91200000D03*
X123318181Y-115281820D03*
X129745448Y-123354540D03*
X121481819Y-124363630D03*
X128827267Y-115281820D03*
X133600000Y-90300000D03*
X127909086Y-121336360D03*
X121481819Y-116290910D03*
X122400000Y-122345450D03*
X135565000Y-91200000D03*
X128827267Y-116290910D03*
X130652500Y-91200000D03*
X126990905Y-119318180D03*
X126990905Y-126381810D03*
X121481819Y-117300000D03*
X124236362Y-116290910D03*
X126990905Y-118309090D03*
X156197500Y-90300000D03*
X124236362Y-125372720D03*
X128827267Y-121336360D03*
X132617500Y-91200000D03*
X119845000Y-90300000D03*
X123775000Y-90300000D03*
X127909086Y-118309090D03*
X158162500Y-91200000D03*
X146372500Y-91200000D03*
X124236362Y-121336360D03*
X145390000Y-90300000D03*
X125154543Y-119318180D03*
X151285000Y-91200000D03*
X124236362Y-122345450D03*
X126722500Y-90300000D03*
X123318181Y-123354540D03*
X127909086Y-126381810D03*
X115700000Y-121400000D03*
X129745448Y-125372720D03*
X127909086Y-119318180D03*
X131635000Y-91200000D03*
X129745448Y-117300000D03*
X134582500Y-91200000D03*
X129745448Y-119318180D03*
X129745448Y-118309090D03*
X127705000Y-91200000D03*
X120563638Y-123354540D03*
X124236362Y-119318180D03*
X149320000Y-91200000D03*
X123318181Y-124363630D03*
X132617500Y-90300000D03*
X145390000Y-91200000D03*
X112500000Y-110900000D03*
X114200000Y-121800000D03*
X112500000Y-109600000D03*
X110900000Y-109600000D03*
X102100000Y-110300000D03*
X102100000Y-111500000D03*
X102200000Y-96000000D03*
X102200000Y-97200000D03*
X103600000Y-104800000D03*
X103600000Y-119000000D03*
X113200000Y-94800000D03*
X113200000Y-96600000D03*
X112000000Y-96600000D03*
X113900000Y-107800000D03*
X107200000Y-95800000D03*
X102600000Y-118100000D03*
X102600000Y-117100000D03*
X103500000Y-117100000D03*
X106700000Y-112700000D03*
X106700000Y-111500000D03*
X106700000Y-110300000D03*
X107200000Y-98600000D03*
X107200000Y-97200000D03*
X102400000Y-103000000D03*
X102400000Y-104000000D03*
X103400000Y-103000000D03*
X112900000Y-100800000D03*
X111000000Y-100500000D03*
X112900000Y-101700000D03*
X111000000Y-114900000D03*
X112900000Y-114900000D03*
X112900000Y-115800000D03*
X121000000Y-103300000D03*
X159600000Y-104900000D03*
X123960000Y-102300000D03*
X123940000Y-105200000D03*
X121020000Y-102300000D03*
X124920000Y-106200000D03*
X124920000Y-108200000D03*
X162300000Y-106700000D03*
X116900000Y-107400000D03*
X122960000Y-104300000D03*
X160500000Y-107600000D03*
X159600000Y-105800000D03*
X161400000Y-105800000D03*
X162300000Y-104900000D03*
X122960000Y-105200000D03*
X121000000Y-107200000D03*
X123940000Y-106200000D03*
X160500000Y-105800000D03*
X121000000Y-108200000D03*
X121980000Y-108200000D03*
X123940000Y-104300000D03*
X121980000Y-105200000D03*
X161400000Y-104900000D03*
X120040000Y-102300000D03*
X121000000Y-109200000D03*
X162300000Y-105800000D03*
X123940000Y-103300000D03*
X122960000Y-108200000D03*
X116000000Y-96900000D03*
X122980000Y-102300000D03*
X121000000Y-105200000D03*
X121980000Y-106200000D03*
X121980000Y-104300000D03*
X159600000Y-107600000D03*
X123940000Y-108200000D03*
X121000000Y-106200000D03*
X116000000Y-97900000D03*
X121980000Y-109200000D03*
X120020000Y-109200000D03*
X121000000Y-104300000D03*
X124920000Y-104300000D03*
X160500000Y-106700000D03*
X122000000Y-102300000D03*
X123940000Y-109200000D03*
X122960000Y-107200000D03*
X120020000Y-106200000D03*
X120020000Y-107200000D03*
X116900000Y-101400000D03*
X120020000Y-104300000D03*
X161400000Y-107600000D03*
X160500000Y-104900000D03*
X124920000Y-103300000D03*
X162300000Y-107600000D03*
X120020000Y-103300000D03*
X159600000Y-106700000D03*
X124940000Y-102300000D03*
X115900000Y-107400000D03*
X120020000Y-105200000D03*
X120020000Y-108200000D03*
X121980000Y-103300000D03*
X124920000Y-107200000D03*
X122960000Y-106200000D03*
X161400000Y-106700000D03*
X121980000Y-107200000D03*
X122960000Y-103300000D03*
X124920000Y-109200000D03*
X124920000Y-105200000D03*
X123940000Y-107200000D03*
X122960000Y-109200000D03*
X118100000Y-116300000D03*
X117000000Y-103200000D03*
G04 #@! TA.AperFunction,Conductor*
G36*
X158503999Y-89601050D02*
G01*
X158520611Y-89603225D01*
X158610722Y-89615029D01*
X158641834Y-89623322D01*
X158733813Y-89661209D01*
X158761744Y-89677236D01*
X158822874Y-89723826D01*
X158840860Y-89737533D01*
X158863725Y-89760219D01*
X158924638Y-89838852D01*
X158940889Y-89866661D01*
X158979497Y-89958334D01*
X158988037Y-89989390D01*
X159002855Y-90095992D01*
X159004032Y-90112088D01*
X159095904Y-101779828D01*
X159094961Y-101796101D01*
X159081551Y-101903975D01*
X159073337Y-101935454D01*
X159035442Y-102028489D01*
X159019324Y-102056747D01*
X158958531Y-102136732D01*
X158935619Y-102159825D01*
X158856125Y-102221239D01*
X158827993Y-102237580D01*
X158735249Y-102276209D01*
X158703839Y-102284669D01*
X158606174Y-102297592D01*
X158596084Y-102298928D01*
X158579819Y-102300000D01*
X151900000Y-102300000D01*
X151748288Y-102472400D01*
X151748282Y-102472406D01*
X150307046Y-104110175D01*
X149700000Y-104800000D01*
X149700000Y-104991689D01*
X149700000Y-127183872D01*
X149698939Y-127200058D01*
X149684820Y-127307296D01*
X149676442Y-127338562D01*
X149638189Y-127430914D01*
X149622003Y-127458949D01*
X149561146Y-127538258D01*
X149538258Y-127561146D01*
X149458949Y-127622003D01*
X149430914Y-127638189D01*
X149338562Y-127676442D01*
X149307296Y-127684820D01*
X149200059Y-127698939D01*
X149183873Y-127700000D01*
X120416127Y-127700000D01*
X120399941Y-127698939D01*
X120292703Y-127684820D01*
X120261437Y-127676442D01*
X120169085Y-127638189D01*
X120141050Y-127622003D01*
X120061741Y-127561146D01*
X120038853Y-127538258D01*
X119977996Y-127458949D01*
X119961810Y-127430914D01*
X119923557Y-127338562D01*
X119915179Y-127307295D01*
X119901061Y-127200057D01*
X119900000Y-127183872D01*
X119900000Y-113516127D01*
X119901061Y-113499942D01*
X119915179Y-113392704D01*
X119923556Y-113361440D01*
X119961812Y-113269081D01*
X119977996Y-113241050D01*
X120038853Y-113161741D01*
X120061741Y-113138853D01*
X120141050Y-113077996D01*
X120169081Y-113061812D01*
X120261440Y-113023556D01*
X120292701Y-113015179D01*
X120368241Y-113005234D01*
X120399942Y-113001061D01*
X120416127Y-113000000D01*
X124784145Y-113000000D01*
X124784149Y-113000000D01*
X125000000Y-113000000D01*
X127700000Y-110200000D01*
X127700000Y-101200000D01*
X127329760Y-100856205D01*
X126446185Y-100035742D01*
X126446179Y-100035737D01*
X126300000Y-99900000D01*
X126100513Y-99900000D01*
X126100511Y-99900000D01*
X119806331Y-99900000D01*
X119790965Y-99899044D01*
X119689056Y-99886317D01*
X119659270Y-99878760D01*
X119570855Y-99844192D01*
X119543846Y-99829544D01*
X119460316Y-99769762D01*
X119448390Y-99760053D01*
X118469707Y-98856652D01*
X118458008Y-98844258D01*
X118429342Y-98809372D01*
X118385881Y-98756478D01*
X118368099Y-98727491D01*
X118325990Y-98631313D01*
X118316751Y-98598585D01*
X118301171Y-98486040D01*
X118300000Y-98469036D01*
X118300000Y-90116127D01*
X118301061Y-90099942D01*
X118315179Y-89992704D01*
X118323556Y-89961440D01*
X118361812Y-89869081D01*
X118377996Y-89841050D01*
X118438853Y-89761741D01*
X118461741Y-89738853D01*
X118541050Y-89677996D01*
X118569081Y-89661812D01*
X118661440Y-89623556D01*
X118692701Y-89615179D01*
X118768241Y-89605234D01*
X118799942Y-89601061D01*
X118816127Y-89600000D01*
X158487895Y-89600000D01*
X158503999Y-89601050D01*
G37*
G04 #@! TD.AperFunction*
G04 #@! TA.AperFunction,Conductor*
G36*
X114396141Y-108601070D02*
G01*
X114503897Y-108615328D01*
X114535306Y-108623788D01*
X114581672Y-108643098D01*
X114628039Y-108662410D01*
X114656165Y-108678745D01*
X114733977Y-108738853D01*
X114735664Y-108740156D01*
X114758573Y-108763243D01*
X114819366Y-108843216D01*
X114835483Y-108871468D01*
X114873385Y-108964498D01*
X114881601Y-108995973D01*
X114895022Y-109103834D01*
X114895967Y-109120106D01*
X114887314Y-110236354D01*
X114867111Y-110303239D01*
X114845547Y-110328207D01*
X114806503Y-110362797D01*
X114806500Y-110362801D01*
X114716214Y-110493602D01*
X114659850Y-110642218D01*
X114640693Y-110799999D01*
X114640693Y-110800000D01*
X114659850Y-110957781D01*
X114716214Y-111106397D01*
X114806500Y-111237198D01*
X114806502Y-111237201D01*
X114836851Y-111264088D01*
X114873977Y-111323278D01*
X114878619Y-111357863D01*
X114877947Y-111444652D01*
X114857744Y-111511537D01*
X114836180Y-111536506D01*
X114806503Y-111562797D01*
X114806500Y-111562801D01*
X114716214Y-111693602D01*
X114659850Y-111842218D01*
X114640693Y-111999999D01*
X114640693Y-112000000D01*
X114659850Y-112157781D01*
X114700427Y-112264773D01*
X114716213Y-112306395D01*
X114806502Y-112437201D01*
X114806504Y-112437203D01*
X114806507Y-112437206D01*
X114827612Y-112455904D01*
X114864738Y-112515094D01*
X114869380Y-112549679D01*
X114800016Y-121497898D01*
X114800015Y-121498031D01*
X114800000Y-121500000D01*
X114800000Y-121501969D01*
X114800000Y-121502111D01*
X114800000Y-121940242D01*
X114798473Y-121959641D01*
X114781047Y-122069659D01*
X114769059Y-122106554D01*
X114722973Y-122197004D01*
X114700169Y-122228391D01*
X114628391Y-122300169D01*
X114597004Y-122322973D01*
X114506554Y-122369059D01*
X114469659Y-122381047D01*
X114385405Y-122394392D01*
X114359639Y-122398473D01*
X114340243Y-122400000D01*
X114016127Y-122400000D01*
X113999941Y-122398939D01*
X113892703Y-122384820D01*
X113861437Y-122376442D01*
X113769085Y-122338189D01*
X113741050Y-122322003D01*
X113661741Y-122261146D01*
X113638853Y-122238258D01*
X113577996Y-122158949D01*
X113561810Y-122130914D01*
X113523557Y-122038562D01*
X113515179Y-122007295D01*
X113501061Y-121900057D01*
X113500000Y-121883872D01*
X113500000Y-116086369D01*
X113508058Y-116042397D01*
X113540149Y-115957781D01*
X113559307Y-115800000D01*
X113559307Y-115799999D01*
X113540149Y-115642217D01*
X113508058Y-115557601D01*
X113500000Y-115513630D01*
X113500000Y-115186369D01*
X113508058Y-115142397D01*
X113540149Y-115057781D01*
X113559307Y-114900000D01*
X113559307Y-114899999D01*
X113540149Y-114742218D01*
X113500000Y-114636356D01*
X113500000Y-114600000D01*
X113466440Y-114568474D01*
X113393499Y-114462801D01*
X113393498Y-114462799D01*
X113393495Y-114462796D01*
X113393493Y-114462794D01*
X113274529Y-114357401D01*
X113274527Y-114357399D01*
X113215208Y-114326266D01*
X113187934Y-114306847D01*
X111197662Y-112437198D01*
X110366341Y-111656259D01*
X110354866Y-111643907D01*
X110284129Y-111556528D01*
X110266701Y-111527745D01*
X110225445Y-111432385D01*
X110216401Y-111399980D01*
X110201147Y-111288596D01*
X110200000Y-111271772D01*
X110200000Y-109116127D01*
X110201061Y-109099942D01*
X110215179Y-108992704D01*
X110223556Y-108961440D01*
X110261812Y-108869081D01*
X110277996Y-108841050D01*
X110338853Y-108761741D01*
X110361741Y-108738853D01*
X110441050Y-108677996D01*
X110469081Y-108661812D01*
X110561440Y-108623556D01*
X110592701Y-108615179D01*
X110668241Y-108605234D01*
X110699942Y-108601061D01*
X110716127Y-108600000D01*
X114379877Y-108600000D01*
X114396141Y-108601070D01*
G37*
G04 #@! TD.AperFunction*
G04 #@! TA.AperFunction,Conductor*
G36*
X113900058Y-94001061D02*
G01*
X113946263Y-94007144D01*
X114007296Y-94015179D01*
X114038561Y-94023556D01*
X114130915Y-94061810D01*
X114158949Y-94077996D01*
X114238258Y-94138853D01*
X114261146Y-94161741D01*
X114322003Y-94241050D01*
X114338189Y-94269085D01*
X114376442Y-94361437D01*
X114384820Y-94392703D01*
X114398939Y-94499941D01*
X114400000Y-94516127D01*
X114400000Y-107883872D01*
X114398939Y-107900058D01*
X114384820Y-108007296D01*
X114376442Y-108038562D01*
X114338189Y-108130914D01*
X114322003Y-108158949D01*
X114261146Y-108238258D01*
X114238259Y-108261146D01*
X114168240Y-108314875D01*
X114103071Y-108340070D01*
X114092752Y-108340500D01*
X113607248Y-108340500D01*
X113540209Y-108320815D01*
X113531761Y-108314875D01*
X113461741Y-108261146D01*
X113438853Y-108238258D01*
X113377996Y-108158949D01*
X113361810Y-108130914D01*
X113323557Y-108038562D01*
X113315179Y-108007295D01*
X113301061Y-107900057D01*
X113300000Y-107883872D01*
X113300000Y-102275840D01*
X113319685Y-102208801D01*
X113341771Y-102183027D01*
X113393498Y-102137201D01*
X113483787Y-102006395D01*
X113540149Y-101857782D01*
X113559307Y-101700000D01*
X113540149Y-101542218D01*
X113483787Y-101393605D01*
X113483785Y-101393603D01*
X113483785Y-101393601D01*
X113433285Y-101320441D01*
X113411401Y-101254087D01*
X113428866Y-101186435D01*
X113433285Y-101179559D01*
X113483785Y-101106398D01*
X113483785Y-101106397D01*
X113483787Y-101106395D01*
X113540149Y-100957782D01*
X113559307Y-100800000D01*
X113540149Y-100642218D01*
X113483787Y-100493605D01*
X113393498Y-100362799D01*
X113393494Y-100362796D01*
X113393492Y-100362793D01*
X113341772Y-100316972D01*
X113304646Y-100257782D01*
X113300000Y-100224158D01*
X113300000Y-100115667D01*
X113300000Y-100115660D01*
X113300000Y-99900000D01*
X110561120Y-97255564D01*
X110549989Y-97243275D01*
X110481414Y-97156561D01*
X110464536Y-97128101D01*
X110424610Y-97034053D01*
X110415859Y-97002141D01*
X110401109Y-96892576D01*
X110400000Y-96876032D01*
X110400000Y-94516127D01*
X110401061Y-94499942D01*
X110415179Y-94392704D01*
X110423556Y-94361440D01*
X110461812Y-94269081D01*
X110477996Y-94241050D01*
X110538853Y-94161741D01*
X110561741Y-94138853D01*
X110641050Y-94077996D01*
X110669081Y-94061812D01*
X110761440Y-94023556D01*
X110792701Y-94015179D01*
X110868241Y-94005234D01*
X110899942Y-94001061D01*
X110916127Y-94000000D01*
X113883873Y-94000000D01*
X113900058Y-94001061D01*
G37*
G04 #@! TD.AperFunction*
G04 #@! TA.AperFunction,Conductor*
G36*
X104916445Y-93019685D02*
G01*
X104952612Y-93058882D01*
X104954022Y-93057941D01*
X104957405Y-93063005D01*
X105083431Y-93216568D01*
X105236994Y-93342594D01*
X105237001Y-93342598D01*
X105412191Y-93436239D01*
X105412193Y-93436239D01*
X105412196Y-93436241D01*
X105602299Y-93493908D01*
X105602298Y-93493908D01*
X105620024Y-93495653D01*
X105800000Y-93513380D01*
X105997701Y-93493908D01*
X106187804Y-93436241D01*
X106363004Y-93342595D01*
X106516568Y-93216568D01*
X106642595Y-93063004D01*
X106642596Y-93063001D01*
X106645978Y-93057941D01*
X106647626Y-93059042D01*
X106690194Y-93015705D01*
X106750594Y-93000000D01*
X107087283Y-93000000D01*
X107103400Y-93001052D01*
X107210192Y-93015051D01*
X107241336Y-93023359D01*
X107333368Y-93061300D01*
X107361319Y-93077355D01*
X107440464Y-93137736D01*
X107463328Y-93160447D01*
X107524239Y-93239191D01*
X107540477Y-93267031D01*
X107579031Y-93358808D01*
X107587547Y-93389897D01*
X107602258Y-93496598D01*
X107603417Y-93512707D01*
X107796572Y-122485918D01*
X107795624Y-122502069D01*
X107782291Y-122609132D01*
X107774163Y-122640381D01*
X107736711Y-122732795D01*
X107720790Y-122760888D01*
X107660747Y-122840499D01*
X107638115Y-122863526D01*
X107559554Y-122924938D01*
X107531741Y-122941343D01*
X107439988Y-122980389D01*
X107408885Y-122989057D01*
X107334628Y-122999613D01*
X107302062Y-123004242D01*
X107285944Y-123005468D01*
X99317450Y-123090239D01*
X89521583Y-123194450D01*
X89505279Y-123193548D01*
X89397193Y-123180390D01*
X89365641Y-123172235D01*
X89272361Y-123134466D01*
X89244024Y-123118373D01*
X89163807Y-123057608D01*
X89140640Y-123034686D01*
X89103532Y-122986766D01*
X89079022Y-122955115D01*
X89062633Y-122926957D01*
X89023874Y-122834085D01*
X89015384Y-122802625D01*
X89008128Y-122747888D01*
X89001075Y-122694675D01*
X89000000Y-122678381D01*
X89000000Y-121189701D01*
X89840489Y-121189701D01*
X89858895Y-121400088D01*
X89858897Y-121400099D01*
X89913555Y-121604087D01*
X89913557Y-121604091D01*
X89913558Y-121604095D01*
X90002814Y-121795506D01*
X90002816Y-121795510D01*
X90123948Y-121968504D01*
X90123953Y-121968510D01*
X90273289Y-122117846D01*
X90273295Y-122117851D01*
X90446289Y-122238983D01*
X90446291Y-122238984D01*
X90446294Y-122238986D01*
X90637705Y-122328242D01*
X90841706Y-122382904D01*
X90991987Y-122396051D01*
X91052098Y-122401311D01*
X91052100Y-122401311D01*
X91052102Y-122401311D01*
X91104698Y-122396709D01*
X91262494Y-122382904D01*
X91466495Y-122328242D01*
X91657906Y-122238986D01*
X91830909Y-122117848D01*
X91980248Y-121968509D01*
X92101386Y-121795506D01*
X92190642Y-121604095D01*
X92202325Y-121560494D01*
X92238690Y-121500833D01*
X92301537Y-121470304D01*
X92370912Y-121478599D01*
X92424790Y-121523084D01*
X92441875Y-121560494D01*
X92453555Y-121604087D01*
X92453557Y-121604091D01*
X92453558Y-121604095D01*
X92542814Y-121795506D01*
X92542816Y-121795510D01*
X92663948Y-121968504D01*
X92663953Y-121968510D01*
X92813289Y-122117846D01*
X92813295Y-122117851D01*
X92986289Y-122238983D01*
X92986291Y-122238984D01*
X92986294Y-122238986D01*
X93177705Y-122328242D01*
X93381706Y-122382904D01*
X93531987Y-122396051D01*
X93592098Y-122401311D01*
X93592100Y-122401311D01*
X93592102Y-122401311D01*
X93644698Y-122396709D01*
X93802494Y-122382904D01*
X94006495Y-122328242D01*
X94197906Y-122238986D01*
X94370909Y-122117848D01*
X94520248Y-121968509D01*
X94641386Y-121795506D01*
X94730642Y-121604095D01*
X94742325Y-121560494D01*
X94778690Y-121500833D01*
X94841537Y-121470304D01*
X94910912Y-121478599D01*
X94964790Y-121523084D01*
X94981875Y-121560494D01*
X94993555Y-121604087D01*
X94993557Y-121604091D01*
X94993558Y-121604095D01*
X95082814Y-121795506D01*
X95082816Y-121795510D01*
X95203948Y-121968504D01*
X95203953Y-121968510D01*
X95353289Y-122117846D01*
X95353295Y-122117851D01*
X95526289Y-122238983D01*
X95526291Y-122238984D01*
X95526294Y-122238986D01*
X95717705Y-122328242D01*
X95921706Y-122382904D01*
X96071987Y-122396051D01*
X96132098Y-122401311D01*
X96132100Y-122401311D01*
X96132102Y-122401311D01*
X96184698Y-122396709D01*
X96342494Y-122382904D01*
X96546495Y-122328242D01*
X96737906Y-122238986D01*
X96910909Y-122117848D01*
X97060248Y-121968509D01*
X97181386Y-121795506D01*
X97270642Y-121604095D01*
X97325304Y-121400094D01*
X97343711Y-121189700D01*
X97325304Y-120979306D01*
X97270642Y-120775305D01*
X97181386Y-120583895D01*
X97060248Y-120410891D01*
X96910909Y-120261552D01*
X96910905Y-120261549D01*
X96910904Y-120261548D01*
X96737910Y-120140416D01*
X96737906Y-120140414D01*
X96737904Y-120140413D01*
X96546495Y-120051158D01*
X96546491Y-120051157D01*
X96546487Y-120051155D01*
X96342499Y-119996497D01*
X96342495Y-119996496D01*
X96342494Y-119996496D01*
X96342493Y-119996495D01*
X96342488Y-119996495D01*
X96132102Y-119978089D01*
X96132098Y-119978089D01*
X95921711Y-119996495D01*
X95921700Y-119996497D01*
X95717712Y-120051155D01*
X95717703Y-120051159D01*
X95526296Y-120140413D01*
X95526294Y-120140414D01*
X95353288Y-120261553D01*
X95203953Y-120410888D01*
X95082814Y-120583894D01*
X95082813Y-120583896D01*
X94993559Y-120775303D01*
X94993556Y-120775309D01*
X94981875Y-120818906D01*
X94945510Y-120878566D01*
X94882663Y-120909095D01*
X94813287Y-120900800D01*
X94759409Y-120856315D01*
X94742325Y-120818906D01*
X94730643Y-120775309D01*
X94730642Y-120775305D01*
X94641386Y-120583895D01*
X94520248Y-120410891D01*
X94370909Y-120261552D01*
X94370905Y-120261549D01*
X94370904Y-120261548D01*
X94197910Y-120140416D01*
X94197906Y-120140414D01*
X94197904Y-120140413D01*
X94006495Y-120051158D01*
X94006491Y-120051157D01*
X94006487Y-120051155D01*
X93962894Y-120039475D01*
X93903233Y-120003110D01*
X93872704Y-119940263D01*
X93880999Y-119870888D01*
X93925484Y-119817010D01*
X93962894Y-119799925D01*
X93983317Y-119794452D01*
X94006495Y-119788242D01*
X94197906Y-119698986D01*
X94370909Y-119577848D01*
X94520248Y-119428509D01*
X94641386Y-119255506D01*
X94730642Y-119064095D01*
X94747816Y-119000000D01*
X102686496Y-119000000D01*
X102706458Y-119189928D01*
X102706459Y-119189931D01*
X102765470Y-119371549D01*
X102765473Y-119371556D01*
X102860960Y-119536944D01*
X102988747Y-119678866D01*
X103143248Y-119791118D01*
X103317712Y-119868794D01*
X103504513Y-119908500D01*
X103695487Y-119908500D01*
X103882288Y-119868794D01*
X104056752Y-119791118D01*
X104211253Y-119678866D01*
X104339040Y-119536944D01*
X104434527Y-119371556D01*
X104493542Y-119189928D01*
X104513504Y-119000000D01*
X104493542Y-118810072D01*
X104434527Y-118628444D01*
X104339040Y-118463056D01*
X104211253Y-118321134D01*
X104056752Y-118208882D01*
X103882288Y-118131206D01*
X103882286Y-118131205D01*
X103695487Y-118091500D01*
X103504513Y-118091500D01*
X103317714Y-118131205D01*
X103143246Y-118208883D01*
X102988745Y-118321135D01*
X102860959Y-118463057D01*
X102765473Y-118628443D01*
X102765470Y-118628450D01*
X102706459Y-118810068D01*
X102706458Y-118810072D01*
X102686496Y-119000000D01*
X94747816Y-119000000D01*
X94785304Y-118860094D01*
X94803711Y-118649700D01*
X94785304Y-118439306D01*
X94730642Y-118235305D01*
X94641386Y-118043895D01*
X94520248Y-117870891D01*
X94370909Y-117721552D01*
X94370905Y-117721549D01*
X94370904Y-117721548D01*
X94197910Y-117600416D01*
X94197906Y-117600414D01*
X94197904Y-117600413D01*
X94006495Y-117511158D01*
X94006491Y-117511157D01*
X94006487Y-117511155D01*
X93802499Y-117456497D01*
X93802495Y-117456496D01*
X93802494Y-117456496D01*
X93802493Y-117456495D01*
X93802488Y-117456495D01*
X93592102Y-117438089D01*
X93592098Y-117438089D01*
X93381711Y-117456495D01*
X93381700Y-117456497D01*
X93177712Y-117511155D01*
X93177703Y-117511159D01*
X92986296Y-117600413D01*
X92986294Y-117600414D01*
X92813288Y-117721553D01*
X92663953Y-117870888D01*
X92542814Y-118043894D01*
X92542813Y-118043896D01*
X92453559Y-118235303D01*
X92453556Y-118235309D01*
X92441875Y-118278906D01*
X92405510Y-118338566D01*
X92342663Y-118369095D01*
X92273287Y-118360800D01*
X92219409Y-118316315D01*
X92202325Y-118278906D01*
X92190643Y-118235309D01*
X92190642Y-118235305D01*
X92101386Y-118043895D01*
X91980248Y-117870891D01*
X91830909Y-117721552D01*
X91830905Y-117721549D01*
X91830904Y-117721548D01*
X91657910Y-117600416D01*
X91657906Y-117600414D01*
X91657904Y-117600413D01*
X91466495Y-117511158D01*
X91466491Y-117511157D01*
X91466487Y-117511155D01*
X91262499Y-117456497D01*
X91262495Y-117456496D01*
X91262494Y-117456496D01*
X91262493Y-117456495D01*
X91262488Y-117456495D01*
X91052102Y-117438089D01*
X91052098Y-117438089D01*
X90841711Y-117456495D01*
X90841700Y-117456497D01*
X90637712Y-117511155D01*
X90637703Y-117511159D01*
X90446296Y-117600413D01*
X90446294Y-117600414D01*
X90273288Y-117721553D01*
X90123953Y-117870888D01*
X90002814Y-118043894D01*
X90002813Y-118043896D01*
X89913559Y-118235303D01*
X89913555Y-118235312D01*
X89858897Y-118439300D01*
X89858895Y-118439311D01*
X89840489Y-118649698D01*
X89840489Y-118649701D01*
X89858895Y-118860088D01*
X89858897Y-118860099D01*
X89913555Y-119064087D01*
X89913557Y-119064091D01*
X89913558Y-119064095D01*
X89972235Y-119189928D01*
X90002814Y-119255506D01*
X90002816Y-119255510D01*
X90123948Y-119428504D01*
X90123953Y-119428510D01*
X90273289Y-119577846D01*
X90273295Y-119577851D01*
X90446289Y-119698983D01*
X90446291Y-119698984D01*
X90446294Y-119698986D01*
X90637705Y-119788242D01*
X90648431Y-119791116D01*
X90681306Y-119799925D01*
X90740966Y-119836290D01*
X90771495Y-119899137D01*
X90763200Y-119968513D01*
X90718715Y-120022391D01*
X90681306Y-120039475D01*
X90637709Y-120051156D01*
X90637703Y-120051159D01*
X90446296Y-120140413D01*
X90446294Y-120140414D01*
X90273288Y-120261553D01*
X90123953Y-120410888D01*
X90002814Y-120583894D01*
X90002813Y-120583896D01*
X89913559Y-120775303D01*
X89913555Y-120775312D01*
X89858897Y-120979300D01*
X89858895Y-120979311D01*
X89840489Y-121189698D01*
X89840489Y-121189701D01*
X89000000Y-121189701D01*
X89000000Y-111500000D01*
X101186496Y-111500000D01*
X101206458Y-111689928D01*
X101206459Y-111689931D01*
X101265470Y-111871549D01*
X101265473Y-111871556D01*
X101360960Y-112036944D01*
X101488747Y-112178866D01*
X101643248Y-112291118D01*
X101817712Y-112368794D01*
X102004513Y-112408500D01*
X102195487Y-112408500D01*
X102382288Y-112368794D01*
X102556752Y-112291118D01*
X102711253Y-112178866D01*
X102839040Y-112036944D01*
X102934527Y-111871556D01*
X102993542Y-111689928D01*
X103013504Y-111500000D01*
X102993542Y-111310072D01*
X102934527Y-111128444D01*
X102839040Y-110963056D01*
X102839039Y-110963055D01*
X102838430Y-110962000D01*
X102821957Y-110894100D01*
X102838430Y-110838000D01*
X102839040Y-110836944D01*
X102934527Y-110671556D01*
X102993542Y-110489928D01*
X103013504Y-110300000D01*
X102993542Y-110110072D01*
X102934527Y-109928444D01*
X102839040Y-109763056D01*
X102711253Y-109621134D01*
X102556752Y-109508882D01*
X102382288Y-109431206D01*
X102382286Y-109431205D01*
X102195487Y-109391500D01*
X102004513Y-109391500D01*
X101817714Y-109431205D01*
X101643246Y-109508883D01*
X101488745Y-109621135D01*
X101360959Y-109763057D01*
X101265473Y-109928443D01*
X101265470Y-109928450D01*
X101206459Y-110110068D01*
X101206458Y-110110072D01*
X101186496Y-110300000D01*
X101206458Y-110489928D01*
X101206459Y-110489931D01*
X101265470Y-110671549D01*
X101265473Y-110671556D01*
X101361569Y-110838000D01*
X101378042Y-110905901D01*
X101361569Y-110962000D01*
X101265473Y-111128443D01*
X101265470Y-111128450D01*
X101206459Y-111310068D01*
X101206458Y-111310072D01*
X101186496Y-111500000D01*
X89000000Y-111500000D01*
X89000000Y-104800000D01*
X102686496Y-104800000D01*
X102706458Y-104989928D01*
X102706459Y-104989931D01*
X102765470Y-105171549D01*
X102765473Y-105171556D01*
X102860960Y-105336944D01*
X102988747Y-105478866D01*
X103143248Y-105591118D01*
X103317712Y-105668794D01*
X103504513Y-105708500D01*
X103695487Y-105708500D01*
X103882288Y-105668794D01*
X104056752Y-105591118D01*
X104211253Y-105478866D01*
X104339040Y-105336944D01*
X104434527Y-105171556D01*
X104493542Y-104989928D01*
X104513504Y-104800000D01*
X104493542Y-104610072D01*
X104434527Y-104428444D01*
X104339040Y-104263056D01*
X104211253Y-104121134D01*
X104056752Y-104008882D01*
X103882288Y-103931206D01*
X103882286Y-103931205D01*
X103695487Y-103891500D01*
X103504513Y-103891500D01*
X103317714Y-103931205D01*
X103143246Y-104008883D01*
X102988745Y-104121135D01*
X102860959Y-104263057D01*
X102765473Y-104428443D01*
X102765470Y-104428450D01*
X102706459Y-104610068D01*
X102706458Y-104610072D01*
X102686496Y-104800000D01*
X89000000Y-104800000D01*
X89000000Y-97140001D01*
X90048389Y-97140001D01*
X90066795Y-97350388D01*
X90066797Y-97350399D01*
X90121455Y-97554387D01*
X90121457Y-97554391D01*
X90121458Y-97554395D01*
X90206581Y-97736942D01*
X90210714Y-97745806D01*
X90210716Y-97745810D01*
X90331848Y-97918804D01*
X90331853Y-97918810D01*
X90481189Y-98068146D01*
X90481195Y-98068151D01*
X90654189Y-98189283D01*
X90654191Y-98189284D01*
X90654194Y-98189286D01*
X90845605Y-98278542D01*
X91049606Y-98333204D01*
X91199887Y-98346351D01*
X91259998Y-98351611D01*
X91260000Y-98351611D01*
X91260002Y-98351611D01*
X91312598Y-98347009D01*
X91470394Y-98333204D01*
X91674395Y-98278542D01*
X91865806Y-98189286D01*
X92038809Y-98068148D01*
X92188148Y-97918809D01*
X92309286Y-97745806D01*
X92398542Y-97554395D01*
X92410225Y-97510794D01*
X92446590Y-97451133D01*
X92509437Y-97420604D01*
X92578812Y-97428899D01*
X92632690Y-97473384D01*
X92649775Y-97510794D01*
X92661455Y-97554387D01*
X92661457Y-97554391D01*
X92661458Y-97554395D01*
X92746581Y-97736942D01*
X92750714Y-97745806D01*
X92750716Y-97745810D01*
X92871848Y-97918804D01*
X92871853Y-97918810D01*
X93021189Y-98068146D01*
X93021195Y-98068151D01*
X93194189Y-98189283D01*
X93194191Y-98189284D01*
X93194194Y-98189286D01*
X93385605Y-98278542D01*
X93589606Y-98333204D01*
X93739887Y-98346351D01*
X93799998Y-98351611D01*
X93800000Y-98351611D01*
X93800002Y-98351611D01*
X93852598Y-98347009D01*
X94010394Y-98333204D01*
X94214395Y-98278542D01*
X94405806Y-98189286D01*
X94578809Y-98068148D01*
X94728148Y-97918809D01*
X94849286Y-97745806D01*
X94938542Y-97554395D01*
X94950225Y-97510794D01*
X94986590Y-97451133D01*
X95049437Y-97420604D01*
X95118812Y-97428899D01*
X95172690Y-97473384D01*
X95189775Y-97510794D01*
X95201455Y-97554387D01*
X95201457Y-97554391D01*
X95201458Y-97554395D01*
X95286581Y-97736942D01*
X95290714Y-97745806D01*
X95290716Y-97745810D01*
X95411848Y-97918804D01*
X95411853Y-97918810D01*
X95561189Y-98068146D01*
X95561195Y-98068151D01*
X95734189Y-98189283D01*
X95734191Y-98189284D01*
X95734194Y-98189286D01*
X95925605Y-98278542D01*
X96129606Y-98333204D01*
X96279887Y-98346351D01*
X96339998Y-98351611D01*
X96340000Y-98351611D01*
X96340002Y-98351611D01*
X96392598Y-98347009D01*
X96550394Y-98333204D01*
X96754395Y-98278542D01*
X96945806Y-98189286D01*
X97118809Y-98068148D01*
X97268148Y-97918809D01*
X97389286Y-97745806D01*
X97478542Y-97554395D01*
X97533204Y-97350394D01*
X97546362Y-97200000D01*
X101286496Y-97200000D01*
X101306458Y-97389928D01*
X101306459Y-97389931D01*
X101365470Y-97571549D01*
X101365473Y-97571556D01*
X101460960Y-97736944D01*
X101588747Y-97878866D01*
X101743248Y-97991118D01*
X101917712Y-98068794D01*
X102104513Y-98108500D01*
X102295487Y-98108500D01*
X102482288Y-98068794D01*
X102656752Y-97991118D01*
X102811253Y-97878866D01*
X102939040Y-97736944D01*
X103034527Y-97571556D01*
X103093542Y-97389928D01*
X103113504Y-97200000D01*
X103093542Y-97010072D01*
X103034527Y-96828444D01*
X102939040Y-96663056D01*
X102939039Y-96663055D01*
X102938430Y-96662000D01*
X102921957Y-96594100D01*
X102938430Y-96538000D01*
X102939040Y-96536944D01*
X103034527Y-96371556D01*
X103093542Y-96189928D01*
X103113504Y-96000000D01*
X103093542Y-95810072D01*
X103034527Y-95628444D01*
X102939040Y-95463056D01*
X102811253Y-95321134D01*
X102656752Y-95208882D01*
X102482288Y-95131206D01*
X102482286Y-95131205D01*
X102295487Y-95091500D01*
X102104513Y-95091500D01*
X101917714Y-95131205D01*
X101743246Y-95208883D01*
X101588745Y-95321135D01*
X101460959Y-95463057D01*
X101365473Y-95628443D01*
X101365470Y-95628450D01*
X101306459Y-95810068D01*
X101306458Y-95810072D01*
X101286496Y-96000000D01*
X101306458Y-96189928D01*
X101306459Y-96189931D01*
X101365470Y-96371549D01*
X101365473Y-96371556D01*
X101461569Y-96538000D01*
X101478042Y-96605901D01*
X101461569Y-96662000D01*
X101365473Y-96828443D01*
X101365470Y-96828450D01*
X101306459Y-97010068D01*
X101306458Y-97010072D01*
X101286496Y-97200000D01*
X97546362Y-97200000D01*
X97551611Y-97140000D01*
X97533204Y-96929606D01*
X97478542Y-96725605D01*
X97389286Y-96534195D01*
X97268148Y-96361191D01*
X97118809Y-96211852D01*
X97118805Y-96211849D01*
X97118804Y-96211848D01*
X96945810Y-96090716D01*
X96945806Y-96090714D01*
X96945804Y-96090713D01*
X96754395Y-96001458D01*
X96754391Y-96001457D01*
X96754387Y-96001455D01*
X96550399Y-95946797D01*
X96550395Y-95946796D01*
X96550394Y-95946796D01*
X96550393Y-95946795D01*
X96550388Y-95946795D01*
X96340002Y-95928389D01*
X96339998Y-95928389D01*
X96129611Y-95946795D01*
X96129600Y-95946797D01*
X95925612Y-96001455D01*
X95925603Y-96001459D01*
X95734196Y-96090713D01*
X95734194Y-96090714D01*
X95561188Y-96211853D01*
X95411853Y-96361188D01*
X95290714Y-96534194D01*
X95290713Y-96534196D01*
X95201459Y-96725603D01*
X95201456Y-96725609D01*
X95189775Y-96769206D01*
X95153410Y-96828866D01*
X95090563Y-96859395D01*
X95021187Y-96851100D01*
X94967309Y-96806615D01*
X94950225Y-96769206D01*
X94938543Y-96725609D01*
X94938542Y-96725605D01*
X94849286Y-96534195D01*
X94728148Y-96361191D01*
X94578809Y-96211852D01*
X94578805Y-96211849D01*
X94578804Y-96211848D01*
X94405810Y-96090716D01*
X94405806Y-96090714D01*
X94405804Y-96090713D01*
X94214395Y-96001458D01*
X94214391Y-96001457D01*
X94214387Y-96001455D01*
X94170794Y-95989775D01*
X94111133Y-95953410D01*
X94080604Y-95890563D01*
X94088899Y-95821188D01*
X94133384Y-95767310D01*
X94170794Y-95750225D01*
X94191217Y-95744752D01*
X94214395Y-95738542D01*
X94405806Y-95649286D01*
X94578809Y-95528148D01*
X94728148Y-95378809D01*
X94849286Y-95205806D01*
X94938542Y-95014395D01*
X94993204Y-94810394D01*
X95011611Y-94600000D01*
X94993204Y-94389606D01*
X94938542Y-94185605D01*
X94849286Y-93994195D01*
X94728148Y-93821191D01*
X94578809Y-93671852D01*
X94578805Y-93671849D01*
X94578804Y-93671848D01*
X94405810Y-93550716D01*
X94405806Y-93550714D01*
X94405804Y-93550713D01*
X94214395Y-93461458D01*
X94214391Y-93461457D01*
X94214387Y-93461455D01*
X94010399Y-93406797D01*
X94010395Y-93406796D01*
X94010394Y-93406796D01*
X94010393Y-93406795D01*
X94010388Y-93406795D01*
X93800002Y-93388389D01*
X93799998Y-93388389D01*
X93589611Y-93406795D01*
X93589600Y-93406797D01*
X93385612Y-93461455D01*
X93385603Y-93461459D01*
X93194196Y-93550713D01*
X93194194Y-93550714D01*
X93021188Y-93671853D01*
X92871853Y-93821188D01*
X92750714Y-93994194D01*
X92750713Y-93994196D01*
X92661459Y-94185603D01*
X92661456Y-94185609D01*
X92649775Y-94229206D01*
X92613410Y-94288866D01*
X92550563Y-94319395D01*
X92481187Y-94311100D01*
X92427309Y-94266615D01*
X92410225Y-94229206D01*
X92398543Y-94185609D01*
X92398542Y-94185605D01*
X92309286Y-93994195D01*
X92188148Y-93821191D01*
X92038809Y-93671852D01*
X92038805Y-93671849D01*
X92038804Y-93671848D01*
X91865810Y-93550716D01*
X91865806Y-93550714D01*
X91865804Y-93550713D01*
X91674395Y-93461458D01*
X91674391Y-93461457D01*
X91674387Y-93461455D01*
X91470399Y-93406797D01*
X91470395Y-93406796D01*
X91470394Y-93406796D01*
X91470393Y-93406795D01*
X91470388Y-93406795D01*
X91260002Y-93388389D01*
X91259998Y-93388389D01*
X91049611Y-93406795D01*
X91049600Y-93406797D01*
X90845612Y-93461455D01*
X90845603Y-93461459D01*
X90654196Y-93550713D01*
X90654194Y-93550714D01*
X90481188Y-93671853D01*
X90331853Y-93821188D01*
X90210714Y-93994194D01*
X90210713Y-93994196D01*
X90121459Y-94185603D01*
X90121455Y-94185612D01*
X90066797Y-94389600D01*
X90066795Y-94389611D01*
X90048389Y-94599998D01*
X90048389Y-94600001D01*
X90066795Y-94810388D01*
X90066797Y-94810399D01*
X90121455Y-95014387D01*
X90121457Y-95014391D01*
X90121458Y-95014395D01*
X90175927Y-95131205D01*
X90210714Y-95205806D01*
X90210716Y-95205810D01*
X90331848Y-95378804D01*
X90331853Y-95378810D01*
X90481189Y-95528146D01*
X90481195Y-95528151D01*
X90654189Y-95649283D01*
X90654191Y-95649284D01*
X90654194Y-95649286D01*
X90845605Y-95738542D01*
X90861388Y-95742771D01*
X90889206Y-95750225D01*
X90948866Y-95786590D01*
X90979395Y-95849437D01*
X90971100Y-95918813D01*
X90926615Y-95972691D01*
X90889206Y-95989775D01*
X90845609Y-96001456D01*
X90845603Y-96001459D01*
X90654196Y-96090713D01*
X90654194Y-96090714D01*
X90481188Y-96211853D01*
X90331853Y-96361188D01*
X90210714Y-96534194D01*
X90210713Y-96534196D01*
X90121459Y-96725603D01*
X90121455Y-96725612D01*
X90066797Y-96929600D01*
X90066795Y-96929611D01*
X90048389Y-97139998D01*
X90048389Y-97140001D01*
X89000000Y-97140001D01*
X89000000Y-93516127D01*
X89001061Y-93499942D01*
X89015179Y-93392704D01*
X89023556Y-93361440D01*
X89061812Y-93269081D01*
X89077996Y-93241050D01*
X89138853Y-93161741D01*
X89161741Y-93138853D01*
X89241050Y-93077996D01*
X89269081Y-93061812D01*
X89361440Y-93023556D01*
X89392701Y-93015179D01*
X89468241Y-93005234D01*
X89499942Y-93001061D01*
X89516127Y-93000000D01*
X104849406Y-93000000D01*
X104916445Y-93019685D01*
G37*
G04 #@! TD.AperFunction*
M02*
