G04 #@! TF.GenerationSoftware,KiCad,Pcbnew,8.0.1*
G04 #@! TF.CreationDate,2024-04-17T20:24:04+03:00*
G04 #@! TF.ProjectId,Daughterboard,44617567-6874-4657-9262-6f6172642e6b,rev?*
G04 #@! TF.SameCoordinates,Original*
G04 #@! TF.FileFunction,Copper,L1,Top*
G04 #@! TF.FilePolarity,Positive*
%FSLAX46Y46*%
G04 Gerber Fmt 4.6, Leading zero omitted, Abs format (unit mm)*
G04 Created by KiCad (PCBNEW 8.0.1) date 2024-04-17 20:24:04*
%MOMM*%
%LPD*%
G01*
G04 APERTURE LIST*
G04 Aperture macros list*
%AMRoundRect*
0 Rectangle with rounded corners*
0 $1 Rounding radius*
0 $2 $3 $4 $5 $6 $7 $8 $9 X,Y pos of 4 corners*
0 Add a 4 corners polygon primitive as box body*
4,1,4,$2,$3,$4,$5,$6,$7,$8,$9,$2,$3,0*
0 Add four circle primitives for the rounded corners*
1,1,$1+$1,$2,$3*
1,1,$1+$1,$4,$5*
1,1,$1+$1,$6,$7*
1,1,$1+$1,$8,$9*
0 Add four rect primitives between the rounded corners*
20,1,$1+$1,$2,$3,$4,$5,0*
20,1,$1+$1,$4,$5,$6,$7,0*
20,1,$1+$1,$6,$7,$8,$9,0*
20,1,$1+$1,$8,$9,$2,$3,0*%
%AMOutline5P*
0 Free polygon, 5 corners , with rotation*
0 The origin of the aperture is its center*
0 number of corners: always 5*
0 $1 to $10 corner X, Y*
0 $11 Rotation angle, in degrees counterclockwise*
0 create outline with 5 corners*
4,1,5,$1,$2,$3,$4,$5,$6,$7,$8,$9,$10,$1,$2,$11*%
%AMOutline6P*
0 Free polygon, 6 corners , with rotation*
0 The origin of the aperture is its center*
0 number of corners: always 6*
0 $1 to $12 corner X, Y*
0 $13 Rotation angle, in degrees counterclockwise*
0 create outline with 6 corners*
4,1,6,$1,$2,$3,$4,$5,$6,$7,$8,$9,$10,$11,$12,$1,$2,$13*%
%AMOutline7P*
0 Free polygon, 7 corners , with rotation*
0 The origin of the aperture is its center*
0 number of corners: always 7*
0 $1 to $14 corner X, Y*
0 $15 Rotation angle, in degrees counterclockwise*
0 create outline with 7 corners*
4,1,7,$1,$2,$3,$4,$5,$6,$7,$8,$9,$10,$11,$12,$13,$14,$1,$2,$15*%
%AMOutline8P*
0 Free polygon, 8 corners , with rotation*
0 The origin of the aperture is its center*
0 number of corners: always 8*
0 $1 to $16 corner X, Y*
0 $17 Rotation angle, in degrees counterclockwise*
0 create outline with 8 corners*
4,1,8,$1,$2,$3,$4,$5,$6,$7,$8,$9,$10,$11,$12,$13,$14,$15,$16,$1,$2,$17*%
G04 Aperture macros list end*
G04 #@! TA.AperFunction,SMDPad,CuDef*
%ADD10RoundRect,0.140000X-0.170000X0.140000X-0.170000X-0.140000X0.170000X-0.140000X0.170000X0.140000X0*%
G04 #@! TD*
G04 #@! TA.AperFunction,SMDPad,CuDef*
%ADD11RoundRect,0.135000X0.185000X-0.135000X0.185000X0.135000X-0.185000X0.135000X-0.185000X-0.135000X0*%
G04 #@! TD*
G04 #@! TA.AperFunction,SMDPad,CuDef*
%ADD12RoundRect,0.200000X0.275000X-0.200000X0.275000X0.200000X-0.275000X0.200000X-0.275000X-0.200000X0*%
G04 #@! TD*
G04 #@! TA.AperFunction,SMDPad,CuDef*
%ADD13RoundRect,0.250000X2.450000X-0.650000X2.450000X0.650000X-2.450000X0.650000X-2.450000X-0.650000X0*%
G04 #@! TD*
G04 #@! TA.AperFunction,SMDPad,CuDef*
%ADD14RoundRect,0.135000X-0.185000X0.135000X-0.185000X-0.135000X0.185000X-0.135000X0.185000X0.135000X0*%
G04 #@! TD*
G04 #@! TA.AperFunction,SMDPad,CuDef*
%ADD15RoundRect,0.225000X0.250000X-0.225000X0.250000X0.225000X-0.250000X0.225000X-0.250000X-0.225000X0*%
G04 #@! TD*
G04 #@! TA.AperFunction,ComponentPad*
%ADD16C,1.000000*%
G04 #@! TD*
G04 #@! TA.AperFunction,SMDPad,CuDef*
%ADD17RoundRect,0.200000X-0.200000X-0.275000X0.200000X-0.275000X0.200000X0.275000X-0.200000X0.275000X0*%
G04 #@! TD*
G04 #@! TA.AperFunction,SMDPad,CuDef*
%ADD18RoundRect,0.225000X0.225000X0.250000X-0.225000X0.250000X-0.225000X-0.250000X0.225000X-0.250000X0*%
G04 #@! TD*
G04 #@! TA.AperFunction,SMDPad,CuDef*
%ADD19RoundRect,0.250000X-2.450000X0.650000X-2.450000X-0.650000X2.450000X-0.650000X2.450000X0.650000X0*%
G04 #@! TD*
G04 #@! TA.AperFunction,ComponentPad*
%ADD20C,1.400000*%
G04 #@! TD*
G04 #@! TA.AperFunction,SMDPad,CuDef*
%ADD21RoundRect,0.140000X0.170000X-0.140000X0.170000X0.140000X-0.170000X0.140000X-0.170000X-0.140000X0*%
G04 #@! TD*
G04 #@! TA.AperFunction,SMDPad,CuDef*
%ADD22RoundRect,0.150000X-0.825000X-0.150000X0.825000X-0.150000X0.825000X0.150000X-0.825000X0.150000X0*%
G04 #@! TD*
G04 #@! TA.AperFunction,ComponentPad*
%ADD23C,1.397000*%
G04 #@! TD*
G04 #@! TA.AperFunction,SMDPad,CuDef*
%ADD24RoundRect,0.225000X-0.225000X-0.250000X0.225000X-0.250000X0.225000X0.250000X-0.225000X0.250000X0*%
G04 #@! TD*
G04 #@! TA.AperFunction,SMDPad,CuDef*
%ADD25RoundRect,0.250000X0.250000X0.475000X-0.250000X0.475000X-0.250000X-0.475000X0.250000X-0.475000X0*%
G04 #@! TD*
G04 #@! TA.AperFunction,SMDPad,CuDef*
%ADD26RoundRect,0.112500X0.112500X-0.187500X0.112500X0.187500X-0.112500X0.187500X-0.112500X-0.187500X0*%
G04 #@! TD*
G04 #@! TA.AperFunction,SMDPad,CuDef*
%ADD27Outline6P,-2.100000X1.435000X-1.485000X2.050000X1.485000X2.050000X2.100000X1.435000X2.100000X-2.050000X-2.100000X-2.050000X0.000000*%
G04 #@! TD*
G04 #@! TA.AperFunction,SMDPad,CuDef*
%ADD28R,3.910000X0.750000*%
G04 #@! TD*
G04 #@! TA.AperFunction,SMDPad,CuDef*
%ADD29R,0.700000X3.220000*%
G04 #@! TD*
G04 #@! TA.AperFunction,SMDPad,CuDef*
%ADD30R,3.710000X4.915000*%
G04 #@! TD*
G04 #@! TA.AperFunction,ViaPad*
%ADD31C,0.800000*%
G04 #@! TD*
G04 #@! TA.AperFunction,Conductor*
%ADD32C,0.200000*%
G04 #@! TD*
G04 #@! TA.AperFunction,Conductor*
%ADD33C,0.250000*%
G04 #@! TD*
G04 APERTURE END LIST*
D10*
X104400000Y-102970000D03*
X104400000Y-103930000D03*
D11*
X110900000Y-114010000D03*
X110900000Y-112990000D03*
D12*
X117000000Y-96425000D03*
X117000000Y-94775000D03*
D13*
X142100000Y-97950000D03*
X142100000Y-92850000D03*
D14*
X117225000Y-118890000D03*
X117225000Y-119910000D03*
D15*
X112600000Y-99800000D03*
X112600000Y-98250000D03*
D16*
X105800000Y-92500000D03*
D15*
X114900000Y-99550000D03*
X114900000Y-98000000D03*
D17*
X102375000Y-115800000D03*
X104025000Y-115800000D03*
D13*
X156000000Y-97950000D03*
X156000000Y-92850000D03*
D15*
X112500000Y-113775000D03*
X112500000Y-112225000D03*
D16*
X163400000Y-98200000D03*
D18*
X104750000Y-110600000D03*
X103200000Y-110600000D03*
D19*
X146500000Y-108350000D03*
X146500000Y-113450000D03*
D14*
X102400000Y-104890000D03*
X102400000Y-105910000D03*
D16*
X111800000Y-90400000D03*
D20*
X103000000Y-90600000D03*
X100460000Y-90600000D03*
D21*
X104400000Y-105880000D03*
X104400000Y-104920000D03*
D17*
X113950000Y-103000000D03*
X115600000Y-103000000D03*
D16*
X105800000Y-90400000D03*
D22*
X106425000Y-101614600D03*
X106425000Y-102884600D03*
X106425000Y-104154600D03*
X106425000Y-105424600D03*
X111375000Y-105424600D03*
X111375000Y-104154600D03*
X111375000Y-102884600D03*
X111375000Y-101614600D03*
D16*
X163400000Y-90600000D03*
D23*
X96340000Y-97140000D03*
X96340000Y-94600000D03*
X93800000Y-97140000D03*
X93800000Y-94600000D03*
X91260000Y-97140000D03*
X91260000Y-94600000D03*
D13*
X149050000Y-97950000D03*
X149050000Y-92850000D03*
D17*
X113950000Y-104600000D03*
X115600000Y-104600000D03*
D11*
X111000000Y-99560000D03*
X111000000Y-98540000D03*
D14*
X102600000Y-119090000D03*
X102600000Y-120110000D03*
D24*
X114050000Y-120200000D03*
X115600000Y-120200000D03*
D13*
X128200000Y-97950000D03*
X128200000Y-92850000D03*
D17*
X114000000Y-118600000D03*
X115650000Y-118600000D03*
D15*
X114225000Y-113775000D03*
X114225000Y-112225000D03*
D24*
X113625000Y-106600000D03*
X115175000Y-106600000D03*
D21*
X104425000Y-120080000D03*
X104425000Y-119120000D03*
D16*
X111800000Y-92500000D03*
D17*
X102575000Y-101600000D03*
X104225000Y-101600000D03*
D25*
X105100000Y-112400000D03*
X103200000Y-112400000D03*
D24*
X114050000Y-101450000D03*
X115600000Y-101450000D03*
D18*
X104200000Y-100000000D03*
X102650000Y-100000000D03*
D14*
X116900000Y-105380000D03*
X116900000Y-106400000D03*
D18*
X105175000Y-96200000D03*
X103625000Y-96200000D03*
D13*
X121250000Y-97950000D03*
X121250000Y-92850000D03*
D15*
X114900000Y-96375000D03*
X114900000Y-94825000D03*
D19*
X139500000Y-108350000D03*
X139500000Y-113450000D03*
D18*
X104000000Y-114200000D03*
X102450000Y-114200000D03*
D13*
X135150000Y-97950000D03*
X135150000Y-92850000D03*
D25*
X105150000Y-98000000D03*
X103250000Y-98000000D03*
D24*
X114050000Y-115500000D03*
X115600000Y-115500000D03*
D26*
X117000000Y-99900000D03*
X117000000Y-97800000D03*
D16*
X163400000Y-94600000D03*
D23*
X96132100Y-121189700D03*
X96132100Y-118649700D03*
X93592100Y-121189700D03*
X93592100Y-118649700D03*
X91052100Y-121189700D03*
X91052100Y-118649700D03*
D27*
X147052100Y-125349700D03*
X154052100Y-125349700D03*
X161052100Y-125349700D03*
D28*
X120755000Y-100715000D03*
D29*
X118750000Y-104250000D03*
D30*
X121405000Y-104297500D03*
D28*
X121205000Y-113665000D03*
D29*
X119200000Y-117200000D03*
D30*
X121855000Y-117247500D03*
D26*
X116425000Y-114050000D03*
X116425000Y-111950000D03*
D20*
X114350000Y-90600000D03*
X116890000Y-90600000D03*
D10*
X104425000Y-117120000D03*
X104425000Y-118080000D03*
D12*
X116500000Y-110625000D03*
X116500000Y-108975000D03*
D15*
X114200000Y-110775000D03*
X114200000Y-109225000D03*
D22*
X106520000Y-115845000D03*
X106520000Y-117115000D03*
X106520000Y-118385000D03*
X106520000Y-119655000D03*
X111470000Y-119655000D03*
X111470000Y-118385000D03*
X111470000Y-117115000D03*
X111470000Y-115845000D03*
D17*
X114000000Y-117000000D03*
X115650000Y-117000000D03*
D31*
X154050000Y-116600000D03*
X154050000Y-115250000D03*
X155400000Y-117950000D03*
X155400000Y-116600000D03*
X155400000Y-115250000D03*
X152700000Y-117950000D03*
X154050000Y-117950000D03*
X152700000Y-115250000D03*
X152700000Y-116600000D03*
X122400000Y-121336360D03*
X120563638Y-125372720D03*
X126072724Y-125372720D03*
X123318181Y-125372720D03*
X129745448Y-116290910D03*
X124236362Y-126381810D03*
X140477500Y-90300000D03*
X128827267Y-125372720D03*
X126990905Y-122345450D03*
X128827267Y-118309090D03*
X118862500Y-91200000D03*
X126072724Y-117300000D03*
X122400000Y-125372720D03*
X125154543Y-116290910D03*
X150302500Y-90300000D03*
X126990905Y-124363630D03*
X128827267Y-117300000D03*
X141460000Y-90300000D03*
X124236362Y-117300000D03*
X143425000Y-90300000D03*
X129670000Y-91200000D03*
X154232500Y-91200000D03*
X126990905Y-115281820D03*
X126990905Y-121336360D03*
X122400000Y-115281820D03*
X122400000Y-124363630D03*
X122792500Y-91200000D03*
X155215000Y-90300000D03*
X125154543Y-126381810D03*
X138512500Y-91200000D03*
X121481819Y-123354540D03*
X123775000Y-91200000D03*
X127705000Y-90300000D03*
X120563638Y-115281820D03*
X122792500Y-90300000D03*
X121810000Y-91200000D03*
X121481819Y-118309090D03*
X128687500Y-91200000D03*
X126072724Y-119318180D03*
X141460000Y-91200000D03*
X121810000Y-90300000D03*
X127909086Y-123354540D03*
X123318181Y-121336360D03*
X127909086Y-116290910D03*
X149320000Y-90300000D03*
X153250000Y-90300000D03*
X129745448Y-122345450D03*
X143425000Y-91200000D03*
X123318181Y-120327270D03*
X125154543Y-118309090D03*
X127909086Y-115281820D03*
X157180000Y-90300000D03*
X125740000Y-90300000D03*
X130652500Y-90300000D03*
X125740000Y-91200000D03*
X152267500Y-90300000D03*
X127909086Y-120327270D03*
X126072724Y-123354540D03*
X126072724Y-115281820D03*
X120563638Y-120327270D03*
X120563638Y-121336360D03*
X151285000Y-90300000D03*
X126722500Y-91200000D03*
X118862500Y-90300000D03*
X121481819Y-115281820D03*
X116900000Y-121400000D03*
X120563638Y-118309090D03*
X123318181Y-117300000D03*
X121481819Y-121336360D03*
X121481819Y-122345450D03*
X126990905Y-117300000D03*
X126072724Y-122345450D03*
X140477500Y-91200000D03*
X125154543Y-125372720D03*
X120563638Y-116290910D03*
X123318181Y-119318180D03*
X139495000Y-90300000D03*
X124236362Y-118309090D03*
X124236362Y-115281820D03*
X126990905Y-123354540D03*
X126072724Y-116290910D03*
X129670000Y-90300000D03*
X128827267Y-119318180D03*
X126072724Y-120327270D03*
X120563638Y-126381810D03*
X125154543Y-124363630D03*
X148337500Y-91200000D03*
X157180000Y-91200000D03*
X124757500Y-90300000D03*
X142442500Y-91200000D03*
X137530000Y-90300000D03*
X121481819Y-125372720D03*
X126072724Y-126381810D03*
X122400000Y-116290910D03*
X126990905Y-116290910D03*
X129745448Y-115281820D03*
X121481819Y-126381810D03*
X123318181Y-118309090D03*
X133600000Y-91200000D03*
X124236362Y-120327270D03*
X135565000Y-90300000D03*
X126072724Y-121336360D03*
X122400000Y-123354540D03*
X155215000Y-91200000D03*
X127909086Y-125372720D03*
X125154543Y-117300000D03*
X147355000Y-90300000D03*
X126072724Y-118309090D03*
X123318181Y-126381810D03*
X124236362Y-123354540D03*
X127909086Y-124363630D03*
X116800000Y-115400000D03*
X126990905Y-120327270D03*
X129745448Y-126381810D03*
X156197500Y-91200000D03*
X126072724Y-124363630D03*
X144407500Y-91200000D03*
X120827500Y-90300000D03*
X153250000Y-91200000D03*
X124236362Y-124363630D03*
X115300000Y-110800000D03*
X121481819Y-119318180D03*
X120827500Y-91200000D03*
X123318181Y-116290910D03*
X120563638Y-124363630D03*
X144407500Y-90300000D03*
X148337500Y-90300000D03*
X127909086Y-122345450D03*
X119845000Y-91200000D03*
X124757500Y-91200000D03*
X122400000Y-118309090D03*
X121481819Y-120327270D03*
X136547500Y-90300000D03*
X126990905Y-125372720D03*
X120563638Y-117300000D03*
X137530000Y-91200000D03*
X128827267Y-124363630D03*
X158162500Y-90300000D03*
X125154543Y-121336360D03*
X146372500Y-90300000D03*
X154232500Y-90300000D03*
X139495000Y-91200000D03*
X128827267Y-126381810D03*
X125154543Y-122345450D03*
X125154543Y-115281820D03*
X128827267Y-123354540D03*
X129745448Y-124363630D03*
X142442500Y-90300000D03*
X123318181Y-122345450D03*
X136547500Y-91200000D03*
X125154543Y-120327270D03*
X122400000Y-120327270D03*
X122400000Y-119318180D03*
X147355000Y-91200000D03*
X129745448Y-121336360D03*
X129745448Y-120327270D03*
X125154543Y-123354540D03*
X120563638Y-122345450D03*
X128827267Y-122345450D03*
X122400000Y-126381810D03*
X127909086Y-117300000D03*
X128827267Y-120327270D03*
X128687500Y-90300000D03*
X131635000Y-90300000D03*
X115300000Y-112000000D03*
X152267500Y-91200000D03*
X120563638Y-119318180D03*
X122400000Y-117300000D03*
X134582500Y-90300000D03*
X138512500Y-90300000D03*
X150302500Y-91200000D03*
X123318181Y-115281820D03*
X129745448Y-123354540D03*
X121481819Y-124363630D03*
X128827267Y-115281820D03*
X133600000Y-90300000D03*
X127909086Y-121336360D03*
X121481819Y-116290910D03*
X122400000Y-122345450D03*
X135565000Y-91200000D03*
X128827267Y-116290910D03*
X130652500Y-91200000D03*
X126990905Y-119318180D03*
X126990905Y-126381810D03*
X121481819Y-117300000D03*
X124236362Y-116290910D03*
X126990905Y-118309090D03*
X156197500Y-90300000D03*
X124236362Y-125372720D03*
X128827267Y-121336360D03*
X132617500Y-91200000D03*
X119845000Y-90300000D03*
X123775000Y-90300000D03*
X127909086Y-118309090D03*
X158162500Y-91200000D03*
X146372500Y-91200000D03*
X124236362Y-121336360D03*
X145390000Y-90300000D03*
X125154543Y-119318180D03*
X151285000Y-91200000D03*
X124236362Y-122345450D03*
X126722500Y-90300000D03*
X123318181Y-123354540D03*
X127909086Y-126381810D03*
X115700000Y-121400000D03*
X129745448Y-125372720D03*
X127909086Y-119318180D03*
X131635000Y-91200000D03*
X129745448Y-117300000D03*
X134582500Y-91200000D03*
X129745448Y-119318180D03*
X129745448Y-118309090D03*
X127705000Y-91200000D03*
X120563638Y-123354540D03*
X124236362Y-119318180D03*
X149320000Y-91200000D03*
X123318181Y-124363630D03*
X132617500Y-90300000D03*
X145390000Y-91200000D03*
X112500000Y-110900000D03*
X114200000Y-121800000D03*
X112500000Y-109600000D03*
X110900000Y-109600000D03*
X102100000Y-110300000D03*
X102100000Y-111500000D03*
X102200000Y-96000000D03*
X102200000Y-97200000D03*
X103600000Y-104800000D03*
X103600000Y-119000000D03*
X113200000Y-94800000D03*
X113200000Y-96600000D03*
X112000000Y-96600000D03*
X113900000Y-107800000D03*
X107200000Y-95800000D03*
X102600000Y-118100000D03*
X102600000Y-117100000D03*
X103500000Y-117100000D03*
X106700000Y-112700000D03*
X106700000Y-111500000D03*
X106700000Y-110300000D03*
X107200000Y-98600000D03*
X107200000Y-97200000D03*
X102400000Y-103000000D03*
X102400000Y-104000000D03*
X103400000Y-103000000D03*
X112900000Y-100800000D03*
X111000000Y-100500000D03*
X112900000Y-101700000D03*
X111000000Y-114900000D03*
X112900000Y-114900000D03*
X112900000Y-115800000D03*
X121000000Y-103300000D03*
X159600000Y-104900000D03*
X123960000Y-102300000D03*
X123940000Y-105200000D03*
X121020000Y-102300000D03*
X124920000Y-106200000D03*
X124920000Y-108200000D03*
X162300000Y-106700000D03*
X116900000Y-107400000D03*
X122960000Y-104300000D03*
X160500000Y-107600000D03*
X159600000Y-105800000D03*
X161400000Y-105800000D03*
X162300000Y-104900000D03*
X122960000Y-105200000D03*
X121000000Y-107200000D03*
X123940000Y-106200000D03*
X160500000Y-105800000D03*
X121000000Y-108200000D03*
X121980000Y-108200000D03*
X123940000Y-104300000D03*
X121980000Y-105200000D03*
X161400000Y-104900000D03*
X120040000Y-102300000D03*
X121000000Y-109200000D03*
X162300000Y-105800000D03*
X123940000Y-103300000D03*
X122960000Y-108200000D03*
X116000000Y-96900000D03*
X122980000Y-102300000D03*
X121000000Y-105200000D03*
X121980000Y-106200000D03*
X121980000Y-104300000D03*
X159600000Y-107600000D03*
X123940000Y-108200000D03*
X121000000Y-106200000D03*
X116000000Y-97900000D03*
X121980000Y-109200000D03*
X120020000Y-109200000D03*
X121000000Y-104300000D03*
X124920000Y-104300000D03*
X160500000Y-106700000D03*
X122000000Y-102300000D03*
X123940000Y-109200000D03*
X122960000Y-107200000D03*
X120020000Y-106200000D03*
X120020000Y-107200000D03*
X116900000Y-101400000D03*
X120020000Y-104300000D03*
X161400000Y-107600000D03*
X160500000Y-104900000D03*
X124920000Y-103300000D03*
X162300000Y-107600000D03*
X120020000Y-103300000D03*
X159600000Y-106700000D03*
X124940000Y-102300000D03*
X115900000Y-107400000D03*
X120020000Y-105200000D03*
X120020000Y-108200000D03*
X121980000Y-103300000D03*
X124920000Y-107200000D03*
X122960000Y-106200000D03*
X161400000Y-106700000D03*
X121980000Y-107200000D03*
X122960000Y-103300000D03*
X124920000Y-109200000D03*
X124920000Y-105200000D03*
X123940000Y-107200000D03*
X122960000Y-109200000D03*
X118100000Y-116300000D03*
X117000000Y-103200000D03*
D32*
X160300000Y-97800000D02*
X160150000Y-97950000D01*
X160300000Y-97700000D02*
X160300000Y-97800000D01*
X163400000Y-94600000D02*
X160300000Y-97700000D01*
X160150000Y-97950000D02*
X156000000Y-97950000D01*
D33*
X145913000Y-126000000D02*
X145913000Y-125242900D01*
D32*
X158762500Y-90600000D02*
X158162500Y-91200000D01*
D33*
X145155900Y-126000000D02*
X145913000Y-126000000D01*
X146242900Y-124913000D02*
X147000000Y-124913000D01*
X145913000Y-125242900D02*
X146242900Y-124913000D01*
D32*
X163400000Y-90600000D02*
X158762500Y-90600000D01*
X116800000Y-115400000D02*
X115600000Y-115400000D01*
D33*
X105800000Y-90400000D02*
X108900000Y-93500000D01*
X108900000Y-93500000D02*
X108900000Y-107600000D01*
X108900000Y-107600000D02*
X110900000Y-109600000D01*
X113459600Y-102884600D02*
X113525000Y-102950000D01*
X111375000Y-102884600D02*
X113459600Y-102884600D01*
X93592100Y-118649700D02*
X93592100Y-114662900D01*
X104400000Y-105880000D02*
X105969600Y-105880000D01*
X93592100Y-114662900D02*
X102345000Y-105910000D01*
X104370000Y-105910000D02*
X104400000Y-105880000D01*
X102345000Y-105910000D02*
X104370000Y-105910000D01*
X105969600Y-105880000D02*
X106425000Y-105424600D01*
X104200000Y-101425000D02*
X104225000Y-101450000D01*
X104200000Y-100000000D02*
X104200000Y-101425000D01*
X106260400Y-101450000D02*
X106425000Y-101614600D01*
X104225000Y-101450000D02*
X106260400Y-101450000D01*
X111375000Y-104154600D02*
X113229600Y-104154600D01*
X113229600Y-104154600D02*
X113525000Y-104450000D01*
X113885000Y-117115000D02*
X114000000Y-117000000D01*
X111470000Y-117115000D02*
X113885000Y-117115000D01*
X108100000Y-94800000D02*
X108100000Y-112000000D01*
X105800000Y-92500000D02*
X108100000Y-94800000D01*
X108100000Y-112000000D02*
X111000000Y-114900000D01*
X113785000Y-118385000D02*
X114000000Y-118600000D01*
X111470000Y-118385000D02*
X113785000Y-118385000D01*
X102100000Y-120100000D02*
X105340000Y-120100000D01*
X105340000Y-120100000D02*
X105895000Y-119545000D01*
X96132100Y-121189700D02*
X101010300Y-121189700D01*
X101010300Y-121189700D02*
X102100000Y-120100000D01*
X163400000Y-98200000D02*
X163400000Y-103800000D01*
X115650000Y-101400000D02*
X115600000Y-101450000D01*
X116900000Y-101400000D02*
X115650000Y-101400000D01*
X163400000Y-103800000D02*
X162300000Y-104900000D01*
X98110000Y-101450000D02*
X102575000Y-101450000D01*
X92568600Y-111456400D02*
X102575000Y-101450000D01*
X93800000Y-97140000D02*
X98110000Y-101450000D01*
X92568600Y-120166200D02*
X92568600Y-111456400D01*
X93592100Y-121189700D02*
X92568600Y-120166200D01*
X91260000Y-97140000D02*
X90028600Y-98371400D01*
X92075600Y-122213200D02*
X91052100Y-121189700D01*
X102375000Y-115800000D02*
X102065000Y-115800000D01*
X98191800Y-119673200D02*
X96201152Y-119673200D01*
X96201152Y-119673200D02*
X95108600Y-120765752D01*
X90028600Y-98371400D02*
X90028600Y-120166200D01*
X90028600Y-120166200D02*
X91052100Y-121189700D01*
X94085100Y-122213200D02*
X92075600Y-122213200D01*
X95108600Y-121189700D02*
X94085100Y-122213200D01*
X95108600Y-120765752D02*
X95108600Y-121189700D01*
X102065000Y-115800000D02*
X98191800Y-119673200D01*
G04 #@! TA.AperFunction,Conductor*
G36*
X107000058Y-117801061D02*
G01*
X107046263Y-117807144D01*
X107107296Y-117815179D01*
X107138561Y-117823556D01*
X107230915Y-117861810D01*
X107258949Y-117877996D01*
X107338258Y-117938853D01*
X107361146Y-117961741D01*
X107422003Y-118041050D01*
X107438189Y-118069085D01*
X107476442Y-118161437D01*
X107484820Y-118192703D01*
X107498939Y-118299941D01*
X107500000Y-118316127D01*
X107500000Y-118483872D01*
X107498939Y-118500058D01*
X107484820Y-118607296D01*
X107476442Y-118638562D01*
X107438189Y-118730914D01*
X107422003Y-118758949D01*
X107361146Y-118838258D01*
X107338258Y-118861146D01*
X107258949Y-118922003D01*
X107230914Y-118938189D01*
X107138562Y-118976442D01*
X107107296Y-118984820D01*
X107000059Y-118998939D01*
X106983873Y-119000000D01*
X105100000Y-119000000D01*
X104949192Y-119226211D01*
X104949190Y-119226214D01*
X104856455Y-119365317D01*
X104843857Y-119381221D01*
X104751653Y-119479837D01*
X104719588Y-119504477D01*
X104670353Y-119530827D01*
X104611842Y-119545500D01*
X104223956Y-119545500D01*
X104131572Y-119560132D01*
X104079852Y-119586485D01*
X104023558Y-119600000D01*
X103608126Y-119600000D01*
X103591941Y-119598939D01*
X103578917Y-119597224D01*
X103486775Y-119585093D01*
X103455508Y-119576715D01*
X103365081Y-119539259D01*
X103337048Y-119523074D01*
X103259398Y-119463491D01*
X103236513Y-119440607D01*
X103193258Y-119384236D01*
X103168065Y-119319069D01*
X103169161Y-119289357D01*
X103174500Y-119255653D01*
X103174499Y-118924348D01*
X103160054Y-118833138D01*
X103127434Y-118769117D01*
X103114538Y-118700447D01*
X103114978Y-118696652D01*
X103115177Y-118695139D01*
X103123556Y-118663860D01*
X103161812Y-118571501D01*
X103177992Y-118543474D01*
X103243852Y-118457644D01*
X103254533Y-118445466D01*
X103745466Y-117954533D01*
X103757644Y-117943852D01*
X103843474Y-117877992D01*
X103871501Y-117861812D01*
X103963860Y-117823556D01*
X103995121Y-117815179D01*
X104070661Y-117805234D01*
X104102362Y-117801061D01*
X104118547Y-117800000D01*
X106983873Y-117800000D01*
X107000058Y-117801061D01*
G37*
G04 #@! TD.AperFunction*
G04 #@! TA.AperFunction,Conductor*
G36*
X112355219Y-119201336D02*
G01*
X112475243Y-119219108D01*
X112510001Y-119229632D01*
X112591413Y-119268059D01*
X112619720Y-119281420D01*
X112635567Y-119290378D01*
X112723185Y-119348790D01*
X112825472Y-119416981D01*
X112972020Y-119514681D01*
X112972026Y-119514684D01*
X113100000Y-119600000D01*
X114283873Y-119600000D01*
X114300058Y-119601061D01*
X114346263Y-119607144D01*
X114407296Y-119615179D01*
X114438561Y-119623556D01*
X114530915Y-119661810D01*
X114558949Y-119677996D01*
X114638258Y-119738853D01*
X114661146Y-119761741D01*
X114722003Y-119841050D01*
X114738189Y-119869085D01*
X114776442Y-119961437D01*
X114784820Y-119992703D01*
X114798939Y-120099941D01*
X114800000Y-120116127D01*
X114800000Y-121883872D01*
X114798939Y-121900058D01*
X114784820Y-122007296D01*
X114776442Y-122038562D01*
X114738189Y-122130914D01*
X114722003Y-122158949D01*
X114661146Y-122238258D01*
X114638258Y-122261146D01*
X114558949Y-122322003D01*
X114530914Y-122338189D01*
X114438562Y-122376442D01*
X114407296Y-122384820D01*
X114300059Y-122398939D01*
X114283873Y-122400000D01*
X110916127Y-122400000D01*
X110899941Y-122398939D01*
X110792703Y-122384820D01*
X110761437Y-122376442D01*
X110669085Y-122338189D01*
X110641050Y-122322003D01*
X110561741Y-122261146D01*
X110538853Y-122238258D01*
X110477996Y-122158949D01*
X110461810Y-122130914D01*
X110423557Y-122038562D01*
X110415179Y-122007295D01*
X110401061Y-121900057D01*
X110400000Y-121883872D01*
X110400000Y-119716127D01*
X110401061Y-119699942D01*
X110414079Y-119601061D01*
X110415179Y-119592701D01*
X110423556Y-119561440D01*
X110461812Y-119469081D01*
X110477996Y-119441050D01*
X110538853Y-119361741D01*
X110561741Y-119338853D01*
X110641050Y-119277996D01*
X110669081Y-119261812D01*
X110761440Y-119223556D01*
X110792701Y-119215179D01*
X110868241Y-119205234D01*
X110899942Y-119201061D01*
X110916127Y-119200000D01*
X112337058Y-119200000D01*
X112355219Y-119201336D01*
G37*
G04 #@! TD.AperFunction*
G04 #@! TA.AperFunction,Conductor*
G36*
X106607677Y-109819685D02*
G01*
X106628319Y-109836319D01*
X107063681Y-110271681D01*
X107097166Y-110333004D01*
X107100000Y-110359362D01*
X107100000Y-112840638D01*
X107080315Y-112907677D01*
X107063681Y-112928319D01*
X106628319Y-113363681D01*
X106566996Y-113397166D01*
X106540638Y-113400000D01*
X105477493Y-113400000D01*
X105422039Y-113386909D01*
X105043331Y-113197555D01*
X105034802Y-113193595D01*
X105016305Y-113185007D01*
X105003162Y-113179363D01*
X104975472Y-113168409D01*
X104885377Y-113135753D01*
X104885338Y-113135740D01*
X104828375Y-113118754D01*
X104828362Y-113118751D01*
X104828359Y-113118750D01*
X104816296Y-113115901D01*
X104800449Y-113112160D01*
X104741844Y-113101865D01*
X104646606Y-113090776D01*
X104616964Y-113088194D01*
X104602619Y-113087361D01*
X104573794Y-113086526D01*
X104572881Y-113086500D01*
X104572880Y-113086500D01*
X104345862Y-113086500D01*
X104278823Y-113066815D01*
X104258181Y-113050181D01*
X104243217Y-113035217D01*
X104209732Y-112973894D01*
X104207541Y-112934929D01*
X104208500Y-112925545D01*
X104208499Y-111874456D01*
X104197887Y-111770574D01*
X104142116Y-111602264D01*
X104142116Y-111602263D01*
X104118461Y-111563912D01*
X104100000Y-111498816D01*
X104100000Y-111164913D01*
X104106293Y-111125912D01*
X104148236Y-110999336D01*
X104158500Y-110898872D01*
X104158500Y-110301128D01*
X104158500Y-110300861D01*
X104178185Y-110233822D01*
X104194814Y-110213185D01*
X104571681Y-109836319D01*
X104633004Y-109802834D01*
X104659362Y-109800000D01*
X106540638Y-109800000D01*
X106607677Y-109819685D01*
G37*
G04 #@! TD.AperFunction*
G04 #@! TA.AperFunction,Conductor*
G36*
X117100058Y-95801061D02*
G01*
X117146263Y-95807144D01*
X117207296Y-95815179D01*
X117238561Y-95823556D01*
X117330915Y-95861810D01*
X117358949Y-95877996D01*
X117438258Y-95938853D01*
X117461146Y-95961741D01*
X117522003Y-96041050D01*
X117538189Y-96069085D01*
X117576442Y-96161437D01*
X117584820Y-96192703D01*
X117598939Y-96299941D01*
X117600000Y-96316127D01*
X117600000Y-98083872D01*
X117598939Y-98100058D01*
X117584820Y-98207296D01*
X117576442Y-98238562D01*
X117538189Y-98330914D01*
X117522003Y-98358949D01*
X117461146Y-98438258D01*
X117438258Y-98461146D01*
X117358949Y-98522003D01*
X117330914Y-98538189D01*
X117238562Y-98576442D01*
X117207296Y-98584820D01*
X117100059Y-98598939D01*
X117083873Y-98600000D01*
X114916127Y-98600000D01*
X114899941Y-98598939D01*
X114792703Y-98584820D01*
X114761437Y-98576442D01*
X114669085Y-98538189D01*
X114641050Y-98522003D01*
X114561741Y-98461146D01*
X114538853Y-98438258D01*
X114477996Y-98358949D01*
X114461810Y-98330914D01*
X114423557Y-98238562D01*
X114415179Y-98207295D01*
X114401061Y-98100057D01*
X114400000Y-98083872D01*
X114400000Y-96316127D01*
X114401061Y-96299942D01*
X114415179Y-96192704D01*
X114423556Y-96161440D01*
X114461812Y-96069081D01*
X114477996Y-96041050D01*
X114538853Y-95961741D01*
X114561741Y-95938853D01*
X114641050Y-95877996D01*
X114669081Y-95861812D01*
X114761440Y-95823556D01*
X114792701Y-95815179D01*
X114868241Y-95805234D01*
X114899942Y-95801061D01*
X114916127Y-95800000D01*
X117083873Y-95800000D01*
X117100058Y-95801061D01*
G37*
G04 #@! TD.AperFunction*
G04 #@! TA.AperFunction,Conductor*
G36*
X117100058Y-94001061D02*
G01*
X117146263Y-94007144D01*
X117207296Y-94015179D01*
X117238561Y-94023556D01*
X117330915Y-94061810D01*
X117358949Y-94077996D01*
X117438258Y-94138853D01*
X117461146Y-94161741D01*
X117522003Y-94241050D01*
X117538189Y-94269085D01*
X117576442Y-94361437D01*
X117584820Y-94392703D01*
X117598939Y-94499941D01*
X117600000Y-94516127D01*
X117600000Y-95083872D01*
X117598939Y-95100058D01*
X117584820Y-95207296D01*
X117576442Y-95238562D01*
X117538189Y-95330914D01*
X117522003Y-95358949D01*
X117461146Y-95438258D01*
X117438258Y-95461146D01*
X117358951Y-95522001D01*
X117330917Y-95538187D01*
X117303856Y-95549396D01*
X117240218Y-95557774D01*
X117133939Y-95543782D01*
X117117040Y-95542117D01*
X117100850Y-95541056D01*
X117098850Y-95540990D01*
X117083873Y-95540500D01*
X114916127Y-95540500D01*
X114901981Y-95540963D01*
X114899149Y-95541056D01*
X114882962Y-95542117D01*
X114866058Y-95543782D01*
X114758838Y-95557898D01*
X114758822Y-95557900D01*
X114725530Y-95564523D01*
X114694287Y-95572895D01*
X114694256Y-95572904D01*
X114668019Y-95581811D01*
X114662134Y-95583809D01*
X114662132Y-95583810D01*
X114644004Y-95591318D01*
X114612744Y-95599693D01*
X114610412Y-95600000D01*
X114400000Y-95600000D01*
X114251213Y-95748786D01*
X114251209Y-95748790D01*
X113948790Y-96051209D01*
X113948786Y-96051213D01*
X113800000Y-96200000D01*
X113800000Y-96410412D01*
X113800000Y-98483872D01*
X113798939Y-98500058D01*
X113784820Y-98607296D01*
X113776442Y-98638562D01*
X113738189Y-98730914D01*
X113722003Y-98758949D01*
X113661146Y-98838258D01*
X113638259Y-98861146D01*
X113568240Y-98914875D01*
X113503071Y-98940070D01*
X113492752Y-98940500D01*
X110716127Y-98940500D01*
X110711583Y-98940648D01*
X110643937Y-98923168D01*
X110632041Y-98915090D01*
X110561741Y-98861146D01*
X110538853Y-98838258D01*
X110477996Y-98758949D01*
X110461810Y-98730914D01*
X110423557Y-98638562D01*
X110415179Y-98607295D01*
X110401061Y-98500057D01*
X110400000Y-98483872D01*
X110400000Y-94516127D01*
X110401061Y-94499942D01*
X110415179Y-94392704D01*
X110423556Y-94361440D01*
X110461812Y-94269081D01*
X110477996Y-94241050D01*
X110538853Y-94161741D01*
X110561741Y-94138853D01*
X110641050Y-94077996D01*
X110669081Y-94061812D01*
X110761440Y-94023556D01*
X110792701Y-94015179D01*
X110868241Y-94005234D01*
X110899942Y-94001061D01*
X110916127Y-94000000D01*
X117083873Y-94000000D01*
X117100058Y-94001061D01*
G37*
G04 #@! TD.AperFunction*
G04 #@! TA.AperFunction,Conductor*
G36*
X149200058Y-112501061D02*
G01*
X149246263Y-112507144D01*
X149307296Y-112515179D01*
X149338561Y-112523556D01*
X149430915Y-112561810D01*
X149458949Y-112577996D01*
X149538258Y-112638853D01*
X149561146Y-112661741D01*
X149622003Y-112741050D01*
X149638189Y-112769085D01*
X149676442Y-112861437D01*
X149684820Y-112892703D01*
X149698939Y-112999941D01*
X149700000Y-113016127D01*
X149700000Y-127083872D01*
X149698939Y-127100058D01*
X149684820Y-127207296D01*
X149676442Y-127238562D01*
X149638189Y-127330914D01*
X149622003Y-127358949D01*
X149561146Y-127438258D01*
X149538258Y-127461146D01*
X149458949Y-127522003D01*
X149430914Y-127538189D01*
X149338562Y-127576442D01*
X149307296Y-127584820D01*
X149200059Y-127598939D01*
X149183873Y-127600000D01*
X115516127Y-127600000D01*
X115499941Y-127598939D01*
X115392703Y-127584820D01*
X115361437Y-127576442D01*
X115269085Y-127538189D01*
X115241050Y-127522003D01*
X115161741Y-127461146D01*
X115138853Y-127438258D01*
X115077996Y-127358949D01*
X115061810Y-127330914D01*
X115023557Y-127238562D01*
X115015179Y-127207295D01*
X115001061Y-127100057D01*
X115000000Y-127083872D01*
X115000000Y-122675673D01*
X115019685Y-122608634D01*
X115030773Y-122593913D01*
X115068528Y-122550862D01*
X115068530Y-122550860D01*
X115129387Y-122471551D01*
X115166707Y-122415699D01*
X115182893Y-122387664D01*
X115212602Y-122327420D01*
X115250855Y-122235068D01*
X115272444Y-122171470D01*
X115280822Y-122140204D01*
X115293926Y-122074325D01*
X115308045Y-121967087D01*
X115311339Y-121933646D01*
X115312400Y-121917460D01*
X115313500Y-121883872D01*
X115313500Y-120116127D01*
X115312400Y-120082539D01*
X115311339Y-120066353D01*
X115308045Y-120032912D01*
X115293926Y-119925674D01*
X115280822Y-119859795D01*
X115272444Y-119828529D01*
X115259743Y-119791116D01*
X115256834Y-119721310D01*
X115292127Y-119661010D01*
X115329707Y-119636700D01*
X115361440Y-119623556D01*
X115392701Y-119615179D01*
X115468241Y-119605234D01*
X115499942Y-119601061D01*
X115516127Y-119600000D01*
X116714209Y-119600000D01*
X116777329Y-119617267D01*
X116782404Y-119620269D01*
X116793718Y-119623556D01*
X116938526Y-119665627D01*
X116938528Y-119665627D01*
X116938534Y-119665629D01*
X116975011Y-119668500D01*
X117474988Y-119668499D01*
X117511466Y-119665629D01*
X117667596Y-119620269D01*
X117672670Y-119617267D01*
X117735791Y-119600000D01*
X119259287Y-119600000D01*
X119259292Y-119600000D01*
X119400000Y-119600000D01*
X119587010Y-119487794D01*
X119653364Y-119447982D01*
X119653366Y-119447980D01*
X119900000Y-119300000D01*
X119900000Y-119183188D01*
X119913261Y-119173261D01*
X120000889Y-119056204D01*
X120051989Y-118919201D01*
X120057213Y-118870612D01*
X120058499Y-118858654D01*
X120058500Y-118858637D01*
X120058500Y-115541362D01*
X120058499Y-115541345D01*
X120055008Y-115508882D01*
X120051989Y-115480799D01*
X120000889Y-115343796D01*
X119930148Y-115249298D01*
X119905732Y-115183834D01*
X119906477Y-115158803D01*
X119915179Y-115092704D01*
X119923556Y-115061440D01*
X119961812Y-114969081D01*
X119977996Y-114941050D01*
X120038853Y-114861741D01*
X120061741Y-114838853D01*
X120141050Y-114777996D01*
X120169081Y-114761812D01*
X120261440Y-114723556D01*
X120292701Y-114715179D01*
X120368241Y-114705234D01*
X120399942Y-114701061D01*
X120416127Y-114700000D01*
X131321798Y-114700000D01*
X131321803Y-114700000D01*
X131500000Y-114700000D01*
X132000000Y-114300000D01*
X132000000Y-113016127D01*
X132001061Y-112999942D01*
X132015179Y-112892704D01*
X132023556Y-112861440D01*
X132061812Y-112769081D01*
X132077996Y-112741050D01*
X132138853Y-112661741D01*
X132161741Y-112638853D01*
X132241050Y-112577996D01*
X132269081Y-112561812D01*
X132361440Y-112523556D01*
X132392701Y-112515179D01*
X132468241Y-112505234D01*
X132499942Y-112501061D01*
X132516127Y-112500000D01*
X149183873Y-112500000D01*
X149200058Y-112501061D01*
G37*
G04 #@! TD.AperFunction*
G04 #@! TA.AperFunction,Conductor*
G36*
X103845837Y-102409440D02*
G01*
X103862116Y-102416183D01*
X103862124Y-102416185D01*
X103862132Y-102416189D01*
X103894271Y-102427099D01*
X103925537Y-102435477D01*
X103958829Y-102442100D01*
X104066067Y-102456219D01*
X104082967Y-102457883D01*
X104099153Y-102458944D01*
X104116127Y-102459500D01*
X104116142Y-102459500D01*
X107083885Y-102459500D01*
X107093587Y-102459182D01*
X107161235Y-102476659D01*
X107173136Y-102484740D01*
X107240602Y-102536509D01*
X107263491Y-102559398D01*
X107323074Y-102637048D01*
X107339259Y-102665081D01*
X107376715Y-102755508D01*
X107385093Y-102786775D01*
X107397869Y-102883814D01*
X107397869Y-102916186D01*
X107385093Y-103013224D01*
X107376715Y-103044491D01*
X107339259Y-103134918D01*
X107323074Y-103162951D01*
X107263491Y-103240601D01*
X107240602Y-103263490D01*
X107173136Y-103315259D01*
X107107967Y-103340454D01*
X107093597Y-103340818D01*
X107085466Y-103340552D01*
X107083873Y-103340500D01*
X104218547Y-103340500D01*
X104204401Y-103340963D01*
X104201569Y-103341056D01*
X104185382Y-103342117D01*
X104168478Y-103343782D01*
X104061258Y-103357898D01*
X104061242Y-103357900D01*
X104027950Y-103364523D01*
X103996707Y-103372895D01*
X103996676Y-103372904D01*
X103964548Y-103383811D01*
X103964531Y-103383817D01*
X103948255Y-103390560D01*
X103900801Y-103400000D01*
X103600000Y-103400000D01*
X103464536Y-103501597D01*
X103464532Y-103501600D01*
X103003199Y-103847599D01*
X103003192Y-103847605D01*
X102800000Y-104000000D01*
X102800000Y-104253998D01*
X102800000Y-104990244D01*
X102798473Y-105009642D01*
X102783495Y-105104207D01*
X102771507Y-105141104D01*
X102732522Y-105217616D01*
X102709718Y-105249002D01*
X102649002Y-105309718D01*
X102617617Y-105332521D01*
X102541108Y-105371505D01*
X102504218Y-105383493D01*
X102501195Y-105383972D01*
X102481789Y-105385500D01*
X102318212Y-105385500D01*
X102298819Y-105383974D01*
X102295794Y-105383495D01*
X102258891Y-105371505D01*
X102182382Y-105332521D01*
X102150997Y-105309718D01*
X102090281Y-105249002D01*
X102067477Y-105217616D01*
X102028492Y-105141104D01*
X102016504Y-105104206D01*
X102001527Y-105009641D01*
X102000000Y-104990244D01*
X102000000Y-102916127D01*
X102001061Y-102899942D01*
X102015179Y-102792704D01*
X102023556Y-102761440D01*
X102061812Y-102669081D01*
X102077996Y-102641050D01*
X102138853Y-102561741D01*
X102161741Y-102538853D01*
X102241050Y-102477996D01*
X102269081Y-102461812D01*
X102361440Y-102423556D01*
X102392701Y-102415179D01*
X102468241Y-102405234D01*
X102499942Y-102401061D01*
X102516127Y-102400000D01*
X103798383Y-102400000D01*
X103845837Y-102409440D01*
G37*
G04 #@! TD.AperFunction*
G04 #@! TA.AperFunction,Conductor*
G36*
X103607677Y-109819685D02*
G01*
X103628319Y-109836319D01*
X103685950Y-109893950D01*
X103719435Y-109955273D01*
X103714451Y-110024965D01*
X103711063Y-110033144D01*
X103685487Y-110089144D01*
X103665800Y-110156189D01*
X103645000Y-110300862D01*
X103645000Y-110865486D01*
X103638706Y-110904489D01*
X103618860Y-110964378D01*
X103599348Y-111044121D01*
X103593056Y-111083116D01*
X103586500Y-111164902D01*
X103586500Y-111498820D01*
X103605981Y-111638918D01*
X103624443Y-111704014D01*
X103664334Y-111794675D01*
X103668538Y-111805604D01*
X103688489Y-111865814D01*
X103694141Y-111892213D01*
X103694357Y-111894327D01*
X103694999Y-111906931D01*
X103694999Y-112955803D01*
X103694967Y-112958619D01*
X103694850Y-112963735D01*
X103694884Y-112965764D01*
X103694958Y-112968433D01*
X103695221Y-112970360D01*
X103697041Y-113002714D01*
X103697041Y-113002719D01*
X103701302Y-113034045D01*
X103690831Y-113103126D01*
X103644675Y-113155580D01*
X103625885Y-113165317D01*
X103572577Y-113187397D01*
X103512353Y-113217096D01*
X103512323Y-113217112D01*
X103484307Y-113233287D01*
X103484296Y-113233294D01*
X103428451Y-113270609D01*
X103428448Y-113270610D01*
X103349145Y-113331463D01*
X103298629Y-113375765D01*
X103275759Y-113398635D01*
X103231472Y-113449135D01*
X103213106Y-113473069D01*
X103202422Y-113485252D01*
X103195715Y-113491959D01*
X103195714Y-113491961D01*
X103187165Y-113505821D01*
X103180005Y-113516205D01*
X103170632Y-113528419D01*
X103170601Y-113528463D01*
X103133298Y-113584289D01*
X103133287Y-113584307D01*
X103117112Y-113612323D01*
X103117096Y-113612353D01*
X103087400Y-113672571D01*
X103049146Y-113764925D01*
X103049142Y-113764936D01*
X103027552Y-113828537D01*
X103019177Y-113859793D01*
X103019173Y-113859809D01*
X103006071Y-113925687D01*
X102991955Y-114032904D01*
X102988661Y-114066346D01*
X102987600Y-114082534D01*
X102986500Y-114116140D01*
X102986500Y-114742605D01*
X102966815Y-114809644D01*
X102914011Y-114855399D01*
X102844853Y-114865343D01*
X102825611Y-114860991D01*
X102781561Y-114847265D01*
X102703649Y-114822987D01*
X102632265Y-114816500D01*
X102632262Y-114816500D01*
X102117727Y-114816500D01*
X102046354Y-114822985D01*
X102046344Y-114822988D01*
X101882089Y-114874171D01*
X101882085Y-114874173D01*
X101840627Y-114899235D01*
X101773072Y-114917070D01*
X101706599Y-114895551D01*
X101688798Y-114880798D01*
X101536319Y-114728319D01*
X101502834Y-114666996D01*
X101500000Y-114640638D01*
X101500000Y-110359362D01*
X101519685Y-110292323D01*
X101536319Y-110271681D01*
X101971681Y-109836319D01*
X102033004Y-109802834D01*
X102059362Y-109800000D01*
X103540638Y-109800000D01*
X103607677Y-109819685D01*
G37*
G04 #@! TD.AperFunction*
G04 #@! TA.AperFunction,Conductor*
G36*
X104687222Y-99400832D02*
G01*
X104782456Y-99411920D01*
X104810363Y-99418509D01*
X104900504Y-99451181D01*
X104913687Y-99456843D01*
X107311501Y-100655750D01*
X107326267Y-100664458D01*
X107420468Y-100729187D01*
X107445720Y-100752265D01*
X107513112Y-100833592D01*
X107531096Y-100862692D01*
X107573699Y-100959339D01*
X107583047Y-100992247D01*
X107598814Y-101105444D01*
X107600000Y-101122551D01*
X107600000Y-101683872D01*
X107598939Y-101700058D01*
X107584820Y-101807296D01*
X107576442Y-101838562D01*
X107538189Y-101930914D01*
X107522003Y-101958949D01*
X107461146Y-102038258D01*
X107438258Y-102061146D01*
X107358949Y-102122003D01*
X107330914Y-102138189D01*
X107238562Y-102176442D01*
X107207296Y-102184820D01*
X107100059Y-102198939D01*
X107083873Y-102200000D01*
X104116127Y-102200000D01*
X104099941Y-102198939D01*
X103992703Y-102184820D01*
X103961437Y-102176442D01*
X103869085Y-102138189D01*
X103841050Y-102122003D01*
X103761741Y-102061146D01*
X103738853Y-102038258D01*
X103677996Y-101958949D01*
X103661810Y-101930914D01*
X103623557Y-101838562D01*
X103615179Y-101807295D01*
X103601061Y-101700057D01*
X103600000Y-101683872D01*
X103600000Y-99916127D01*
X103601061Y-99899942D01*
X103615179Y-99792704D01*
X103623556Y-99761440D01*
X103661812Y-99669081D01*
X103677996Y-99641050D01*
X103738853Y-99561741D01*
X103761741Y-99538853D01*
X103841050Y-99477996D01*
X103869081Y-99461812D01*
X103961440Y-99423556D01*
X103992701Y-99415179D01*
X104068241Y-99405234D01*
X104099942Y-99401061D01*
X104116127Y-99400000D01*
X104672881Y-99400000D01*
X104687222Y-99400832D01*
G37*
G04 #@! TD.AperFunction*
G04 #@! TA.AperFunction,Conductor*
G36*
X117100058Y-99001061D02*
G01*
X117146263Y-99007144D01*
X117207296Y-99015179D01*
X117238561Y-99023556D01*
X117330915Y-99061810D01*
X117358949Y-99077996D01*
X117438258Y-99138853D01*
X117461146Y-99161741D01*
X117522003Y-99241050D01*
X117538189Y-99269085D01*
X117576442Y-99361437D01*
X117584820Y-99392703D01*
X117598939Y-99499941D01*
X117600000Y-99516127D01*
X117600000Y-99883872D01*
X117598939Y-99900058D01*
X117584820Y-100007296D01*
X117576442Y-100038562D01*
X117538189Y-100130914D01*
X117522003Y-100158949D01*
X117461146Y-100238258D01*
X117438258Y-100261146D01*
X117358949Y-100322003D01*
X117330914Y-100338189D01*
X117238562Y-100376442D01*
X117207296Y-100384820D01*
X117100059Y-100398939D01*
X117083873Y-100400000D01*
X115000000Y-100400000D01*
X114872026Y-100485314D01*
X114872020Y-100485318D01*
X114626214Y-100649190D01*
X114626212Y-100649192D01*
X114400000Y-100800000D01*
X114400000Y-101071873D01*
X114400000Y-101071875D01*
X114400000Y-101683872D01*
X114398939Y-101700058D01*
X114384820Y-101807296D01*
X114376442Y-101838562D01*
X114338189Y-101930914D01*
X114322003Y-101958949D01*
X114261146Y-102038258D01*
X114238258Y-102061146D01*
X114158949Y-102122003D01*
X114130914Y-102138189D01*
X114038562Y-102176442D01*
X114007296Y-102184820D01*
X113900059Y-102198939D01*
X113883873Y-102200000D01*
X113000000Y-102200000D01*
X112800000Y-102200000D01*
X110716127Y-102200000D01*
X110699941Y-102198939D01*
X110592703Y-102184820D01*
X110561437Y-102176442D01*
X110469085Y-102138189D01*
X110441050Y-102122003D01*
X110361741Y-102061146D01*
X110338853Y-102038258D01*
X110277996Y-101958949D01*
X110261810Y-101930914D01*
X110223557Y-101838562D01*
X110215179Y-101807295D01*
X110201061Y-101700057D01*
X110200000Y-101683872D01*
X110200000Y-99716127D01*
X110201061Y-99699942D01*
X110215179Y-99592704D01*
X110223556Y-99561440D01*
X110261812Y-99469081D01*
X110277996Y-99441050D01*
X110338853Y-99361741D01*
X110361741Y-99338853D01*
X110441050Y-99277996D01*
X110469081Y-99261812D01*
X110561440Y-99223556D01*
X110592701Y-99215179D01*
X110668241Y-99205234D01*
X110699942Y-99201061D01*
X110716127Y-99200000D01*
X113880079Y-99200000D01*
X114000000Y-99200000D01*
X114286324Y-99056837D01*
X114299488Y-99051184D01*
X114389638Y-99018508D01*
X114417541Y-99011921D01*
X114512778Y-99000832D01*
X114527119Y-99000000D01*
X117083873Y-99000000D01*
X117100058Y-99001061D01*
G37*
G04 #@! TD.AperFunction*
G04 #@! TA.AperFunction,Conductor*
G36*
X118900058Y-102401061D02*
G01*
X118946263Y-102407144D01*
X119007296Y-102415179D01*
X119038561Y-102423556D01*
X119130915Y-102461810D01*
X119158949Y-102477996D01*
X119238261Y-102538855D01*
X119261146Y-102561739D01*
X119269873Y-102573112D01*
X119295070Y-102638279D01*
X119295500Y-102648601D01*
X119295500Y-105951397D01*
X119275815Y-106018436D01*
X119269874Y-106026886D01*
X119261146Y-106038260D01*
X119238259Y-106061147D01*
X119158949Y-106122004D01*
X119130914Y-106138189D01*
X119038562Y-106176442D01*
X119007296Y-106184820D01*
X118900059Y-106198939D01*
X118883873Y-106200000D01*
X118394715Y-106200000D01*
X118373286Y-106198134D01*
X118232413Y-106173417D01*
X118192115Y-106158827D01*
X118068074Y-106087631D01*
X118050419Y-106075347D01*
X117741296Y-105817746D01*
X117741293Y-105817744D01*
X117600000Y-105700000D01*
X117416079Y-105700000D01*
X115316127Y-105700000D01*
X115299941Y-105698939D01*
X115192703Y-105684820D01*
X115161437Y-105676442D01*
X115069085Y-105638189D01*
X115041050Y-105622003D01*
X114961741Y-105561146D01*
X114938853Y-105538258D01*
X114877996Y-105458949D01*
X114861810Y-105430914D01*
X114823557Y-105338562D01*
X114815179Y-105307295D01*
X114801061Y-105200057D01*
X114800000Y-105183872D01*
X114800000Y-102916127D01*
X114801061Y-102899942D01*
X114815179Y-102792704D01*
X114823556Y-102761440D01*
X114861812Y-102669081D01*
X114877996Y-102641050D01*
X114938853Y-102561741D01*
X114961741Y-102538853D01*
X115041050Y-102477996D01*
X115069081Y-102461812D01*
X115161440Y-102423556D01*
X115192701Y-102415179D01*
X115268241Y-102405234D01*
X115299942Y-102401061D01*
X115316127Y-102400000D01*
X118883873Y-102400000D01*
X118900058Y-102401061D01*
G37*
G04 #@! TD.AperFunction*
G04 #@! TA.AperFunction,Conductor*
G36*
X119200058Y-115301061D02*
G01*
X119246263Y-115307144D01*
X119307296Y-115315179D01*
X119338556Y-115323554D01*
X119372938Y-115337796D01*
X119427340Y-115381634D01*
X119441665Y-115409019D01*
X119449022Y-115428743D01*
X119449025Y-115428750D01*
X119519071Y-115557029D01*
X119520262Y-115558620D01*
X119520496Y-115559246D01*
X119521473Y-115560767D01*
X119521142Y-115560979D01*
X119544683Y-115624082D01*
X119544999Y-115632936D01*
X119544999Y-118767063D01*
X119525314Y-118834102D01*
X119520265Y-118841374D01*
X119501499Y-118866442D01*
X119495949Y-118873330D01*
X119468017Y-118905567D01*
X119468015Y-118905569D01*
X119449545Y-118946014D01*
X119403789Y-118998817D01*
X119400549Y-119000830D01*
X119287219Y-119068829D01*
X119223421Y-119086500D01*
X117735785Y-119086500D01*
X117600301Y-119104697D01*
X117537177Y-119121965D01*
X117537170Y-119121967D01*
X117532901Y-119123775D01*
X117519161Y-119128660D01*
X117468268Y-119143446D01*
X117445451Y-119150075D01*
X117410857Y-119154999D01*
X117039146Y-119154999D01*
X117004552Y-119150076D01*
X117004549Y-119150075D01*
X116930836Y-119128660D01*
X116917083Y-119123769D01*
X116912823Y-119121965D01*
X116912821Y-119121964D01*
X116912820Y-119121964D01*
X116912814Y-119121962D01*
X116849705Y-119104698D01*
X116714215Y-119086500D01*
X116714209Y-119086500D01*
X115516127Y-119086500D01*
X115488464Y-119087405D01*
X115482534Y-119087600D01*
X115466346Y-119088661D01*
X115432905Y-119091955D01*
X115325682Y-119106071D01*
X115325671Y-119106073D01*
X115259798Y-119119176D01*
X115259771Y-119119183D01*
X115228545Y-119127550D01*
X115228517Y-119127559D01*
X115164937Y-119149142D01*
X115164921Y-119149148D01*
X115163492Y-119149740D01*
X115163290Y-119149761D01*
X115163024Y-119149862D01*
X115162998Y-119149793D01*
X115094022Y-119157202D01*
X115031546Y-119125920D01*
X115017675Y-119110660D01*
X114977995Y-119058948D01*
X114961810Y-119030914D01*
X114923557Y-118938562D01*
X114915179Y-118907295D01*
X114910707Y-118873330D01*
X114901061Y-118800057D01*
X114900000Y-118783872D01*
X114900000Y-116716127D01*
X114901061Y-116699942D01*
X114915179Y-116592704D01*
X114923556Y-116561440D01*
X114961812Y-116469081D01*
X114977996Y-116441050D01*
X115038853Y-116361741D01*
X115061741Y-116338853D01*
X115141049Y-116277997D01*
X115169080Y-116261812D01*
X115234759Y-116234607D01*
X115295461Y-116225879D01*
X115329136Y-116229500D01*
X115329146Y-116229500D01*
X115870854Y-116229500D01*
X115870864Y-116229500D01*
X115927973Y-116223360D01*
X115929055Y-116222956D01*
X115969642Y-116207819D01*
X116012976Y-116200000D01*
X116889573Y-116200000D01*
X116889580Y-116200000D01*
X117100000Y-116200000D01*
X117845466Y-115454533D01*
X117857644Y-115443852D01*
X117943474Y-115377992D01*
X117971501Y-115361812D01*
X118063860Y-115323556D01*
X118095121Y-115315179D01*
X118170661Y-115305234D01*
X118202362Y-115301061D01*
X118218547Y-115300000D01*
X119183873Y-115300000D01*
X119200058Y-115301061D01*
G37*
G04 #@! TD.AperFunction*
G04 #@! TA.AperFunction,Conductor*
G36*
X158715677Y-89619685D02*
G01*
X158736319Y-89636319D01*
X158963681Y-89863681D01*
X158997166Y-89925004D01*
X159000000Y-89951362D01*
X159000000Y-93748638D01*
X158980315Y-93815677D01*
X158963681Y-93836319D01*
X158736319Y-94063681D01*
X158674996Y-94097166D01*
X158648638Y-94100000D01*
X118651362Y-94100000D01*
X118584323Y-94080315D01*
X118563681Y-94063681D01*
X118336319Y-93836319D01*
X118302834Y-93774996D01*
X118300000Y-93748638D01*
X118300000Y-89951362D01*
X118319685Y-89884323D01*
X118336319Y-89863681D01*
X118563681Y-89636319D01*
X118625004Y-89602834D01*
X118651362Y-89600000D01*
X158648638Y-89600000D01*
X158715677Y-89619685D01*
G37*
G04 #@! TD.AperFunction*
G04 #@! TA.AperFunction,Conductor*
G36*
X113845837Y-113009440D02*
G01*
X113862116Y-113016183D01*
X113862124Y-113016185D01*
X113862132Y-113016189D01*
X113894271Y-113027099D01*
X113925537Y-113035477D01*
X113958829Y-113042100D01*
X114066067Y-113056219D01*
X114082967Y-113057883D01*
X114099153Y-113058944D01*
X114116127Y-113059500D01*
X114116142Y-113059500D01*
X116783858Y-113059500D01*
X116783873Y-113059500D01*
X116800847Y-113058944D01*
X116817033Y-113057883D01*
X116833933Y-113056219D01*
X116864338Y-113052215D01*
X116927948Y-113060581D01*
X116930897Y-113061803D01*
X116958947Y-113077993D01*
X116998605Y-113108424D01*
X117038259Y-113138853D01*
X117061146Y-113161741D01*
X117122003Y-113241050D01*
X117138189Y-113269085D01*
X117176442Y-113361437D01*
X117184820Y-113392703D01*
X117198939Y-113499941D01*
X117200000Y-113516127D01*
X117200000Y-114183872D01*
X117198939Y-114200058D01*
X117184820Y-114307296D01*
X117176442Y-114338562D01*
X117138189Y-114430914D01*
X117122003Y-114458949D01*
X117061146Y-114538258D01*
X117038258Y-114561146D01*
X116958949Y-114622003D01*
X116930914Y-114638189D01*
X116838562Y-114676442D01*
X116807296Y-114684820D01*
X116700059Y-114698939D01*
X116683873Y-114700000D01*
X115100000Y-114700000D01*
X114951213Y-114848786D01*
X114951209Y-114848790D01*
X114948790Y-114851209D01*
X114948786Y-114851213D01*
X114800000Y-115000000D01*
X114800000Y-115210412D01*
X114800000Y-115846368D01*
X114797617Y-115870559D01*
X114778823Y-115965042D01*
X114760309Y-116009741D01*
X114713704Y-116079491D01*
X114679491Y-116113704D01*
X114609741Y-116160309D01*
X114565042Y-116178823D01*
X114470559Y-116197617D01*
X114446368Y-116200000D01*
X113000000Y-116200000D01*
X112872027Y-116285314D01*
X112872022Y-116285317D01*
X112835572Y-116309618D01*
X112819718Y-116318580D01*
X112710005Y-116370365D01*
X112675238Y-116380892D01*
X112555218Y-116398663D01*
X112537058Y-116400000D01*
X110716127Y-116400000D01*
X110699941Y-116398939D01*
X110592703Y-116384820D01*
X110561437Y-116376442D01*
X110469085Y-116338189D01*
X110441050Y-116322003D01*
X110361741Y-116261146D01*
X110338853Y-116238258D01*
X110277996Y-116158949D01*
X110261810Y-116130914D01*
X110254681Y-116113704D01*
X110223556Y-116038561D01*
X110215179Y-116007295D01*
X110201061Y-115900057D01*
X110200000Y-115883872D01*
X110200000Y-114016127D01*
X110201061Y-113999942D01*
X110215179Y-113892704D01*
X110223556Y-113861440D01*
X110261812Y-113769081D01*
X110277996Y-113741050D01*
X110338853Y-113661741D01*
X110361740Y-113638853D01*
X110441055Y-113577991D01*
X110469078Y-113561813D01*
X110496145Y-113550601D01*
X110559779Y-113542225D01*
X110666067Y-113556219D01*
X110682967Y-113557883D01*
X110699153Y-113558944D01*
X110716127Y-113559500D01*
X110716142Y-113559500D01*
X111181438Y-113559500D01*
X111181453Y-113559500D01*
X111198427Y-113558944D01*
X111214613Y-113557883D01*
X111231513Y-113556219D01*
X111338750Y-113542100D01*
X111372042Y-113535477D01*
X111403308Y-113527099D01*
X111435447Y-113516189D01*
X111474531Y-113500000D01*
X111500000Y-113500000D01*
X111518007Y-113481991D01*
X111527799Y-113477936D01*
X111558238Y-113462926D01*
X111586273Y-113446741D01*
X111614503Y-113427879D01*
X111700321Y-113362028D01*
X111713458Y-113351246D01*
X111725652Y-113340551D01*
X111738035Y-113328952D01*
X111971169Y-113095819D01*
X112032492Y-113062334D01*
X112058850Y-113059500D01*
X112683858Y-113059500D01*
X112683873Y-113059500D01*
X112700847Y-113058944D01*
X112717033Y-113057883D01*
X112733933Y-113056219D01*
X112841170Y-113042100D01*
X112874462Y-113035477D01*
X112905728Y-113027099D01*
X112937867Y-113016189D01*
X112937879Y-113016183D01*
X112937882Y-113016183D01*
X112954162Y-113009440D01*
X113001616Y-113000000D01*
X113798383Y-113000000D01*
X113845837Y-113009440D01*
G37*
G04 #@! TD.AperFunction*
G04 #@! TA.AperFunction,Conductor*
G36*
X107100058Y-103601061D02*
G01*
X107146263Y-103607144D01*
X107207296Y-103615179D01*
X107238561Y-103623556D01*
X107330915Y-103661810D01*
X107358949Y-103677996D01*
X107438258Y-103738853D01*
X107461146Y-103761741D01*
X107522003Y-103841050D01*
X107538189Y-103869085D01*
X107576442Y-103961437D01*
X107584820Y-103992703D01*
X107598939Y-104099941D01*
X107600000Y-104116127D01*
X107600000Y-104283872D01*
X107598939Y-104300058D01*
X107584820Y-104407296D01*
X107576442Y-104438562D01*
X107538189Y-104530914D01*
X107522003Y-104558949D01*
X107461146Y-104638258D01*
X107438258Y-104661146D01*
X107358949Y-104722003D01*
X107330914Y-104738189D01*
X107238562Y-104776442D01*
X107207296Y-104784820D01*
X107100059Y-104798939D01*
X107083873Y-104800000D01*
X105200000Y-104800000D01*
X105049192Y-105026211D01*
X105049190Y-105026214D01*
X104956455Y-105165317D01*
X104943857Y-105181221D01*
X104851653Y-105279837D01*
X104819587Y-105304478D01*
X104747279Y-105343176D01*
X104678884Y-105357453D01*
X104669373Y-105356322D01*
X104656309Y-105354253D01*
X104601045Y-105345500D01*
X104601040Y-105345500D01*
X104198956Y-105345500D01*
X104106572Y-105360132D01*
X104054852Y-105386485D01*
X103998558Y-105400000D01*
X103708126Y-105400000D01*
X103691941Y-105398939D01*
X103678917Y-105397224D01*
X103586775Y-105385093D01*
X103555508Y-105376715D01*
X103465081Y-105339259D01*
X103437048Y-105323074D01*
X103359398Y-105263491D01*
X103336508Y-105240601D01*
X103276925Y-105162951D01*
X103260740Y-105134918D01*
X103223284Y-105044491D01*
X103214906Y-105013223D01*
X103201061Y-104908059D01*
X103200000Y-104891874D01*
X103200000Y-104618547D01*
X103201061Y-104602362D01*
X103215179Y-104495124D01*
X103223556Y-104463860D01*
X103261812Y-104371501D01*
X103277992Y-104343474D01*
X103343852Y-104257644D01*
X103354533Y-104245466D01*
X103845466Y-103754533D01*
X103857644Y-103743852D01*
X103943474Y-103677992D01*
X103971501Y-103661812D01*
X104063860Y-103623556D01*
X104095121Y-103615179D01*
X104170661Y-103605234D01*
X104202362Y-103601061D01*
X104218547Y-103600000D01*
X107083873Y-103600000D01*
X107100058Y-103601061D01*
G37*
G04 #@! TD.AperFunction*
G04 #@! TA.AperFunction,Conductor*
G36*
X103745837Y-116609440D02*
G01*
X103762116Y-116616183D01*
X103762124Y-116616185D01*
X103762132Y-116616189D01*
X103794271Y-116627099D01*
X103825537Y-116635477D01*
X103858829Y-116642100D01*
X103966067Y-116656219D01*
X103982967Y-116657883D01*
X103999153Y-116658944D01*
X104016127Y-116659500D01*
X104016142Y-116659500D01*
X106983858Y-116659500D01*
X106983873Y-116659500D01*
X107000847Y-116658944D01*
X107017033Y-116657883D01*
X107033933Y-116656219D01*
X107141170Y-116642100D01*
X107174462Y-116635477D01*
X107194196Y-116630189D01*
X107264044Y-116631848D01*
X107273732Y-116635395D01*
X107316881Y-116653268D01*
X107334920Y-116660741D01*
X107362952Y-116676925D01*
X107440602Y-116736509D01*
X107463491Y-116759398D01*
X107523074Y-116837048D01*
X107539259Y-116865081D01*
X107576715Y-116955508D01*
X107585093Y-116986775D01*
X107597869Y-117083814D01*
X107597869Y-117116186D01*
X107585093Y-117213224D01*
X107576715Y-117244491D01*
X107539259Y-117334918D01*
X107523074Y-117362951D01*
X107463491Y-117440601D01*
X107440602Y-117463491D01*
X107362951Y-117523075D01*
X107334917Y-117539260D01*
X107273749Y-117564597D01*
X107204280Y-117572066D01*
X107194212Y-117569813D01*
X107174456Y-117564520D01*
X107174454Y-117564519D01*
X107174453Y-117564519D01*
X107141170Y-117557899D01*
X107033939Y-117543782D01*
X107017040Y-117542117D01*
X107000850Y-117541056D01*
X106998850Y-117540990D01*
X106983873Y-117540500D01*
X104118547Y-117540500D01*
X104104401Y-117540963D01*
X104101569Y-117541056D01*
X104085382Y-117542117D01*
X104068478Y-117543782D01*
X103961258Y-117557898D01*
X103961242Y-117557900D01*
X103927950Y-117564523D01*
X103896707Y-117572895D01*
X103896676Y-117572904D01*
X103864548Y-117583811D01*
X103864534Y-117583816D01*
X103825462Y-117600000D01*
X103800000Y-117600000D01*
X103767483Y-117624387D01*
X103741779Y-117637063D01*
X103741755Y-117637075D01*
X103713742Y-117653247D01*
X103713735Y-117653252D01*
X103685502Y-117672115D01*
X103599678Y-117737970D01*
X103586532Y-117748759D01*
X103574336Y-117759456D01*
X103561988Y-117771022D01*
X103538270Y-117794739D01*
X103524992Y-117806254D01*
X103203200Y-118047599D01*
X103203196Y-118047602D01*
X103000000Y-118200000D01*
X103000000Y-118349160D01*
X102972114Y-118385503D01*
X102953252Y-118413735D01*
X102953247Y-118413742D01*
X102937075Y-118441755D01*
X102937063Y-118441779D01*
X102922071Y-118472181D01*
X102922057Y-118472212D01*
X102883812Y-118564544D01*
X102872891Y-118596721D01*
X102864514Y-118627995D01*
X102857894Y-118661291D01*
X102857893Y-118661298D01*
X102857893Y-118661299D01*
X102857694Y-118662812D01*
X102857205Y-118666765D01*
X102856765Y-118670560D01*
X102859496Y-118748343D01*
X102872392Y-118817013D01*
X102872393Y-118817017D01*
X102872394Y-118817020D01*
X102896216Y-118886925D01*
X102901262Y-118896829D01*
X102913245Y-118933697D01*
X102913468Y-118935103D01*
X102914999Y-118954527D01*
X102914999Y-119225473D01*
X102913474Y-119244855D01*
X102912857Y-119248756D01*
X102912855Y-119248770D01*
X102909837Y-119279780D01*
X102909837Y-119279791D01*
X102908937Y-119304206D01*
X102908741Y-119309509D01*
X102908639Y-119312894D01*
X102917943Y-119366288D01*
X102910059Y-119435711D01*
X102883465Y-119475255D01*
X102849002Y-119509718D01*
X102817617Y-119532521D01*
X102741108Y-119571505D01*
X102704218Y-119583493D01*
X102701195Y-119583972D01*
X102681789Y-119585500D01*
X102518212Y-119585500D01*
X102498819Y-119583974D01*
X102495794Y-119583495D01*
X102458891Y-119571505D01*
X102382382Y-119532521D01*
X102350997Y-119509718D01*
X102290281Y-119449002D01*
X102267477Y-119417616D01*
X102228492Y-119341104D01*
X102216504Y-119304206D01*
X102212635Y-119279780D01*
X102201527Y-119209641D01*
X102200000Y-119190244D01*
X102200000Y-117116127D01*
X102201061Y-117099942D01*
X102215179Y-116992704D01*
X102223556Y-116961440D01*
X102261812Y-116869081D01*
X102277996Y-116841050D01*
X102338853Y-116761741D01*
X102361741Y-116738853D01*
X102441050Y-116677996D01*
X102469081Y-116661812D01*
X102561440Y-116623556D01*
X102592701Y-116615179D01*
X102668241Y-116605234D01*
X102699942Y-116601061D01*
X102716127Y-116600000D01*
X103698383Y-116600000D01*
X103745837Y-116609440D01*
G37*
G04 #@! TD.AperFunction*
G04 #@! TA.AperFunction,Conductor*
G36*
X158565986Y-96769685D02*
G01*
X158586253Y-96785945D01*
X158802136Y-96999991D01*
X159017660Y-97213681D01*
X159018020Y-97214037D01*
X159051766Y-97275216D01*
X159054709Y-97301032D01*
X159095531Y-102077147D01*
X159087752Y-102121449D01*
X158777917Y-102954149D01*
X158754845Y-102992761D01*
X156530059Y-105524413D01*
X156530054Y-105524420D01*
X156200000Y-105900000D01*
X156195371Y-106399977D01*
X156005101Y-126948997D01*
X155984796Y-127015851D01*
X155968381Y-127035934D01*
X155536246Y-127464087D01*
X155474771Y-127497287D01*
X155448974Y-127500000D01*
X152551362Y-127500000D01*
X152484323Y-127480315D01*
X152463681Y-127463681D01*
X152036319Y-127036319D01*
X152002834Y-126974996D01*
X152000000Y-126948638D01*
X152000000Y-110750001D01*
X152000000Y-110750000D01*
X152000000Y-110250000D01*
X151646445Y-109896445D01*
X151353555Y-109603554D01*
X151353553Y-109603553D01*
X151000000Y-109250000D01*
X150500002Y-109248663D01*
X149228862Y-109245264D01*
X141356101Y-109224214D01*
X132851258Y-109201473D01*
X132784276Y-109181610D01*
X132763799Y-109165041D01*
X132336200Y-108736297D01*
X132302799Y-108674930D01*
X132300000Y-108648734D01*
X132300000Y-101600000D01*
X132300000Y-101100000D01*
X131800000Y-101100000D01*
X119051362Y-101100000D01*
X118984323Y-101080315D01*
X118963681Y-101063681D01*
X118536319Y-100636319D01*
X118502834Y-100574996D01*
X118500000Y-100548638D01*
X118500000Y-97301362D01*
X118519685Y-97234323D01*
X118536319Y-97213681D01*
X118963681Y-96786319D01*
X119025004Y-96752834D01*
X119051362Y-96750000D01*
X158498947Y-96750000D01*
X158565986Y-96769685D01*
G37*
G04 #@! TD.AperFunction*
G04 #@! TA.AperFunction,Conductor*
G36*
X113661898Y-108414202D02*
G01*
X113666205Y-108416462D01*
X113666206Y-108416463D01*
X113820528Y-108454500D01*
X113820529Y-108454500D01*
X113979472Y-108454500D01*
X114133793Y-108416463D01*
X114135812Y-108415403D01*
X114138102Y-108414202D01*
X114195724Y-108400000D01*
X116683873Y-108400000D01*
X116700058Y-108401061D01*
X116746263Y-108407144D01*
X116807296Y-108415179D01*
X116838561Y-108423556D01*
X116930915Y-108461810D01*
X116958949Y-108477996D01*
X117038258Y-108538853D01*
X117061146Y-108561741D01*
X117122003Y-108641050D01*
X117138189Y-108669085D01*
X117176442Y-108761437D01*
X117184820Y-108792703D01*
X117198939Y-108899941D01*
X117200000Y-108916127D01*
X117200000Y-109283872D01*
X117198939Y-109300058D01*
X117184820Y-109407296D01*
X117176442Y-109438562D01*
X117138189Y-109530914D01*
X117122003Y-109558949D01*
X117061146Y-109638258D01*
X117038258Y-109661146D01*
X116958949Y-109722003D01*
X116930914Y-109738189D01*
X116838562Y-109776442D01*
X116807296Y-109784820D01*
X116700059Y-109798939D01*
X116683873Y-109800000D01*
X113600000Y-109800000D01*
X113464536Y-109901597D01*
X113464532Y-109901600D01*
X113399997Y-109950001D01*
X113399995Y-109950003D01*
X113399992Y-109950005D01*
X113200000Y-110100000D01*
X113200000Y-110349998D01*
X113200000Y-112283872D01*
X113198939Y-112300058D01*
X113184820Y-112407296D01*
X113176442Y-112438562D01*
X113138189Y-112530914D01*
X113122003Y-112558949D01*
X113061146Y-112638258D01*
X113038258Y-112661146D01*
X112958949Y-112722003D01*
X112930914Y-112738189D01*
X112838562Y-112776442D01*
X112807296Y-112784820D01*
X112700059Y-112798939D01*
X112683873Y-112800000D01*
X111900000Y-112800000D01*
X111751213Y-112948786D01*
X111751209Y-112948790D01*
X111554541Y-113145458D01*
X111542347Y-113156153D01*
X111456529Y-113222004D01*
X111428494Y-113238189D01*
X111336142Y-113276442D01*
X111304876Y-113284820D01*
X111197639Y-113298939D01*
X111181453Y-113300000D01*
X110716127Y-113300000D01*
X110699941Y-113298939D01*
X110592703Y-113284820D01*
X110561437Y-113276442D01*
X110469085Y-113238189D01*
X110441050Y-113222003D01*
X110361741Y-113161146D01*
X110338853Y-113138258D01*
X110277996Y-113058949D01*
X110261810Y-113030914D01*
X110223557Y-112938562D01*
X110215179Y-112907295D01*
X110201061Y-112800057D01*
X110200000Y-112783872D01*
X110200000Y-108916127D01*
X110201061Y-108899942D01*
X110215179Y-108792704D01*
X110223556Y-108761440D01*
X110261812Y-108669081D01*
X110277996Y-108641050D01*
X110338853Y-108561741D01*
X110361741Y-108538853D01*
X110441050Y-108477996D01*
X110469081Y-108461812D01*
X110561440Y-108423556D01*
X110592701Y-108415179D01*
X110668241Y-108405234D01*
X110699942Y-108401061D01*
X110716127Y-108400000D01*
X113604276Y-108400000D01*
X113661898Y-108414202D01*
G37*
G04 #@! TD.AperFunction*
G04 #@! TA.AperFunction,Conductor*
G36*
X103707677Y-95419685D02*
G01*
X103728319Y-95436319D01*
X104063333Y-95771333D01*
X104096818Y-95832656D01*
X104098390Y-95876660D01*
X104086500Y-95959361D01*
X104086500Y-98341347D01*
X104077061Y-98388800D01*
X103879552Y-98865627D01*
X103835711Y-98920030D01*
X103804850Y-98935593D01*
X103764936Y-98949142D01*
X103764925Y-98949146D01*
X103672571Y-98987400D01*
X103612353Y-99017096D01*
X103612323Y-99017112D01*
X103584307Y-99033287D01*
X103584296Y-99033294D01*
X103528451Y-99070609D01*
X103528448Y-99070610D01*
X103449145Y-99131463D01*
X103398629Y-99175765D01*
X103375765Y-99198629D01*
X103331463Y-99249145D01*
X103270610Y-99328448D01*
X103270609Y-99328451D01*
X103233294Y-99384296D01*
X103233287Y-99384307D01*
X103217112Y-99412323D01*
X103217096Y-99412353D01*
X103187400Y-99472571D01*
X103149146Y-99564925D01*
X103149142Y-99564936D01*
X103127552Y-99628537D01*
X103119177Y-99659793D01*
X103119173Y-99659809D01*
X103106071Y-99725687D01*
X103091955Y-99832904D01*
X103088661Y-99866346D01*
X103087600Y-99882534D01*
X103086500Y-99916140D01*
X103086500Y-100511444D01*
X103066815Y-100578483D01*
X103014011Y-100624238D01*
X102944853Y-100634182D01*
X102925611Y-100629830D01*
X102903651Y-100622987D01*
X102875095Y-100620392D01*
X102832265Y-100616500D01*
X102832262Y-100616500D01*
X102317727Y-100616500D01*
X102246354Y-100622985D01*
X102246344Y-100622988D01*
X102077476Y-100675609D01*
X102007616Y-100676760D01*
X101952905Y-100644905D01*
X101636319Y-100328319D01*
X101602834Y-100266996D01*
X101600000Y-100240638D01*
X101600000Y-95959362D01*
X101619685Y-95892323D01*
X101636319Y-95871681D01*
X102071681Y-95436319D01*
X102133004Y-95402834D01*
X102159362Y-95400000D01*
X103640638Y-95400000D01*
X103707677Y-95419685D01*
G37*
G04 #@! TD.AperFunction*
G04 #@! TA.AperFunction,Conductor*
G36*
X107107677Y-95419685D02*
G01*
X107128319Y-95436319D01*
X107430181Y-95738181D01*
X107463666Y-95799504D01*
X107466500Y-95825862D01*
X107466500Y-98574138D01*
X107446815Y-98641177D01*
X107430181Y-98661819D01*
X107128319Y-98963681D01*
X107066996Y-98997166D01*
X107040638Y-99000000D01*
X105175979Y-99000000D01*
X105123761Y-98988469D01*
X105116332Y-98985020D01*
X105116328Y-98985018D01*
X105116321Y-98985015D01*
X105103128Y-98979349D01*
X105100908Y-98978471D01*
X105058851Y-98950851D01*
X104636319Y-98528319D01*
X104602834Y-98466996D01*
X104600000Y-98440638D01*
X104600000Y-95959362D01*
X104619685Y-95892323D01*
X104636319Y-95871681D01*
X105071681Y-95436319D01*
X105133004Y-95402834D01*
X105159362Y-95400000D01*
X107040638Y-95400000D01*
X107107677Y-95419685D01*
G37*
G04 #@! TD.AperFunction*
G04 #@! TA.AperFunction,Conductor*
G36*
X129500058Y-101701061D02*
G01*
X129546263Y-101707144D01*
X129607296Y-101715179D01*
X129638561Y-101723556D01*
X129730915Y-101761810D01*
X129758949Y-101777996D01*
X129838258Y-101838853D01*
X129861146Y-101861741D01*
X129922003Y-101941050D01*
X129938189Y-101969085D01*
X129976442Y-102061437D01*
X129984820Y-102092703D01*
X129998939Y-102199941D01*
X130000000Y-102216127D01*
X130000000Y-113583872D01*
X129998939Y-113600058D01*
X129984820Y-113707296D01*
X129976442Y-113738562D01*
X129938189Y-113830914D01*
X129922003Y-113858949D01*
X129861146Y-113938258D01*
X129838258Y-113961146D01*
X129758949Y-114022003D01*
X129730914Y-114038189D01*
X129638562Y-114076442D01*
X129607296Y-114084820D01*
X129500059Y-114098939D01*
X129483873Y-114100000D01*
X118016127Y-114100000D01*
X117999941Y-114098939D01*
X117892703Y-114084820D01*
X117861437Y-114076442D01*
X117790048Y-114046872D01*
X117735644Y-114003031D01*
X117713579Y-113936737D01*
X117713500Y-113932311D01*
X117713500Y-113516140D01*
X117713500Y-113516127D01*
X117712400Y-113482539D01*
X117711339Y-113466353D01*
X117708045Y-113432912D01*
X117693926Y-113325674D01*
X117680822Y-113259795D01*
X117672444Y-113228529D01*
X117650855Y-113164931D01*
X117638485Y-113135068D01*
X117612603Y-113072581D01*
X117592923Y-113032673D01*
X117580927Y-112963841D01*
X117605759Y-112902342D01*
X117629387Y-112871551D01*
X117666707Y-112815699D01*
X117682893Y-112787664D01*
X117712602Y-112727420D01*
X117750855Y-112635068D01*
X117772444Y-112571470D01*
X117780822Y-112540204D01*
X117793926Y-112474325D01*
X117808045Y-112367087D01*
X117811339Y-112333646D01*
X117812400Y-112317460D01*
X117813500Y-112283872D01*
X117813500Y-110716127D01*
X117812400Y-110682539D01*
X117811339Y-110666353D01*
X117808045Y-110632912D01*
X117793926Y-110525674D01*
X117780822Y-110459795D01*
X117772444Y-110428529D01*
X117750855Y-110364931D01*
X117712602Y-110272579D01*
X117682894Y-110212336D01*
X117676326Y-110200961D01*
X117666707Y-110184300D01*
X117629387Y-110128448D01*
X117629378Y-110128436D01*
X117568529Y-110049137D01*
X117541702Y-110018547D01*
X117512299Y-109955165D01*
X117521831Y-109885949D01*
X117531829Y-109867896D01*
X117566707Y-109815699D01*
X117582893Y-109787664D01*
X117612602Y-109727420D01*
X117650855Y-109635068D01*
X117672444Y-109571470D01*
X117680822Y-109540204D01*
X117693926Y-109474325D01*
X117708045Y-109367087D01*
X117711339Y-109333646D01*
X117712400Y-109317460D01*
X117713500Y-109283872D01*
X117713500Y-108916127D01*
X117712400Y-108882539D01*
X117711339Y-108866353D01*
X117708045Y-108832912D01*
X117693926Y-108725674D01*
X117680822Y-108659795D01*
X117672444Y-108628529D01*
X117650855Y-108564931D01*
X117612602Y-108472579D01*
X117612600Y-108472575D01*
X117582894Y-108412336D01*
X117568642Y-108387652D01*
X117566707Y-108384300D01*
X117529387Y-108328448D01*
X117468530Y-108249139D01*
X117424245Y-108198642D01*
X117424240Y-108198637D01*
X117424233Y-108198629D01*
X117401369Y-108175765D01*
X117401360Y-108175757D01*
X117401357Y-108175754D01*
X117350860Y-108131469D01*
X117350858Y-108131468D01*
X117350853Y-108131463D01*
X117271550Y-108070610D01*
X117271547Y-108070609D01*
X117253522Y-108058565D01*
X117215706Y-108033296D01*
X117215698Y-108033291D01*
X117215693Y-108033288D01*
X117187679Y-108017114D01*
X117187678Y-108017113D01*
X117187672Y-108017110D01*
X117127422Y-107987397D01*
X117104333Y-107977833D01*
X117035077Y-107949146D01*
X117035064Y-107949141D01*
X116971468Y-107927553D01*
X116971452Y-107927549D01*
X116940195Y-107919174D01*
X116940188Y-107919172D01*
X116923898Y-107915932D01*
X116900000Y-107900000D01*
X116828203Y-107900000D01*
X116767095Y-107891955D01*
X116733653Y-107888661D01*
X116717465Y-107887600D01*
X116713264Y-107887462D01*
X116683873Y-107886500D01*
X116683859Y-107886500D01*
X115113586Y-107886500D01*
X115097385Y-107885437D01*
X115092688Y-107884818D01*
X115061437Y-107876442D01*
X114990048Y-107846872D01*
X114935644Y-107803031D01*
X114913579Y-107736737D01*
X114913500Y-107732311D01*
X114913500Y-106302816D01*
X114933185Y-106235777D01*
X114985989Y-106190022D01*
X115055147Y-106180078D01*
X115061686Y-106181198D01*
X115087823Y-106186397D01*
X115125668Y-106193925D01*
X115125670Y-106193925D01*
X115125674Y-106193926D01*
X115232912Y-106208045D01*
X115266353Y-106211339D01*
X115282539Y-106212400D01*
X115316127Y-106213500D01*
X117276000Y-106213500D01*
X117343039Y-106233185D01*
X117388794Y-106285989D01*
X117400000Y-106337500D01*
X117400000Y-106700000D01*
X117548790Y-106848790D01*
X117548798Y-106848799D01*
X117651201Y-106951202D01*
X117651209Y-106951209D01*
X117800000Y-107100000D01*
X118891993Y-107100000D01*
X118892000Y-107100000D01*
X119400000Y-107100000D01*
X119400000Y-106619723D01*
X119423069Y-106567575D01*
X119448849Y-106544556D01*
X119471549Y-106529390D01*
X119550859Y-106468533D01*
X119601358Y-106424246D01*
X119624245Y-106401359D01*
X119668526Y-106350869D01*
X119677254Y-106339495D01*
X119689941Y-106322226D01*
X119695882Y-106313776D01*
X119707797Y-106296058D01*
X119768514Y-106163110D01*
X119788199Y-106096071D01*
X119788200Y-106096067D01*
X119809000Y-105951397D01*
X119809000Y-102648601D01*
X119808555Y-102627228D01*
X119808125Y-102616906D01*
X119806787Y-102595529D01*
X119774015Y-102453093D01*
X119748818Y-102387926D01*
X119677257Y-102260509D01*
X119668530Y-102249136D01*
X119624237Y-102198632D01*
X119613269Y-102187664D01*
X119601358Y-102175753D01*
X119550864Y-102131472D01*
X119550862Y-102131470D01*
X119511407Y-102101195D01*
X119470207Y-102044769D01*
X119466052Y-101975022D01*
X119488521Y-101927334D01*
X119538853Y-101861741D01*
X119561741Y-101838853D01*
X119641050Y-101777996D01*
X119669081Y-101761812D01*
X119761440Y-101723556D01*
X119792701Y-101715179D01*
X119868241Y-101705234D01*
X119899942Y-101701061D01*
X119916127Y-101700000D01*
X129483873Y-101700000D01*
X129500058Y-101701061D01*
G37*
G04 #@! TD.AperFunction*
G04 #@! TA.AperFunction,Conductor*
G36*
X116800058Y-110201061D02*
G01*
X116846263Y-110207144D01*
X116907296Y-110215179D01*
X116938561Y-110223556D01*
X117030915Y-110261810D01*
X117058949Y-110277996D01*
X117138258Y-110338853D01*
X117161146Y-110361741D01*
X117222003Y-110441050D01*
X117238189Y-110469085D01*
X117276442Y-110561437D01*
X117284820Y-110592703D01*
X117298939Y-110699941D01*
X117300000Y-110716127D01*
X117300000Y-112283872D01*
X117298939Y-112300058D01*
X117284820Y-112407296D01*
X117276442Y-112438562D01*
X117238189Y-112530914D01*
X117222003Y-112558949D01*
X117161146Y-112638258D01*
X117138258Y-112661146D01*
X117058949Y-112722003D01*
X117030914Y-112738189D01*
X116938562Y-112776442D01*
X116907296Y-112784820D01*
X116800059Y-112798939D01*
X116783873Y-112800000D01*
X114116127Y-112800000D01*
X114099941Y-112798939D01*
X113992703Y-112784820D01*
X113961437Y-112776442D01*
X113869085Y-112738189D01*
X113841050Y-112722003D01*
X113761741Y-112661146D01*
X113738853Y-112638258D01*
X113677996Y-112558949D01*
X113661810Y-112530914D01*
X113623557Y-112438562D01*
X113615179Y-112407295D01*
X113601061Y-112300057D01*
X113600000Y-112283872D01*
X113600000Y-110716127D01*
X113601061Y-110699942D01*
X113615179Y-110592704D01*
X113623556Y-110561440D01*
X113661812Y-110469081D01*
X113677996Y-110441050D01*
X113738853Y-110361741D01*
X113761741Y-110338853D01*
X113841050Y-110277996D01*
X113869081Y-110261812D01*
X113961440Y-110223556D01*
X113992701Y-110215179D01*
X114068241Y-110205234D01*
X114099942Y-110201061D01*
X114116127Y-110200000D01*
X116783873Y-110200000D01*
X116800058Y-110201061D01*
G37*
G04 #@! TD.AperFunction*
G04 #@! TA.AperFunction,Conductor*
G36*
X104587222Y-113600832D02*
G01*
X104682456Y-113611920D01*
X104710363Y-113618509D01*
X104800504Y-113651181D01*
X104813687Y-113656843D01*
X107211501Y-114855750D01*
X107226267Y-114864458D01*
X107320468Y-114929187D01*
X107345720Y-114952265D01*
X107413112Y-115033592D01*
X107431096Y-115062692D01*
X107473699Y-115159339D01*
X107483047Y-115192247D01*
X107498814Y-115305444D01*
X107500000Y-115322551D01*
X107500000Y-115883872D01*
X107498939Y-115900058D01*
X107484820Y-116007296D01*
X107476442Y-116038562D01*
X107438189Y-116130914D01*
X107422003Y-116158949D01*
X107361146Y-116238258D01*
X107338258Y-116261146D01*
X107258949Y-116322003D01*
X107230914Y-116338189D01*
X107138562Y-116376442D01*
X107107296Y-116384820D01*
X107000059Y-116398939D01*
X106983873Y-116400000D01*
X104016127Y-116400000D01*
X103999941Y-116398939D01*
X103892703Y-116384820D01*
X103861437Y-116376442D01*
X103769085Y-116338189D01*
X103741050Y-116322003D01*
X103661741Y-116261146D01*
X103638853Y-116238258D01*
X103577996Y-116158949D01*
X103561810Y-116130914D01*
X103523557Y-116038562D01*
X103515179Y-116007295D01*
X103501061Y-115900057D01*
X103500000Y-115883872D01*
X103500000Y-114116127D01*
X103501061Y-114099942D01*
X103515179Y-113992704D01*
X103523556Y-113961440D01*
X103561812Y-113869081D01*
X103577996Y-113841050D01*
X103638853Y-113761741D01*
X103661741Y-113738853D01*
X103741050Y-113677996D01*
X103769081Y-113661812D01*
X103861440Y-113623556D01*
X103892701Y-113615179D01*
X103968241Y-113605234D01*
X103999942Y-113601061D01*
X104016127Y-113600000D01*
X104572881Y-113600000D01*
X104587222Y-113600832D01*
G37*
G04 #@! TD.AperFunction*
G04 #@! TA.AperFunction,Conductor*
G36*
X112155487Y-104801478D02*
G01*
X112281447Y-104821101D01*
X112317812Y-104832714D01*
X112423143Y-104885379D01*
X112454252Y-104907504D01*
X112545524Y-104996496D01*
X112558159Y-105010879D01*
X112847599Y-105396800D01*
X112847602Y-105396803D01*
X113000000Y-105600000D01*
X113883873Y-105600000D01*
X113900058Y-105601061D01*
X113946263Y-105607144D01*
X114007296Y-105615179D01*
X114038561Y-105623556D01*
X114130915Y-105661810D01*
X114158949Y-105677996D01*
X114238258Y-105738853D01*
X114261146Y-105761741D01*
X114322003Y-105841050D01*
X114338189Y-105869085D01*
X114376442Y-105961437D01*
X114384820Y-105992703D01*
X114398939Y-106099941D01*
X114400000Y-106116127D01*
X114400000Y-107883872D01*
X114398939Y-107900058D01*
X114384820Y-108007295D01*
X114376444Y-108038557D01*
X114365928Y-108063948D01*
X114322089Y-108118353D01*
X114255796Y-108140421D01*
X114251365Y-108140500D01*
X114195723Y-108140500D01*
X114182406Y-108142117D01*
X114133624Y-108148040D01*
X114133621Y-108148040D01*
X114133618Y-108148041D01*
X114076005Y-108162241D01*
X114075990Y-108162246D01*
X114073967Y-108163013D01*
X114059698Y-108167458D01*
X113962583Y-108191396D01*
X113932906Y-108195000D01*
X113867094Y-108195000D01*
X113837418Y-108191396D01*
X113740306Y-108167459D01*
X113726026Y-108163011D01*
X113723999Y-108162242D01*
X113723987Y-108162238D01*
X113666383Y-108148041D01*
X113666377Y-108148040D01*
X113666376Y-108148040D01*
X113617594Y-108142117D01*
X113604277Y-108140500D01*
X113604276Y-108140500D01*
X110716127Y-108140500D01*
X110701981Y-108140963D01*
X110699149Y-108141056D01*
X110682962Y-108142117D01*
X110666058Y-108143782D01*
X110558838Y-108157898D01*
X110558822Y-108157900D01*
X110525530Y-108164523D01*
X110494287Y-108172895D01*
X110494256Y-108172904D01*
X110467739Y-108181906D01*
X110462134Y-108183809D01*
X110462129Y-108183810D01*
X110462129Y-108183811D01*
X110424785Y-108199279D01*
X110355316Y-108206746D01*
X110292837Y-108175471D01*
X110278958Y-108160204D01*
X110277995Y-108158949D01*
X110261810Y-108130914D01*
X110223557Y-108038562D01*
X110215179Y-108007295D01*
X110201061Y-107900057D01*
X110200000Y-107883872D01*
X110200000Y-105316127D01*
X110201061Y-105299942D01*
X110215179Y-105192704D01*
X110223556Y-105161440D01*
X110261812Y-105069081D01*
X110277996Y-105041050D01*
X110338853Y-104961741D01*
X110361741Y-104938853D01*
X110441050Y-104877996D01*
X110469081Y-104861812D01*
X110561440Y-104823556D01*
X110592701Y-104815179D01*
X110668241Y-104805234D01*
X110699942Y-104801061D01*
X110716127Y-104800000D01*
X112136399Y-104800000D01*
X112155487Y-104801478D01*
G37*
G04 #@! TD.AperFunction*
G04 #@! TA.AperFunction,Conductor*
G36*
X162943039Y-104419685D02*
G01*
X162988794Y-104472489D01*
X163000000Y-104524000D01*
X163000000Y-127376000D01*
X162980315Y-127443039D01*
X162927511Y-127488794D01*
X162876000Y-127500000D01*
X159123465Y-127500000D01*
X159056426Y-127480315D01*
X159010671Y-127427511D01*
X158999466Y-127376537D01*
X158900539Y-104524537D01*
X158919933Y-104457413D01*
X158972539Y-104411430D01*
X159024538Y-104400000D01*
X162876000Y-104400000D01*
X162943039Y-104419685D01*
G37*
G04 #@! TD.AperFunction*
M02*
