%TF.GenerationSoftware,KiCad,Pcbnew,8.0.1*%
%TF.CreationDate,2024-04-17T20:24:41+03:00*%
%TF.ProjectId,Daughterboard,44617567-6874-4657-9262-6f6172642e6b,rev?*%
%TF.SameCoordinates,Original*%
%TF.FileFunction,Drillmap*%
%TF.FilePolarity,Positive*%
%FSLAX45Y45*%
G04 Gerber Fmt 4.5, Leading zero omitted, Abs format (unit mm)*
G04 Created by KiCad (PCBNEW 8.0.1) date 2024-04-17 20:24:41*
%MOMM*%
%LPD*%
G01*
G04 APERTURE LIST*
%ADD10C,0.100000*%
%ADD11C,0.200000*%
G04 APERTURE END LIST*
D10*
X8870000Y-8890000D02*
X16470000Y-8890000D01*
X16470000Y-12780000D01*
X8870000Y-12780000D01*
X8870000Y-8890000D01*
D11*
D10*
X10190000Y-11010000D02*
X10230000Y-11050000D01*
X10230000Y-11010000D02*
X10190000Y-11050000D01*
X10190000Y-11130000D02*
X10230000Y-11170000D01*
X10230000Y-11130000D02*
X10190000Y-11170000D01*
X10200000Y-9580000D02*
X10240000Y-9620000D01*
X10240000Y-9580000D02*
X10200000Y-9620000D01*
X10200000Y-9700000D02*
X10240000Y-9740000D01*
X10240000Y-9700000D02*
X10200000Y-9740000D01*
X10220000Y-10280000D02*
X10260000Y-10320000D01*
X10260000Y-10280000D02*
X10220000Y-10320000D01*
X10220000Y-10380000D02*
X10260000Y-10420000D01*
X10260000Y-10380000D02*
X10220000Y-10420000D01*
X10240000Y-11690000D02*
X10280000Y-11730000D01*
X10280000Y-11690000D02*
X10240000Y-11730000D01*
X10240000Y-11790000D02*
X10280000Y-11830000D01*
X10280000Y-11790000D02*
X10240000Y-11830000D01*
X10320000Y-10280000D02*
X10360000Y-10320000D01*
X10360000Y-10280000D02*
X10320000Y-10320000D01*
X10330000Y-11690000D02*
X10370000Y-11730000D01*
X10370000Y-11690000D02*
X10330000Y-11730000D01*
X10340000Y-10460000D02*
X10380000Y-10500000D01*
X10380000Y-10460000D02*
X10340000Y-10500000D01*
X10340000Y-11880000D02*
X10380000Y-11920000D01*
X10380000Y-11880000D02*
X10340000Y-11920000D01*
X10650000Y-11010000D02*
X10690000Y-11050000D01*
X10690000Y-11010000D02*
X10650000Y-11050000D01*
X10650000Y-11130000D02*
X10690000Y-11170000D01*
X10690000Y-11130000D02*
X10650000Y-11170000D01*
X10650000Y-11250000D02*
X10690000Y-11290000D01*
X10690000Y-11250000D02*
X10650000Y-11290000D01*
X10700000Y-9560000D02*
X10740000Y-9600000D01*
X10740000Y-9560000D02*
X10700000Y-9600000D01*
X10700000Y-9700000D02*
X10740000Y-9740000D01*
X10740000Y-9700000D02*
X10700000Y-9740000D01*
X10700000Y-9840000D02*
X10740000Y-9880000D01*
X10740000Y-9840000D02*
X10700000Y-9880000D01*
X11070000Y-10940000D02*
X11110000Y-10980000D01*
X11110000Y-10940000D02*
X11070000Y-10980000D01*
X11080000Y-10030000D02*
X11120000Y-10070000D01*
X11120000Y-10030000D02*
X11080000Y-10070000D01*
X11080000Y-11470000D02*
X11120000Y-11510000D01*
X11120000Y-11470000D02*
X11080000Y-11510000D01*
X11180000Y-9640000D02*
X11220000Y-9680000D01*
X11220000Y-9640000D02*
X11180000Y-9680000D01*
X11230000Y-10940000D02*
X11270000Y-10980000D01*
X11270000Y-10940000D02*
X11230000Y-10980000D01*
X11230000Y-11070000D02*
X11270000Y-11110000D01*
X11270000Y-11070000D02*
X11230000Y-11110000D01*
X11270000Y-10060000D02*
X11310000Y-10100000D01*
X11310000Y-10060000D02*
X11270000Y-10100000D01*
X11270000Y-10150000D02*
X11310000Y-10190000D01*
X11310000Y-10150000D02*
X11270000Y-10190000D01*
X11270000Y-11470000D02*
X11310000Y-11510000D01*
X11310000Y-11470000D02*
X11270000Y-11510000D01*
X11270000Y-11560000D02*
X11310000Y-11600000D01*
X11310000Y-11560000D02*
X11270000Y-11600000D01*
X11300000Y-9460000D02*
X11340000Y-9500000D01*
X11340000Y-9460000D02*
X11300000Y-9500000D01*
X11300000Y-9640000D02*
X11340000Y-9680000D01*
X11340000Y-9640000D02*
X11300000Y-9680000D01*
X11370000Y-10760000D02*
X11410000Y-10800000D01*
X11410000Y-10760000D02*
X11370000Y-10800000D01*
X11400000Y-12160000D02*
X11440000Y-12200000D01*
X11440000Y-12160000D02*
X11400000Y-12200000D01*
X11510000Y-11060000D02*
X11550000Y-11100000D01*
X11550000Y-11060000D02*
X11510000Y-11100000D01*
X11510000Y-11180000D02*
X11550000Y-11220000D01*
X11550000Y-11180000D02*
X11510000Y-11220000D01*
X11550000Y-12120000D02*
X11590000Y-12160000D01*
X11590000Y-12120000D02*
X11550000Y-12160000D01*
X11570000Y-10720000D02*
X11610000Y-10760000D01*
X11610000Y-10720000D02*
X11570000Y-10760000D01*
X11580000Y-9670000D02*
X11620000Y-9710000D01*
X11620000Y-9670000D02*
X11580000Y-9710000D01*
X11580000Y-9770000D02*
X11620000Y-9810000D01*
X11620000Y-9770000D02*
X11580000Y-9810000D01*
X11660000Y-11520000D02*
X11700000Y-11560000D01*
X11700000Y-11520000D02*
X11660000Y-11560000D01*
X11670000Y-10120000D02*
X11710000Y-10160000D01*
X11710000Y-10120000D02*
X11670000Y-10160000D01*
X11670000Y-10720000D02*
X11710000Y-10760000D01*
X11710000Y-10720000D02*
X11670000Y-10760000D01*
X11670000Y-12120000D02*
X11710000Y-12160000D01*
X11710000Y-12120000D02*
X11670000Y-12160000D01*
X11680000Y-10300000D02*
X11720000Y-10340000D01*
X11720000Y-10300000D02*
X11680000Y-10340000D01*
X11790000Y-11610000D02*
X11830000Y-11650000D01*
X11830000Y-11610000D02*
X11790000Y-11650000D01*
X11866250Y-9010000D02*
X11906250Y-9050000D01*
X11906250Y-9010000D02*
X11866250Y-9050000D01*
X11866250Y-9100000D02*
X11906250Y-9140000D01*
X11906250Y-9100000D02*
X11866250Y-9140000D01*
X11964500Y-9010000D02*
X12004500Y-9050000D01*
X12004500Y-9010000D02*
X11964500Y-9050000D01*
X11964500Y-9100000D02*
X12004500Y-9140000D01*
X12004500Y-9100000D02*
X11964500Y-9140000D01*
X11982000Y-10310000D02*
X12022000Y-10350000D01*
X12022000Y-10310000D02*
X11982000Y-10350000D01*
X11982000Y-10410000D02*
X12022000Y-10450000D01*
X12022000Y-10410000D02*
X11982000Y-10450000D01*
X11982000Y-10500000D02*
X12022000Y-10540000D01*
X12022000Y-10500000D02*
X11982000Y-10540000D01*
X11982000Y-10600000D02*
X12022000Y-10640000D01*
X12022000Y-10600000D02*
X11982000Y-10640000D01*
X11982000Y-10700000D02*
X12022000Y-10740000D01*
X12022000Y-10700000D02*
X11982000Y-10740000D01*
X11982000Y-10800000D02*
X12022000Y-10840000D01*
X12022000Y-10800000D02*
X11982000Y-10840000D01*
X11982000Y-10900000D02*
X12022000Y-10940000D01*
X12022000Y-10900000D02*
X11982000Y-10940000D01*
X11984000Y-10210000D02*
X12024000Y-10250000D01*
X12024000Y-10210000D02*
X11984000Y-10250000D01*
X12036364Y-11508182D02*
X12076364Y-11548182D01*
X12076364Y-11508182D02*
X12036364Y-11548182D01*
X12036364Y-11609091D02*
X12076364Y-11649091D01*
X12076364Y-11609091D02*
X12036364Y-11649091D01*
X12036364Y-11710000D02*
X12076364Y-11750000D01*
X12076364Y-11710000D02*
X12036364Y-11750000D01*
X12036364Y-11810909D02*
X12076364Y-11850909D01*
X12076364Y-11810909D02*
X12036364Y-11850909D01*
X12036364Y-11911818D02*
X12076364Y-11951818D01*
X12076364Y-11911818D02*
X12036364Y-11951818D01*
X12036364Y-12012727D02*
X12076364Y-12052727D01*
X12076364Y-12012727D02*
X12036364Y-12052727D01*
X12036364Y-12113636D02*
X12076364Y-12153636D01*
X12076364Y-12113636D02*
X12036364Y-12153636D01*
X12036364Y-12214545D02*
X12076364Y-12254545D01*
X12076364Y-12214545D02*
X12036364Y-12254545D01*
X12036364Y-12315454D02*
X12076364Y-12355454D01*
X12076364Y-12315454D02*
X12036364Y-12355454D01*
X12036364Y-12416363D02*
X12076364Y-12456363D01*
X12076364Y-12416363D02*
X12036364Y-12456363D01*
X12036364Y-12517272D02*
X12076364Y-12557272D01*
X12076364Y-12517272D02*
X12036364Y-12557272D01*
X12036364Y-12618181D02*
X12076364Y-12658181D01*
X12076364Y-12618181D02*
X12036364Y-12658181D01*
X12062750Y-9010000D02*
X12102750Y-9050000D01*
X12102750Y-9010000D02*
X12062750Y-9050000D01*
X12062750Y-9100000D02*
X12102750Y-9140000D01*
X12102750Y-9100000D02*
X12062750Y-9140000D01*
X12080000Y-10310000D02*
X12120000Y-10350000D01*
X12120000Y-10310000D02*
X12080000Y-10350000D01*
X12080000Y-10410000D02*
X12120000Y-10450000D01*
X12120000Y-10410000D02*
X12080000Y-10450000D01*
X12080000Y-10500000D02*
X12120000Y-10540000D01*
X12120000Y-10500000D02*
X12080000Y-10540000D01*
X12080000Y-10600000D02*
X12120000Y-10640000D01*
X12120000Y-10600000D02*
X12080000Y-10640000D01*
X12080000Y-10700000D02*
X12120000Y-10740000D01*
X12120000Y-10700000D02*
X12080000Y-10740000D01*
X12080000Y-10800000D02*
X12120000Y-10840000D01*
X12120000Y-10800000D02*
X12080000Y-10840000D01*
X12080000Y-10900000D02*
X12120000Y-10940000D01*
X12120000Y-10900000D02*
X12080000Y-10940000D01*
X12082000Y-10210000D02*
X12122000Y-10250000D01*
X12122000Y-10210000D02*
X12082000Y-10250000D01*
X12128182Y-11508182D02*
X12168182Y-11548182D01*
X12168182Y-11508182D02*
X12128182Y-11548182D01*
X12128182Y-11609091D02*
X12168182Y-11649091D01*
X12168182Y-11609091D02*
X12128182Y-11649091D01*
X12128182Y-11710000D02*
X12168182Y-11750000D01*
X12168182Y-11710000D02*
X12128182Y-11750000D01*
X12128182Y-11810909D02*
X12168182Y-11850909D01*
X12168182Y-11810909D02*
X12128182Y-11850909D01*
X12128182Y-11911818D02*
X12168182Y-11951818D01*
X12168182Y-11911818D02*
X12128182Y-11951818D01*
X12128182Y-12012727D02*
X12168182Y-12052727D01*
X12168182Y-12012727D02*
X12128182Y-12052727D01*
X12128182Y-12113636D02*
X12168182Y-12153636D01*
X12168182Y-12113636D02*
X12128182Y-12153636D01*
X12128182Y-12214545D02*
X12168182Y-12254545D01*
X12168182Y-12214545D02*
X12128182Y-12254545D01*
X12128182Y-12315454D02*
X12168182Y-12355454D01*
X12168182Y-12315454D02*
X12128182Y-12355454D01*
X12128182Y-12416363D02*
X12168182Y-12456363D01*
X12168182Y-12416363D02*
X12128182Y-12456363D01*
X12128182Y-12517272D02*
X12168182Y-12557272D01*
X12168182Y-12517272D02*
X12128182Y-12557272D01*
X12128182Y-12618181D02*
X12168182Y-12658181D01*
X12168182Y-12618181D02*
X12128182Y-12658181D01*
X12161000Y-9010000D02*
X12201000Y-9050000D01*
X12201000Y-9010000D02*
X12161000Y-9050000D01*
X12161000Y-9100000D02*
X12201000Y-9140000D01*
X12201000Y-9100000D02*
X12161000Y-9140000D01*
X12178000Y-10310000D02*
X12218000Y-10350000D01*
X12218000Y-10310000D02*
X12178000Y-10350000D01*
X12178000Y-10410000D02*
X12218000Y-10450000D01*
X12218000Y-10410000D02*
X12178000Y-10450000D01*
X12178000Y-10500000D02*
X12218000Y-10540000D01*
X12218000Y-10500000D02*
X12178000Y-10540000D01*
X12178000Y-10600000D02*
X12218000Y-10640000D01*
X12218000Y-10600000D02*
X12178000Y-10640000D01*
X12178000Y-10700000D02*
X12218000Y-10740000D01*
X12218000Y-10700000D02*
X12178000Y-10740000D01*
X12178000Y-10800000D02*
X12218000Y-10840000D01*
X12218000Y-10800000D02*
X12178000Y-10840000D01*
X12178000Y-10900000D02*
X12218000Y-10940000D01*
X12218000Y-10900000D02*
X12178000Y-10940000D01*
X12180000Y-10210000D02*
X12220000Y-10250000D01*
X12220000Y-10210000D02*
X12180000Y-10250000D01*
X12220000Y-11508182D02*
X12260000Y-11548182D01*
X12260000Y-11508182D02*
X12220000Y-11548182D01*
X12220000Y-11609091D02*
X12260000Y-11649091D01*
X12260000Y-11609091D02*
X12220000Y-11649091D01*
X12220000Y-11710000D02*
X12260000Y-11750000D01*
X12260000Y-11710000D02*
X12220000Y-11750000D01*
X12220000Y-11810909D02*
X12260000Y-11850909D01*
X12260000Y-11810909D02*
X12220000Y-11850909D01*
X12220000Y-11911818D02*
X12260000Y-11951818D01*
X12260000Y-11911818D02*
X12220000Y-11951818D01*
X12220000Y-12012727D02*
X12260000Y-12052727D01*
X12260000Y-12012727D02*
X12220000Y-12052727D01*
X12220000Y-12113636D02*
X12260000Y-12153636D01*
X12260000Y-12113636D02*
X12220000Y-12153636D01*
X12220000Y-12214545D02*
X12260000Y-12254545D01*
X12260000Y-12214545D02*
X12220000Y-12254545D01*
X12220000Y-12315454D02*
X12260000Y-12355454D01*
X12260000Y-12315454D02*
X12220000Y-12355454D01*
X12220000Y-12416363D02*
X12260000Y-12456363D01*
X12260000Y-12416363D02*
X12220000Y-12456363D01*
X12220000Y-12517272D02*
X12260000Y-12557272D01*
X12260000Y-12517272D02*
X12220000Y-12557272D01*
X12220000Y-12618181D02*
X12260000Y-12658181D01*
X12260000Y-12618181D02*
X12220000Y-12658181D01*
X12259250Y-9010000D02*
X12299250Y-9050000D01*
X12299250Y-9010000D02*
X12259250Y-9050000D01*
X12259250Y-9100000D02*
X12299250Y-9140000D01*
X12299250Y-9100000D02*
X12259250Y-9140000D01*
X12276000Y-10310000D02*
X12316000Y-10350000D01*
X12316000Y-10310000D02*
X12276000Y-10350000D01*
X12276000Y-10410000D02*
X12316000Y-10450000D01*
X12316000Y-10410000D02*
X12276000Y-10450000D01*
X12276000Y-10500000D02*
X12316000Y-10540000D01*
X12316000Y-10500000D02*
X12276000Y-10540000D01*
X12276000Y-10600000D02*
X12316000Y-10640000D01*
X12316000Y-10600000D02*
X12276000Y-10640000D01*
X12276000Y-10700000D02*
X12316000Y-10740000D01*
X12316000Y-10700000D02*
X12276000Y-10740000D01*
X12276000Y-10800000D02*
X12316000Y-10840000D01*
X12316000Y-10800000D02*
X12276000Y-10840000D01*
X12276000Y-10900000D02*
X12316000Y-10940000D01*
X12316000Y-10900000D02*
X12276000Y-10940000D01*
X12278000Y-10210000D02*
X12318000Y-10250000D01*
X12318000Y-10210000D02*
X12278000Y-10250000D01*
X12311818Y-11508182D02*
X12351818Y-11548182D01*
X12351818Y-11508182D02*
X12311818Y-11548182D01*
X12311818Y-11609091D02*
X12351818Y-11649091D01*
X12351818Y-11609091D02*
X12311818Y-11649091D01*
X12311818Y-11710000D02*
X12351818Y-11750000D01*
X12351818Y-11710000D02*
X12311818Y-11750000D01*
X12311818Y-11810909D02*
X12351818Y-11850909D01*
X12351818Y-11810909D02*
X12311818Y-11850909D01*
X12311818Y-11911818D02*
X12351818Y-11951818D01*
X12351818Y-11911818D02*
X12311818Y-11951818D01*
X12311818Y-12012727D02*
X12351818Y-12052727D01*
X12351818Y-12012727D02*
X12311818Y-12052727D01*
X12311818Y-12113636D02*
X12351818Y-12153636D01*
X12351818Y-12113636D02*
X12311818Y-12153636D01*
X12311818Y-12214545D02*
X12351818Y-12254545D01*
X12351818Y-12214545D02*
X12311818Y-12254545D01*
X12311818Y-12315454D02*
X12351818Y-12355454D01*
X12351818Y-12315454D02*
X12311818Y-12355454D01*
X12311818Y-12416363D02*
X12351818Y-12456363D01*
X12351818Y-12416363D02*
X12311818Y-12456363D01*
X12311818Y-12517272D02*
X12351818Y-12557272D01*
X12351818Y-12517272D02*
X12311818Y-12557272D01*
X12311818Y-12618181D02*
X12351818Y-12658181D01*
X12351818Y-12618181D02*
X12311818Y-12658181D01*
X12357500Y-9010000D02*
X12397500Y-9050000D01*
X12397500Y-9010000D02*
X12357500Y-9050000D01*
X12357500Y-9100000D02*
X12397500Y-9140000D01*
X12397500Y-9100000D02*
X12357500Y-9140000D01*
X12374000Y-10310000D02*
X12414000Y-10350000D01*
X12414000Y-10310000D02*
X12374000Y-10350000D01*
X12374000Y-10410000D02*
X12414000Y-10450000D01*
X12414000Y-10410000D02*
X12374000Y-10450000D01*
X12374000Y-10500000D02*
X12414000Y-10540000D01*
X12414000Y-10500000D02*
X12374000Y-10540000D01*
X12374000Y-10600000D02*
X12414000Y-10640000D01*
X12414000Y-10600000D02*
X12374000Y-10640000D01*
X12374000Y-10700000D02*
X12414000Y-10740000D01*
X12414000Y-10700000D02*
X12374000Y-10740000D01*
X12374000Y-10800000D02*
X12414000Y-10840000D01*
X12414000Y-10800000D02*
X12374000Y-10840000D01*
X12374000Y-10900000D02*
X12414000Y-10940000D01*
X12414000Y-10900000D02*
X12374000Y-10940000D01*
X12376000Y-10210000D02*
X12416000Y-10250000D01*
X12416000Y-10210000D02*
X12376000Y-10250000D01*
X12403636Y-11508182D02*
X12443636Y-11548182D01*
X12443636Y-11508182D02*
X12403636Y-11548182D01*
X12403636Y-11609091D02*
X12443636Y-11649091D01*
X12443636Y-11609091D02*
X12403636Y-11649091D01*
X12403636Y-11710000D02*
X12443636Y-11750000D01*
X12443636Y-11710000D02*
X12403636Y-11750000D01*
X12403636Y-11810909D02*
X12443636Y-11850909D01*
X12443636Y-11810909D02*
X12403636Y-11850909D01*
X12403636Y-11911818D02*
X12443636Y-11951818D01*
X12443636Y-11911818D02*
X12403636Y-11951818D01*
X12403636Y-12012727D02*
X12443636Y-12052727D01*
X12443636Y-12012727D02*
X12403636Y-12052727D01*
X12403636Y-12113636D02*
X12443636Y-12153636D01*
X12443636Y-12113636D02*
X12403636Y-12153636D01*
X12403636Y-12214545D02*
X12443636Y-12254545D01*
X12443636Y-12214545D02*
X12403636Y-12254545D01*
X12403636Y-12315454D02*
X12443636Y-12355454D01*
X12443636Y-12315454D02*
X12403636Y-12355454D01*
X12403636Y-12416363D02*
X12443636Y-12456363D01*
X12443636Y-12416363D02*
X12403636Y-12456363D01*
X12403636Y-12517272D02*
X12443636Y-12557272D01*
X12443636Y-12517272D02*
X12403636Y-12557272D01*
X12403636Y-12618181D02*
X12443636Y-12658181D01*
X12443636Y-12618181D02*
X12403636Y-12658181D01*
X12455750Y-9010000D02*
X12495750Y-9050000D01*
X12495750Y-9010000D02*
X12455750Y-9050000D01*
X12455750Y-9100000D02*
X12495750Y-9140000D01*
X12495750Y-9100000D02*
X12455750Y-9140000D01*
X12472000Y-10310000D02*
X12512000Y-10350000D01*
X12512000Y-10310000D02*
X12472000Y-10350000D01*
X12472000Y-10410000D02*
X12512000Y-10450000D01*
X12512000Y-10410000D02*
X12472000Y-10450000D01*
X12472000Y-10500000D02*
X12512000Y-10540000D01*
X12512000Y-10500000D02*
X12472000Y-10540000D01*
X12472000Y-10600000D02*
X12512000Y-10640000D01*
X12512000Y-10600000D02*
X12472000Y-10640000D01*
X12472000Y-10700000D02*
X12512000Y-10740000D01*
X12512000Y-10700000D02*
X12472000Y-10740000D01*
X12472000Y-10800000D02*
X12512000Y-10840000D01*
X12512000Y-10800000D02*
X12472000Y-10840000D01*
X12472000Y-10900000D02*
X12512000Y-10940000D01*
X12512000Y-10900000D02*
X12472000Y-10940000D01*
X12474000Y-10210000D02*
X12514000Y-10250000D01*
X12514000Y-10210000D02*
X12474000Y-10250000D01*
X12495454Y-11508182D02*
X12535454Y-11548182D01*
X12535454Y-11508182D02*
X12495454Y-11548182D01*
X12495454Y-11609091D02*
X12535454Y-11649091D01*
X12535454Y-11609091D02*
X12495454Y-11649091D01*
X12495454Y-11710000D02*
X12535454Y-11750000D01*
X12535454Y-11710000D02*
X12495454Y-11750000D01*
X12495454Y-11810909D02*
X12535454Y-11850909D01*
X12535454Y-11810909D02*
X12495454Y-11850909D01*
X12495454Y-11911818D02*
X12535454Y-11951818D01*
X12535454Y-11911818D02*
X12495454Y-11951818D01*
X12495454Y-12012727D02*
X12535454Y-12052727D01*
X12535454Y-12012727D02*
X12495454Y-12052727D01*
X12495454Y-12113636D02*
X12535454Y-12153636D01*
X12535454Y-12113636D02*
X12495454Y-12153636D01*
X12495454Y-12214545D02*
X12535454Y-12254545D01*
X12535454Y-12214545D02*
X12495454Y-12254545D01*
X12495454Y-12315454D02*
X12535454Y-12355454D01*
X12535454Y-12315454D02*
X12495454Y-12355454D01*
X12495454Y-12416363D02*
X12535454Y-12456363D01*
X12535454Y-12416363D02*
X12495454Y-12456363D01*
X12495454Y-12517272D02*
X12535454Y-12557272D01*
X12535454Y-12517272D02*
X12495454Y-12557272D01*
X12495454Y-12618181D02*
X12535454Y-12658181D01*
X12535454Y-12618181D02*
X12495454Y-12658181D01*
X12554000Y-9010000D02*
X12594000Y-9050000D01*
X12594000Y-9010000D02*
X12554000Y-9050000D01*
X12554000Y-9100000D02*
X12594000Y-9140000D01*
X12594000Y-9100000D02*
X12554000Y-9140000D01*
X12587272Y-11508182D02*
X12627272Y-11548182D01*
X12627272Y-11508182D02*
X12587272Y-11548182D01*
X12587272Y-11609091D02*
X12627272Y-11649091D01*
X12627272Y-11609091D02*
X12587272Y-11649091D01*
X12587272Y-11710000D02*
X12627272Y-11750000D01*
X12627272Y-11710000D02*
X12587272Y-11750000D01*
X12587272Y-11810909D02*
X12627272Y-11850909D01*
X12627272Y-11810909D02*
X12587272Y-11850909D01*
X12587272Y-11911818D02*
X12627272Y-11951818D01*
X12627272Y-11911818D02*
X12587272Y-11951818D01*
X12587272Y-12012727D02*
X12627272Y-12052727D01*
X12627272Y-12012727D02*
X12587272Y-12052727D01*
X12587272Y-12113636D02*
X12627272Y-12153636D01*
X12627272Y-12113636D02*
X12587272Y-12153636D01*
X12587272Y-12214545D02*
X12627272Y-12254545D01*
X12627272Y-12214545D02*
X12587272Y-12254545D01*
X12587272Y-12315454D02*
X12627272Y-12355454D01*
X12627272Y-12315454D02*
X12587272Y-12355454D01*
X12587272Y-12416363D02*
X12627272Y-12456363D01*
X12627272Y-12416363D02*
X12587272Y-12456363D01*
X12587272Y-12517272D02*
X12627272Y-12557272D01*
X12627272Y-12517272D02*
X12587272Y-12557272D01*
X12587272Y-12618181D02*
X12627272Y-12658181D01*
X12627272Y-12618181D02*
X12587272Y-12658181D01*
X12652250Y-9010000D02*
X12692250Y-9050000D01*
X12692250Y-9010000D02*
X12652250Y-9050000D01*
X12652250Y-9100000D02*
X12692250Y-9140000D01*
X12692250Y-9100000D02*
X12652250Y-9140000D01*
X12679090Y-11508182D02*
X12719090Y-11548182D01*
X12719090Y-11508182D02*
X12679090Y-11548182D01*
X12679090Y-11609091D02*
X12719090Y-11649091D01*
X12719090Y-11609091D02*
X12679090Y-11649091D01*
X12679090Y-11710000D02*
X12719090Y-11750000D01*
X12719090Y-11710000D02*
X12679090Y-11750000D01*
X12679090Y-11810909D02*
X12719090Y-11850909D01*
X12719090Y-11810909D02*
X12679090Y-11850909D01*
X12679090Y-11911818D02*
X12719090Y-11951818D01*
X12719090Y-11911818D02*
X12679090Y-11951818D01*
X12679090Y-12012727D02*
X12719090Y-12052727D01*
X12719090Y-12012727D02*
X12679090Y-12052727D01*
X12679090Y-12113636D02*
X12719090Y-12153636D01*
X12719090Y-12113636D02*
X12679090Y-12153636D01*
X12679090Y-12214545D02*
X12719090Y-12254545D01*
X12719090Y-12214545D02*
X12679090Y-12254545D01*
X12679090Y-12315454D02*
X12719090Y-12355454D01*
X12719090Y-12315454D02*
X12679090Y-12355454D01*
X12679090Y-12416363D02*
X12719090Y-12456363D01*
X12719090Y-12416363D02*
X12679090Y-12456363D01*
X12679090Y-12517272D02*
X12719090Y-12557272D01*
X12719090Y-12517272D02*
X12679090Y-12557272D01*
X12679090Y-12618181D02*
X12719090Y-12658181D01*
X12719090Y-12618181D02*
X12679090Y-12658181D01*
X12750500Y-9010000D02*
X12790500Y-9050000D01*
X12790500Y-9010000D02*
X12750500Y-9050000D01*
X12750500Y-9100000D02*
X12790500Y-9140000D01*
X12790500Y-9100000D02*
X12750500Y-9140000D01*
X12770909Y-11508182D02*
X12810909Y-11548182D01*
X12810909Y-11508182D02*
X12770909Y-11548182D01*
X12770909Y-11609091D02*
X12810909Y-11649091D01*
X12810909Y-11609091D02*
X12770909Y-11649091D01*
X12770909Y-11710000D02*
X12810909Y-11750000D01*
X12810909Y-11710000D02*
X12770909Y-11750000D01*
X12770909Y-11810909D02*
X12810909Y-11850909D01*
X12810909Y-11810909D02*
X12770909Y-11850909D01*
X12770909Y-11911818D02*
X12810909Y-11951818D01*
X12810909Y-11911818D02*
X12770909Y-11951818D01*
X12770909Y-12012727D02*
X12810909Y-12052727D01*
X12810909Y-12012727D02*
X12770909Y-12052727D01*
X12770909Y-12113636D02*
X12810909Y-12153636D01*
X12810909Y-12113636D02*
X12770909Y-12153636D01*
X12770909Y-12214545D02*
X12810909Y-12254545D01*
X12810909Y-12214545D02*
X12770909Y-12254545D01*
X12770909Y-12315454D02*
X12810909Y-12355454D01*
X12810909Y-12315454D02*
X12770909Y-12355454D01*
X12770909Y-12416363D02*
X12810909Y-12456363D01*
X12810909Y-12416363D02*
X12770909Y-12456363D01*
X12770909Y-12517272D02*
X12810909Y-12557272D01*
X12810909Y-12517272D02*
X12770909Y-12557272D01*
X12770909Y-12618181D02*
X12810909Y-12658181D01*
X12810909Y-12618181D02*
X12770909Y-12658181D01*
X12848750Y-9010000D02*
X12888750Y-9050000D01*
X12888750Y-9010000D02*
X12848750Y-9050000D01*
X12848750Y-9100000D02*
X12888750Y-9140000D01*
X12888750Y-9100000D02*
X12848750Y-9140000D01*
X12862727Y-11508182D02*
X12902727Y-11548182D01*
X12902727Y-11508182D02*
X12862727Y-11548182D01*
X12862727Y-11609091D02*
X12902727Y-11649091D01*
X12902727Y-11609091D02*
X12862727Y-11649091D01*
X12862727Y-11710000D02*
X12902727Y-11750000D01*
X12902727Y-11710000D02*
X12862727Y-11750000D01*
X12862727Y-11810909D02*
X12902727Y-11850909D01*
X12902727Y-11810909D02*
X12862727Y-11850909D01*
X12862727Y-11911818D02*
X12902727Y-11951818D01*
X12902727Y-11911818D02*
X12862727Y-11951818D01*
X12862727Y-12012727D02*
X12902727Y-12052727D01*
X12902727Y-12012727D02*
X12862727Y-12052727D01*
X12862727Y-12113636D02*
X12902727Y-12153636D01*
X12902727Y-12113636D02*
X12862727Y-12153636D01*
X12862727Y-12214545D02*
X12902727Y-12254545D01*
X12902727Y-12214545D02*
X12862727Y-12254545D01*
X12862727Y-12315454D02*
X12902727Y-12355454D01*
X12902727Y-12315454D02*
X12862727Y-12355454D01*
X12862727Y-12416363D02*
X12902727Y-12456363D01*
X12902727Y-12416363D02*
X12862727Y-12456363D01*
X12862727Y-12517272D02*
X12902727Y-12557272D01*
X12902727Y-12517272D02*
X12862727Y-12557272D01*
X12862727Y-12618181D02*
X12902727Y-12658181D01*
X12902727Y-12618181D02*
X12862727Y-12658181D01*
X12947000Y-9010000D02*
X12987000Y-9050000D01*
X12987000Y-9010000D02*
X12947000Y-9050000D01*
X12947000Y-9100000D02*
X12987000Y-9140000D01*
X12987000Y-9100000D02*
X12947000Y-9140000D01*
X12954545Y-11508182D02*
X12994545Y-11548182D01*
X12994545Y-11508182D02*
X12954545Y-11548182D01*
X12954545Y-11609091D02*
X12994545Y-11649091D01*
X12994545Y-11609091D02*
X12954545Y-11649091D01*
X12954545Y-11710000D02*
X12994545Y-11750000D01*
X12994545Y-11710000D02*
X12954545Y-11750000D01*
X12954545Y-11810909D02*
X12994545Y-11850909D01*
X12994545Y-11810909D02*
X12954545Y-11850909D01*
X12954545Y-11911818D02*
X12994545Y-11951818D01*
X12994545Y-11911818D02*
X12954545Y-11951818D01*
X12954545Y-12012727D02*
X12994545Y-12052727D01*
X12994545Y-12012727D02*
X12954545Y-12052727D01*
X12954545Y-12113636D02*
X12994545Y-12153636D01*
X12994545Y-12113636D02*
X12954545Y-12153636D01*
X12954545Y-12214545D02*
X12994545Y-12254545D01*
X12994545Y-12214545D02*
X12954545Y-12254545D01*
X12954545Y-12315454D02*
X12994545Y-12355454D01*
X12994545Y-12315454D02*
X12954545Y-12355454D01*
X12954545Y-12416363D02*
X12994545Y-12456363D01*
X12994545Y-12416363D02*
X12954545Y-12456363D01*
X12954545Y-12517272D02*
X12994545Y-12557272D01*
X12994545Y-12517272D02*
X12954545Y-12557272D01*
X12954545Y-12618181D02*
X12994545Y-12658181D01*
X12994545Y-12618181D02*
X12954545Y-12658181D01*
X13045250Y-9010000D02*
X13085250Y-9050000D01*
X13085250Y-9010000D02*
X13045250Y-9050000D01*
X13045250Y-9100000D02*
X13085250Y-9140000D01*
X13085250Y-9100000D02*
X13045250Y-9140000D01*
X13143500Y-9010000D02*
X13183500Y-9050000D01*
X13183500Y-9010000D02*
X13143500Y-9050000D01*
X13143500Y-9100000D02*
X13183500Y-9140000D01*
X13183500Y-9100000D02*
X13143500Y-9140000D01*
X13241750Y-9010000D02*
X13281750Y-9050000D01*
X13281750Y-9010000D02*
X13241750Y-9050000D01*
X13241750Y-9100000D02*
X13281750Y-9140000D01*
X13281750Y-9100000D02*
X13241750Y-9140000D01*
X13340000Y-9010000D02*
X13380000Y-9050000D01*
X13380000Y-9010000D02*
X13340000Y-9050000D01*
X13340000Y-9100000D02*
X13380000Y-9140000D01*
X13380000Y-9100000D02*
X13340000Y-9140000D01*
X13438250Y-9010000D02*
X13478250Y-9050000D01*
X13478250Y-9010000D02*
X13438250Y-9050000D01*
X13438250Y-9100000D02*
X13478250Y-9140000D01*
X13478250Y-9100000D02*
X13438250Y-9140000D01*
X13536500Y-9010000D02*
X13576500Y-9050000D01*
X13576500Y-9010000D02*
X13536500Y-9050000D01*
X13536500Y-9100000D02*
X13576500Y-9140000D01*
X13576500Y-9100000D02*
X13536500Y-9140000D01*
X13634750Y-9010000D02*
X13674750Y-9050000D01*
X13674750Y-9010000D02*
X13634750Y-9050000D01*
X13634750Y-9100000D02*
X13674750Y-9140000D01*
X13674750Y-9100000D02*
X13634750Y-9140000D01*
X13733000Y-9010000D02*
X13773000Y-9050000D01*
X13773000Y-9010000D02*
X13733000Y-9050000D01*
X13733000Y-9100000D02*
X13773000Y-9140000D01*
X13773000Y-9100000D02*
X13733000Y-9140000D01*
X13831250Y-9010000D02*
X13871250Y-9050000D01*
X13871250Y-9010000D02*
X13831250Y-9050000D01*
X13831250Y-9100000D02*
X13871250Y-9140000D01*
X13871250Y-9100000D02*
X13831250Y-9140000D01*
X13929500Y-9010000D02*
X13969500Y-9050000D01*
X13969500Y-9010000D02*
X13929500Y-9050000D01*
X13929500Y-9100000D02*
X13969500Y-9140000D01*
X13969500Y-9100000D02*
X13929500Y-9140000D01*
X14027750Y-9010000D02*
X14067750Y-9050000D01*
X14067750Y-9010000D02*
X14027750Y-9050000D01*
X14027750Y-9100000D02*
X14067750Y-9140000D01*
X14067750Y-9100000D02*
X14027750Y-9140000D01*
X14126000Y-9010000D02*
X14166000Y-9050000D01*
X14166000Y-9010000D02*
X14126000Y-9050000D01*
X14126000Y-9100000D02*
X14166000Y-9140000D01*
X14166000Y-9100000D02*
X14126000Y-9140000D01*
X14224250Y-9010000D02*
X14264250Y-9050000D01*
X14264250Y-9010000D02*
X14224250Y-9050000D01*
X14224250Y-9100000D02*
X14264250Y-9140000D01*
X14264250Y-9100000D02*
X14224250Y-9140000D01*
X14322500Y-9010000D02*
X14362500Y-9050000D01*
X14362500Y-9010000D02*
X14322500Y-9050000D01*
X14322500Y-9100000D02*
X14362500Y-9140000D01*
X14362500Y-9100000D02*
X14322500Y-9140000D01*
X14420750Y-9010000D02*
X14460750Y-9050000D01*
X14460750Y-9010000D02*
X14420750Y-9050000D01*
X14420750Y-9100000D02*
X14460750Y-9140000D01*
X14460750Y-9100000D02*
X14420750Y-9140000D01*
X14519000Y-9010000D02*
X14559000Y-9050000D01*
X14559000Y-9010000D02*
X14519000Y-9050000D01*
X14519000Y-9100000D02*
X14559000Y-9140000D01*
X14559000Y-9100000D02*
X14519000Y-9140000D01*
X14617250Y-9010000D02*
X14657250Y-9050000D01*
X14657250Y-9010000D02*
X14617250Y-9050000D01*
X14617250Y-9100000D02*
X14657250Y-9140000D01*
X14657250Y-9100000D02*
X14617250Y-9140000D01*
X14715500Y-9010000D02*
X14755500Y-9050000D01*
X14755500Y-9010000D02*
X14715500Y-9050000D01*
X14715500Y-9100000D02*
X14755500Y-9140000D01*
X14755500Y-9100000D02*
X14715500Y-9140000D01*
X14813750Y-9010000D02*
X14853750Y-9050000D01*
X14853750Y-9010000D02*
X14813750Y-9050000D01*
X14813750Y-9100000D02*
X14853750Y-9140000D01*
X14853750Y-9100000D02*
X14813750Y-9140000D01*
X14912000Y-9010000D02*
X14952000Y-9050000D01*
X14952000Y-9010000D02*
X14912000Y-9050000D01*
X14912000Y-9100000D02*
X14952000Y-9140000D01*
X14952000Y-9100000D02*
X14912000Y-9140000D01*
X15010250Y-9010000D02*
X15050250Y-9050000D01*
X15050250Y-9010000D02*
X15010250Y-9050000D01*
X15010250Y-9100000D02*
X15050250Y-9140000D01*
X15050250Y-9100000D02*
X15010250Y-9140000D01*
X15108500Y-9010000D02*
X15148500Y-9050000D01*
X15148500Y-9010000D02*
X15108500Y-9050000D01*
X15108500Y-9100000D02*
X15148500Y-9140000D01*
X15148500Y-9100000D02*
X15108500Y-9140000D01*
X15206750Y-9010000D02*
X15246750Y-9050000D01*
X15246750Y-9010000D02*
X15206750Y-9050000D01*
X15206750Y-9100000D02*
X15246750Y-9140000D01*
X15246750Y-9100000D02*
X15206750Y-9140000D01*
X15250000Y-11505000D02*
X15290000Y-11545000D01*
X15290000Y-11505000D02*
X15250000Y-11545000D01*
X15250000Y-11640000D02*
X15290000Y-11680000D01*
X15290000Y-11640000D02*
X15250000Y-11680000D01*
X15250000Y-11775000D02*
X15290000Y-11815000D01*
X15290000Y-11775000D02*
X15250000Y-11815000D01*
X15305000Y-9010000D02*
X15345000Y-9050000D01*
X15345000Y-9010000D02*
X15305000Y-9050000D01*
X15305000Y-9100000D02*
X15345000Y-9140000D01*
X15345000Y-9100000D02*
X15305000Y-9140000D01*
X15385000Y-11505000D02*
X15425000Y-11545000D01*
X15425000Y-11505000D02*
X15385000Y-11545000D01*
X15385000Y-11640000D02*
X15425000Y-11680000D01*
X15425000Y-11640000D02*
X15385000Y-11680000D01*
X15385000Y-11775000D02*
X15425000Y-11815000D01*
X15425000Y-11775000D02*
X15385000Y-11815000D01*
X15403250Y-9010000D02*
X15443250Y-9050000D01*
X15443250Y-9010000D02*
X15403250Y-9050000D01*
X15403250Y-9100000D02*
X15443250Y-9140000D01*
X15443250Y-9100000D02*
X15403250Y-9140000D01*
X15501500Y-9010000D02*
X15541500Y-9050000D01*
X15541500Y-9010000D02*
X15501500Y-9050000D01*
X15501500Y-9100000D02*
X15541500Y-9140000D01*
X15541500Y-9100000D02*
X15501500Y-9140000D01*
X15520000Y-11505000D02*
X15560000Y-11545000D01*
X15560000Y-11505000D02*
X15520000Y-11545000D01*
X15520000Y-11640000D02*
X15560000Y-11680000D01*
X15560000Y-11640000D02*
X15520000Y-11680000D01*
X15520000Y-11775000D02*
X15560000Y-11815000D01*
X15560000Y-11775000D02*
X15520000Y-11815000D01*
X15599750Y-9010000D02*
X15639750Y-9050000D01*
X15639750Y-9010000D02*
X15599750Y-9050000D01*
X15599750Y-9100000D02*
X15639750Y-9140000D01*
X15639750Y-9100000D02*
X15599750Y-9140000D01*
X15698000Y-9010000D02*
X15738000Y-9050000D01*
X15738000Y-9010000D02*
X15698000Y-9050000D01*
X15698000Y-9100000D02*
X15738000Y-9140000D01*
X15738000Y-9100000D02*
X15698000Y-9140000D01*
X15796250Y-9010000D02*
X15836250Y-9050000D01*
X15836250Y-9010000D02*
X15796250Y-9050000D01*
X15796250Y-9100000D02*
X15836250Y-9140000D01*
X15836250Y-9100000D02*
X15796250Y-9140000D01*
X15940000Y-10470000D02*
X15980000Y-10510000D01*
X15980000Y-10470000D02*
X15940000Y-10510000D01*
X15940000Y-10560000D02*
X15980000Y-10600000D01*
X15980000Y-10560000D02*
X15940000Y-10600000D01*
X15940000Y-10650000D02*
X15980000Y-10690000D01*
X15980000Y-10650000D02*
X15940000Y-10690000D01*
X15940000Y-10740000D02*
X15980000Y-10780000D01*
X15980000Y-10740000D02*
X15940000Y-10780000D01*
X16030000Y-10470000D02*
X16070000Y-10510000D01*
X16070000Y-10470000D02*
X16030000Y-10510000D01*
X16030000Y-10560000D02*
X16070000Y-10600000D01*
X16070000Y-10560000D02*
X16030000Y-10600000D01*
X16030000Y-10650000D02*
X16070000Y-10690000D01*
X16070000Y-10650000D02*
X16030000Y-10690000D01*
X16030000Y-10740000D02*
X16070000Y-10780000D01*
X16070000Y-10740000D02*
X16030000Y-10780000D01*
X16120000Y-10470000D02*
X16160000Y-10510000D01*
X16160000Y-10470000D02*
X16120000Y-10510000D01*
X16120000Y-10560000D02*
X16160000Y-10600000D01*
X16160000Y-10560000D02*
X16120000Y-10600000D01*
X16120000Y-10650000D02*
X16160000Y-10690000D01*
X16160000Y-10650000D02*
X16120000Y-10690000D01*
X16120000Y-10740000D02*
X16160000Y-10780000D01*
X16160000Y-10740000D02*
X16120000Y-10780000D01*
X16210000Y-10470000D02*
X16250000Y-10510000D01*
X16250000Y-10470000D02*
X16210000Y-10510000D01*
X16210000Y-10560000D02*
X16250000Y-10600000D01*
X16250000Y-10560000D02*
X16210000Y-10600000D01*
X16210000Y-10650000D02*
X16250000Y-10690000D01*
X16250000Y-10650000D02*
X16210000Y-10690000D01*
X16210000Y-10740000D02*
X16250000Y-10780000D01*
X16250000Y-10740000D02*
X16210000Y-10780000D01*
X10605000Y-9040000D02*
G75*
G02*
X10555000Y-9040000I-25000J0D01*
G01*
X10555000Y-9040000D02*
G75*
G02*
X10605000Y-9040000I25000J0D01*
G01*
X10605000Y-9250000D02*
G75*
G02*
X10555000Y-9250000I-25000J0D01*
G01*
X10555000Y-9250000D02*
G75*
G02*
X10605000Y-9250000I25000J0D01*
G01*
X11205000Y-9040000D02*
G75*
G02*
X11155000Y-9040000I-25000J0D01*
G01*
X11155000Y-9040000D02*
G75*
G02*
X11205000Y-9040000I25000J0D01*
G01*
X11205000Y-9250000D02*
G75*
G02*
X11155000Y-9250000I-25000J0D01*
G01*
X11155000Y-9250000D02*
G75*
G02*
X11205000Y-9250000I25000J0D01*
G01*
X16365000Y-9060000D02*
G75*
G02*
X16315000Y-9060000I-25000J0D01*
G01*
X16315000Y-9060000D02*
G75*
G02*
X16365000Y-9060000I25000J0D01*
G01*
X16365000Y-9460000D02*
G75*
G02*
X16315000Y-9460000I-25000J0D01*
G01*
X16315000Y-9460000D02*
G75*
G02*
X16365000Y-9460000I25000J0D01*
G01*
X16365000Y-9820000D02*
G75*
G02*
X16315000Y-9820000I-25000J0D01*
G01*
X16315000Y-9820000D02*
G75*
G02*
X16365000Y-9820000I25000J0D01*
G01*
X10046000Y-9020000D02*
X10046000Y-9100000D01*
X10006000Y-9060000D02*
X10086000Y-9060000D01*
X10300000Y-9020000D02*
X10300000Y-9100000D01*
X10260000Y-9060000D02*
X10340000Y-9060000D01*
X11435000Y-9020000D02*
X11435000Y-9100000D01*
X11395000Y-9060000D02*
X11475000Y-9060000D01*
X11689000Y-9020000D02*
X11689000Y-9100000D01*
X11649000Y-9060000D02*
X11729000Y-9060000D01*
X9136641Y-11896401D02*
X9136641Y-11833539D01*
X9073779Y-11833539D01*
X9073779Y-11896401D01*
X9136641Y-11896401D01*
X9136641Y-12150401D02*
X9136641Y-12087539D01*
X9073779Y-12087539D01*
X9073779Y-12150401D01*
X9136641Y-12150401D01*
X9157431Y-9491431D02*
X9157431Y-9428569D01*
X9094569Y-9428569D01*
X9094569Y-9491431D01*
X9157431Y-9491431D01*
X9157431Y-9745431D02*
X9157431Y-9682569D01*
X9094569Y-9682569D01*
X9094569Y-9745431D01*
X9157431Y-9745431D01*
X9390641Y-11896401D02*
X9390641Y-11833539D01*
X9327779Y-11833539D01*
X9327779Y-11896401D01*
X9390641Y-11896401D01*
X9390641Y-12150401D02*
X9390641Y-12087539D01*
X9327779Y-12087539D01*
X9327779Y-12150401D01*
X9390641Y-12150401D01*
X9411431Y-9491431D02*
X9411431Y-9428569D01*
X9348569Y-9428569D01*
X9348569Y-9491431D01*
X9411431Y-9491431D01*
X9411431Y-9745431D02*
X9411431Y-9682569D01*
X9348569Y-9682569D01*
X9348569Y-9745431D01*
X9411431Y-9745431D01*
X9644641Y-11896401D02*
X9644641Y-11833539D01*
X9581779Y-11833539D01*
X9581779Y-11896401D01*
X9644641Y-11896401D01*
X9644641Y-12150401D02*
X9644641Y-12087539D01*
X9581779Y-12087539D01*
X9581779Y-12150401D01*
X9644641Y-12150401D01*
X9665431Y-9491431D02*
X9665431Y-9428569D01*
X9602569Y-9428569D01*
X9602569Y-9491431D01*
X9665431Y-9491431D01*
X9665431Y-9745431D02*
X9665431Y-9682569D01*
X9602569Y-9682569D01*
X9602569Y-9745431D01*
X9665431Y-9745431D01*
D11*
X9125777Y-13096484D02*
X9125777Y-12896484D01*
X9125777Y-12896484D02*
X9173396Y-12896484D01*
X9173396Y-12896484D02*
X9201967Y-12906008D01*
X9201967Y-12906008D02*
X9221015Y-12925055D01*
X9221015Y-12925055D02*
X9230539Y-12944103D01*
X9230539Y-12944103D02*
X9240063Y-12982198D01*
X9240063Y-12982198D02*
X9240063Y-13010769D01*
X9240063Y-13010769D02*
X9230539Y-13048865D01*
X9230539Y-13048865D02*
X9221015Y-13067912D01*
X9221015Y-13067912D02*
X9201967Y-13086960D01*
X9201967Y-13086960D02*
X9173396Y-13096484D01*
X9173396Y-13096484D02*
X9125777Y-13096484D01*
X9325777Y-13096484D02*
X9325777Y-12963150D01*
X9325777Y-13001246D02*
X9335301Y-12982198D01*
X9335301Y-12982198D02*
X9344824Y-12972674D01*
X9344824Y-12972674D02*
X9363872Y-12963150D01*
X9363872Y-12963150D02*
X9382920Y-12963150D01*
X9449586Y-13096484D02*
X9449586Y-12963150D01*
X9449586Y-12896484D02*
X9440063Y-12906008D01*
X9440063Y-12906008D02*
X9449586Y-12915531D01*
X9449586Y-12915531D02*
X9459110Y-12906008D01*
X9459110Y-12906008D02*
X9449586Y-12896484D01*
X9449586Y-12896484D02*
X9449586Y-12915531D01*
X9573396Y-13096484D02*
X9554348Y-13086960D01*
X9554348Y-13086960D02*
X9544824Y-13067912D01*
X9544824Y-13067912D02*
X9544824Y-12896484D01*
X9678158Y-13096484D02*
X9659110Y-13086960D01*
X9659110Y-13086960D02*
X9649586Y-13067912D01*
X9649586Y-13067912D02*
X9649586Y-12896484D01*
X9906729Y-13096484D02*
X9906729Y-12896484D01*
X9906729Y-12896484D02*
X9973396Y-13039341D01*
X9973396Y-13039341D02*
X10040063Y-12896484D01*
X10040063Y-12896484D02*
X10040063Y-13096484D01*
X10221015Y-13096484D02*
X10221015Y-12991722D01*
X10221015Y-12991722D02*
X10211491Y-12972674D01*
X10211491Y-12972674D02*
X10192444Y-12963150D01*
X10192444Y-12963150D02*
X10154348Y-12963150D01*
X10154348Y-12963150D02*
X10135301Y-12972674D01*
X10221015Y-13086960D02*
X10201967Y-13096484D01*
X10201967Y-13096484D02*
X10154348Y-13096484D01*
X10154348Y-13096484D02*
X10135301Y-13086960D01*
X10135301Y-13086960D02*
X10125777Y-13067912D01*
X10125777Y-13067912D02*
X10125777Y-13048865D01*
X10125777Y-13048865D02*
X10135301Y-13029817D01*
X10135301Y-13029817D02*
X10154348Y-13020293D01*
X10154348Y-13020293D02*
X10201967Y-13020293D01*
X10201967Y-13020293D02*
X10221015Y-13010769D01*
X10316253Y-12963150D02*
X10316253Y-13163150D01*
X10316253Y-12972674D02*
X10335301Y-12963150D01*
X10335301Y-12963150D02*
X10373396Y-12963150D01*
X10373396Y-12963150D02*
X10392444Y-12972674D01*
X10392444Y-12972674D02*
X10401967Y-12982198D01*
X10401967Y-12982198D02*
X10411491Y-13001246D01*
X10411491Y-13001246D02*
X10411491Y-13058388D01*
X10411491Y-13058388D02*
X10401967Y-13077436D01*
X10401967Y-13077436D02*
X10392444Y-13086960D01*
X10392444Y-13086960D02*
X10373396Y-13096484D01*
X10373396Y-13096484D02*
X10335301Y-13096484D01*
X10335301Y-13096484D02*
X10316253Y-13086960D01*
X10497205Y-13077436D02*
X10506729Y-13086960D01*
X10506729Y-13086960D02*
X10497205Y-13096484D01*
X10497205Y-13096484D02*
X10487682Y-13086960D01*
X10487682Y-13086960D02*
X10497205Y-13077436D01*
X10497205Y-13077436D02*
X10497205Y-13096484D01*
X10497205Y-12972674D02*
X10506729Y-12982198D01*
X10506729Y-12982198D02*
X10497205Y-12991722D01*
X10497205Y-12991722D02*
X10487682Y-12982198D01*
X10487682Y-12982198D02*
X10497205Y-12972674D01*
X10497205Y-12972674D02*
X10497205Y-12991722D01*
D10*
X8825000Y-13405000D02*
X8865000Y-13445000D01*
X8865000Y-13405000D02*
X8825000Y-13445000D01*
D11*
X9163872Y-13316484D02*
X9182920Y-13316484D01*
X9182920Y-13316484D02*
X9201967Y-13326008D01*
X9201967Y-13326008D02*
X9211491Y-13335531D01*
X9211491Y-13335531D02*
X9221015Y-13354579D01*
X9221015Y-13354579D02*
X9230539Y-13392674D01*
X9230539Y-13392674D02*
X9230539Y-13440293D01*
X9230539Y-13440293D02*
X9221015Y-13478388D01*
X9221015Y-13478388D02*
X9211491Y-13497436D01*
X9211491Y-13497436D02*
X9201967Y-13506960D01*
X9201967Y-13506960D02*
X9182920Y-13516484D01*
X9182920Y-13516484D02*
X9163872Y-13516484D01*
X9163872Y-13516484D02*
X9144824Y-13506960D01*
X9144824Y-13506960D02*
X9135301Y-13497436D01*
X9135301Y-13497436D02*
X9125777Y-13478388D01*
X9125777Y-13478388D02*
X9116253Y-13440293D01*
X9116253Y-13440293D02*
X9116253Y-13392674D01*
X9116253Y-13392674D02*
X9125777Y-13354579D01*
X9125777Y-13354579D02*
X9135301Y-13335531D01*
X9135301Y-13335531D02*
X9144824Y-13326008D01*
X9144824Y-13326008D02*
X9163872Y-13316484D01*
X9316253Y-13497436D02*
X9325777Y-13506960D01*
X9325777Y-13506960D02*
X9316253Y-13516484D01*
X9316253Y-13516484D02*
X9306729Y-13506960D01*
X9306729Y-13506960D02*
X9316253Y-13497436D01*
X9316253Y-13497436D02*
X9316253Y-13516484D01*
X9497205Y-13383150D02*
X9497205Y-13516484D01*
X9449586Y-13306960D02*
X9401967Y-13449817D01*
X9401967Y-13449817D02*
X9525777Y-13449817D01*
X9640063Y-13316484D02*
X9659110Y-13316484D01*
X9659110Y-13316484D02*
X9678158Y-13326008D01*
X9678158Y-13326008D02*
X9687682Y-13335531D01*
X9687682Y-13335531D02*
X9697205Y-13354579D01*
X9697205Y-13354579D02*
X9706729Y-13392674D01*
X9706729Y-13392674D02*
X9706729Y-13440293D01*
X9706729Y-13440293D02*
X9697205Y-13478388D01*
X9697205Y-13478388D02*
X9687682Y-13497436D01*
X9687682Y-13497436D02*
X9678158Y-13506960D01*
X9678158Y-13506960D02*
X9659110Y-13516484D01*
X9659110Y-13516484D02*
X9640063Y-13516484D01*
X9640063Y-13516484D02*
X9621015Y-13506960D01*
X9621015Y-13506960D02*
X9611491Y-13497436D01*
X9611491Y-13497436D02*
X9601967Y-13478388D01*
X9601967Y-13478388D02*
X9592444Y-13440293D01*
X9592444Y-13440293D02*
X9592444Y-13392674D01*
X9592444Y-13392674D02*
X9601967Y-13354579D01*
X9601967Y-13354579D02*
X9611491Y-13335531D01*
X9611491Y-13335531D02*
X9621015Y-13326008D01*
X9621015Y-13326008D02*
X9640063Y-13316484D01*
X9830539Y-13316484D02*
X9849586Y-13316484D01*
X9849586Y-13316484D02*
X9868634Y-13326008D01*
X9868634Y-13326008D02*
X9878158Y-13335531D01*
X9878158Y-13335531D02*
X9887682Y-13354579D01*
X9887682Y-13354579D02*
X9897205Y-13392674D01*
X9897205Y-13392674D02*
X9897205Y-13440293D01*
X9897205Y-13440293D02*
X9887682Y-13478388D01*
X9887682Y-13478388D02*
X9878158Y-13497436D01*
X9878158Y-13497436D02*
X9868634Y-13506960D01*
X9868634Y-13506960D02*
X9849586Y-13516484D01*
X9849586Y-13516484D02*
X9830539Y-13516484D01*
X9830539Y-13516484D02*
X9811491Y-13506960D01*
X9811491Y-13506960D02*
X9801967Y-13497436D01*
X9801967Y-13497436D02*
X9792444Y-13478388D01*
X9792444Y-13478388D02*
X9782920Y-13440293D01*
X9782920Y-13440293D02*
X9782920Y-13392674D01*
X9782920Y-13392674D02*
X9792444Y-13354579D01*
X9792444Y-13354579D02*
X9801967Y-13335531D01*
X9801967Y-13335531D02*
X9811491Y-13326008D01*
X9811491Y-13326008D02*
X9830539Y-13316484D01*
X9982920Y-13516484D02*
X9982920Y-13383150D01*
X9982920Y-13402198D02*
X9992444Y-13392674D01*
X9992444Y-13392674D02*
X10011491Y-13383150D01*
X10011491Y-13383150D02*
X10040063Y-13383150D01*
X10040063Y-13383150D02*
X10059110Y-13392674D01*
X10059110Y-13392674D02*
X10068634Y-13411722D01*
X10068634Y-13411722D02*
X10068634Y-13516484D01*
X10068634Y-13411722D02*
X10078158Y-13392674D01*
X10078158Y-13392674D02*
X10097205Y-13383150D01*
X10097205Y-13383150D02*
X10125777Y-13383150D01*
X10125777Y-13383150D02*
X10144825Y-13392674D01*
X10144825Y-13392674D02*
X10154348Y-13411722D01*
X10154348Y-13411722D02*
X10154348Y-13516484D01*
X10249586Y-13516484D02*
X10249586Y-13383150D01*
X10249586Y-13402198D02*
X10259110Y-13392674D01*
X10259110Y-13392674D02*
X10278158Y-13383150D01*
X10278158Y-13383150D02*
X10306729Y-13383150D01*
X10306729Y-13383150D02*
X10325777Y-13392674D01*
X10325777Y-13392674D02*
X10335301Y-13411722D01*
X10335301Y-13411722D02*
X10335301Y-13516484D01*
X10335301Y-13411722D02*
X10344825Y-13392674D01*
X10344825Y-13392674D02*
X10363872Y-13383150D01*
X10363872Y-13383150D02*
X10392444Y-13383150D01*
X10392444Y-13383150D02*
X10411491Y-13392674D01*
X10411491Y-13392674D02*
X10421015Y-13411722D01*
X10421015Y-13411722D02*
X10421015Y-13516484D01*
X10811491Y-13306960D02*
X10640063Y-13564103D01*
X11068634Y-13316484D02*
X11087682Y-13316484D01*
X11087682Y-13316484D02*
X11106729Y-13326008D01*
X11106729Y-13326008D02*
X11116253Y-13335531D01*
X11116253Y-13335531D02*
X11125777Y-13354579D01*
X11125777Y-13354579D02*
X11135301Y-13392674D01*
X11135301Y-13392674D02*
X11135301Y-13440293D01*
X11135301Y-13440293D02*
X11125777Y-13478388D01*
X11125777Y-13478388D02*
X11116253Y-13497436D01*
X11116253Y-13497436D02*
X11106729Y-13506960D01*
X11106729Y-13506960D02*
X11087682Y-13516484D01*
X11087682Y-13516484D02*
X11068634Y-13516484D01*
X11068634Y-13516484D02*
X11049587Y-13506960D01*
X11049587Y-13506960D02*
X11040063Y-13497436D01*
X11040063Y-13497436D02*
X11030539Y-13478388D01*
X11030539Y-13478388D02*
X11021015Y-13440293D01*
X11021015Y-13440293D02*
X11021015Y-13392674D01*
X11021015Y-13392674D02*
X11030539Y-13354579D01*
X11030539Y-13354579D02*
X11040063Y-13335531D01*
X11040063Y-13335531D02*
X11049587Y-13326008D01*
X11049587Y-13326008D02*
X11068634Y-13316484D01*
X11221015Y-13497436D02*
X11230539Y-13506960D01*
X11230539Y-13506960D02*
X11221015Y-13516484D01*
X11221015Y-13516484D02*
X11211491Y-13506960D01*
X11211491Y-13506960D02*
X11221015Y-13497436D01*
X11221015Y-13497436D02*
X11221015Y-13516484D01*
X11354348Y-13316484D02*
X11373396Y-13316484D01*
X11373396Y-13316484D02*
X11392444Y-13326008D01*
X11392444Y-13326008D02*
X11401967Y-13335531D01*
X11401967Y-13335531D02*
X11411491Y-13354579D01*
X11411491Y-13354579D02*
X11421015Y-13392674D01*
X11421015Y-13392674D02*
X11421015Y-13440293D01*
X11421015Y-13440293D02*
X11411491Y-13478388D01*
X11411491Y-13478388D02*
X11401967Y-13497436D01*
X11401967Y-13497436D02*
X11392444Y-13506960D01*
X11392444Y-13506960D02*
X11373396Y-13516484D01*
X11373396Y-13516484D02*
X11354348Y-13516484D01*
X11354348Y-13516484D02*
X11335301Y-13506960D01*
X11335301Y-13506960D02*
X11325777Y-13497436D01*
X11325777Y-13497436D02*
X11316253Y-13478388D01*
X11316253Y-13478388D02*
X11306729Y-13440293D01*
X11306729Y-13440293D02*
X11306729Y-13392674D01*
X11306729Y-13392674D02*
X11316253Y-13354579D01*
X11316253Y-13354579D02*
X11325777Y-13335531D01*
X11325777Y-13335531D02*
X11335301Y-13326008D01*
X11335301Y-13326008D02*
X11354348Y-13316484D01*
X11611491Y-13516484D02*
X11497206Y-13516484D01*
X11554348Y-13516484D02*
X11554348Y-13316484D01*
X11554348Y-13316484D02*
X11535301Y-13345055D01*
X11535301Y-13345055D02*
X11516253Y-13364103D01*
X11516253Y-13364103D02*
X11497206Y-13373627D01*
X11792444Y-13316484D02*
X11697206Y-13316484D01*
X11697206Y-13316484D02*
X11687682Y-13411722D01*
X11687682Y-13411722D02*
X11697206Y-13402198D01*
X11697206Y-13402198D02*
X11716253Y-13392674D01*
X11716253Y-13392674D02*
X11763872Y-13392674D01*
X11763872Y-13392674D02*
X11782920Y-13402198D01*
X11782920Y-13402198D02*
X11792444Y-13411722D01*
X11792444Y-13411722D02*
X11801967Y-13430769D01*
X11801967Y-13430769D02*
X11801967Y-13478388D01*
X11801967Y-13478388D02*
X11792444Y-13497436D01*
X11792444Y-13497436D02*
X11782920Y-13506960D01*
X11782920Y-13506960D02*
X11763872Y-13516484D01*
X11763872Y-13516484D02*
X11716253Y-13516484D01*
X11716253Y-13516484D02*
X11697206Y-13506960D01*
X11697206Y-13506960D02*
X11687682Y-13497436D01*
X11868634Y-13316484D02*
X12001967Y-13316484D01*
X12001967Y-13316484D02*
X11916253Y-13516484D01*
X12068634Y-13316484D02*
X12068634Y-13354579D01*
X12144825Y-13316484D02*
X12144825Y-13354579D01*
X12440063Y-13592674D02*
X12430539Y-13583150D01*
X12430539Y-13583150D02*
X12411491Y-13554579D01*
X12411491Y-13554579D02*
X12401968Y-13535531D01*
X12401968Y-13535531D02*
X12392444Y-13506960D01*
X12392444Y-13506960D02*
X12382920Y-13459341D01*
X12382920Y-13459341D02*
X12382920Y-13421246D01*
X12382920Y-13421246D02*
X12392444Y-13373627D01*
X12392444Y-13373627D02*
X12401968Y-13345055D01*
X12401968Y-13345055D02*
X12411491Y-13326008D01*
X12411491Y-13326008D02*
X12430539Y-13297436D01*
X12430539Y-13297436D02*
X12440063Y-13287912D01*
X12497206Y-13316484D02*
X12621015Y-13316484D01*
X12621015Y-13316484D02*
X12554348Y-13392674D01*
X12554348Y-13392674D02*
X12582920Y-13392674D01*
X12582920Y-13392674D02*
X12601968Y-13402198D01*
X12601968Y-13402198D02*
X12611491Y-13411722D01*
X12611491Y-13411722D02*
X12621015Y-13430769D01*
X12621015Y-13430769D02*
X12621015Y-13478388D01*
X12621015Y-13478388D02*
X12611491Y-13497436D01*
X12611491Y-13497436D02*
X12601968Y-13506960D01*
X12601968Y-13506960D02*
X12582920Y-13516484D01*
X12582920Y-13516484D02*
X12525777Y-13516484D01*
X12525777Y-13516484D02*
X12506729Y-13506960D01*
X12506729Y-13506960D02*
X12497206Y-13497436D01*
X12687682Y-13316484D02*
X12811491Y-13316484D01*
X12811491Y-13316484D02*
X12744825Y-13392674D01*
X12744825Y-13392674D02*
X12773396Y-13392674D01*
X12773396Y-13392674D02*
X12792444Y-13402198D01*
X12792444Y-13402198D02*
X12801968Y-13411722D01*
X12801968Y-13411722D02*
X12811491Y-13430769D01*
X12811491Y-13430769D02*
X12811491Y-13478388D01*
X12811491Y-13478388D02*
X12801968Y-13497436D01*
X12801968Y-13497436D02*
X12792444Y-13506960D01*
X12792444Y-13506960D02*
X12773396Y-13516484D01*
X12773396Y-13516484D02*
X12716253Y-13516484D01*
X12716253Y-13516484D02*
X12697206Y-13506960D01*
X12697206Y-13506960D02*
X12687682Y-13497436D01*
X13001968Y-13516484D02*
X12887682Y-13516484D01*
X12944825Y-13516484D02*
X12944825Y-13316484D01*
X12944825Y-13316484D02*
X12925777Y-13345055D01*
X12925777Y-13345055D02*
X12906729Y-13364103D01*
X12906729Y-13364103D02*
X12887682Y-13373627D01*
X13240063Y-13516484D02*
X13240063Y-13316484D01*
X13325777Y-13516484D02*
X13325777Y-13411722D01*
X13325777Y-13411722D02*
X13316253Y-13392674D01*
X13316253Y-13392674D02*
X13297206Y-13383150D01*
X13297206Y-13383150D02*
X13268634Y-13383150D01*
X13268634Y-13383150D02*
X13249587Y-13392674D01*
X13249587Y-13392674D02*
X13240063Y-13402198D01*
X13449587Y-13516484D02*
X13430539Y-13506960D01*
X13430539Y-13506960D02*
X13421015Y-13497436D01*
X13421015Y-13497436D02*
X13411491Y-13478388D01*
X13411491Y-13478388D02*
X13411491Y-13421246D01*
X13411491Y-13421246D02*
X13421015Y-13402198D01*
X13421015Y-13402198D02*
X13430539Y-13392674D01*
X13430539Y-13392674D02*
X13449587Y-13383150D01*
X13449587Y-13383150D02*
X13478158Y-13383150D01*
X13478158Y-13383150D02*
X13497206Y-13392674D01*
X13497206Y-13392674D02*
X13506730Y-13402198D01*
X13506730Y-13402198D02*
X13516253Y-13421246D01*
X13516253Y-13421246D02*
X13516253Y-13478388D01*
X13516253Y-13478388D02*
X13506730Y-13497436D01*
X13506730Y-13497436D02*
X13497206Y-13506960D01*
X13497206Y-13506960D02*
X13478158Y-13516484D01*
X13478158Y-13516484D02*
X13449587Y-13516484D01*
X13630539Y-13516484D02*
X13611491Y-13506960D01*
X13611491Y-13506960D02*
X13601968Y-13487912D01*
X13601968Y-13487912D02*
X13601968Y-13316484D01*
X13782920Y-13506960D02*
X13763872Y-13516484D01*
X13763872Y-13516484D02*
X13725777Y-13516484D01*
X13725777Y-13516484D02*
X13706730Y-13506960D01*
X13706730Y-13506960D02*
X13697206Y-13487912D01*
X13697206Y-13487912D02*
X13697206Y-13411722D01*
X13697206Y-13411722D02*
X13706730Y-13392674D01*
X13706730Y-13392674D02*
X13725777Y-13383150D01*
X13725777Y-13383150D02*
X13763872Y-13383150D01*
X13763872Y-13383150D02*
X13782920Y-13392674D01*
X13782920Y-13392674D02*
X13792444Y-13411722D01*
X13792444Y-13411722D02*
X13792444Y-13430769D01*
X13792444Y-13430769D02*
X13697206Y-13449817D01*
X13868634Y-13506960D02*
X13887682Y-13516484D01*
X13887682Y-13516484D02*
X13925777Y-13516484D01*
X13925777Y-13516484D02*
X13944825Y-13506960D01*
X13944825Y-13506960D02*
X13954349Y-13487912D01*
X13954349Y-13487912D02*
X13954349Y-13478388D01*
X13954349Y-13478388D02*
X13944825Y-13459341D01*
X13944825Y-13459341D02*
X13925777Y-13449817D01*
X13925777Y-13449817D02*
X13897206Y-13449817D01*
X13897206Y-13449817D02*
X13878158Y-13440293D01*
X13878158Y-13440293D02*
X13868634Y-13421246D01*
X13868634Y-13421246D02*
X13868634Y-13411722D01*
X13868634Y-13411722D02*
X13878158Y-13392674D01*
X13878158Y-13392674D02*
X13897206Y-13383150D01*
X13897206Y-13383150D02*
X13925777Y-13383150D01*
X13925777Y-13383150D02*
X13944825Y-13392674D01*
X14021015Y-13592674D02*
X14030539Y-13583150D01*
X14030539Y-13583150D02*
X14049587Y-13554579D01*
X14049587Y-13554579D02*
X14059111Y-13535531D01*
X14059111Y-13535531D02*
X14068634Y-13506960D01*
X14068634Y-13506960D02*
X14078158Y-13459341D01*
X14078158Y-13459341D02*
X14078158Y-13421246D01*
X14078158Y-13421246D02*
X14068634Y-13373627D01*
X14068634Y-13373627D02*
X14059111Y-13345055D01*
X14059111Y-13345055D02*
X14049587Y-13326008D01*
X14049587Y-13326008D02*
X14030539Y-13297436D01*
X14030539Y-13297436D02*
X14021015Y-13287912D01*
D10*
X8865000Y-13689000D02*
G75*
G02*
X8815000Y-13689000I-25000J0D01*
G01*
X8815000Y-13689000D02*
G75*
G02*
X8865000Y-13689000I25000J0D01*
G01*
D11*
X9163872Y-13580484D02*
X9182920Y-13580484D01*
X9182920Y-13580484D02*
X9201967Y-13590008D01*
X9201967Y-13590008D02*
X9211491Y-13599531D01*
X9211491Y-13599531D02*
X9221015Y-13618579D01*
X9221015Y-13618579D02*
X9230539Y-13656674D01*
X9230539Y-13656674D02*
X9230539Y-13704293D01*
X9230539Y-13704293D02*
X9221015Y-13742388D01*
X9221015Y-13742388D02*
X9211491Y-13761436D01*
X9211491Y-13761436D02*
X9201967Y-13770960D01*
X9201967Y-13770960D02*
X9182920Y-13780484D01*
X9182920Y-13780484D02*
X9163872Y-13780484D01*
X9163872Y-13780484D02*
X9144824Y-13770960D01*
X9144824Y-13770960D02*
X9135301Y-13761436D01*
X9135301Y-13761436D02*
X9125777Y-13742388D01*
X9125777Y-13742388D02*
X9116253Y-13704293D01*
X9116253Y-13704293D02*
X9116253Y-13656674D01*
X9116253Y-13656674D02*
X9125777Y-13618579D01*
X9125777Y-13618579D02*
X9135301Y-13599531D01*
X9135301Y-13599531D02*
X9144824Y-13590008D01*
X9144824Y-13590008D02*
X9163872Y-13580484D01*
X9316253Y-13761436D02*
X9325777Y-13770960D01*
X9325777Y-13770960D02*
X9316253Y-13780484D01*
X9316253Y-13780484D02*
X9306729Y-13770960D01*
X9306729Y-13770960D02*
X9316253Y-13761436D01*
X9316253Y-13761436D02*
X9316253Y-13780484D01*
X9506729Y-13580484D02*
X9411491Y-13580484D01*
X9411491Y-13580484D02*
X9401967Y-13675722D01*
X9401967Y-13675722D02*
X9411491Y-13666198D01*
X9411491Y-13666198D02*
X9430539Y-13656674D01*
X9430539Y-13656674D02*
X9478158Y-13656674D01*
X9478158Y-13656674D02*
X9497205Y-13666198D01*
X9497205Y-13666198D02*
X9506729Y-13675722D01*
X9506729Y-13675722D02*
X9516253Y-13694769D01*
X9516253Y-13694769D02*
X9516253Y-13742388D01*
X9516253Y-13742388D02*
X9506729Y-13761436D01*
X9506729Y-13761436D02*
X9497205Y-13770960D01*
X9497205Y-13770960D02*
X9478158Y-13780484D01*
X9478158Y-13780484D02*
X9430539Y-13780484D01*
X9430539Y-13780484D02*
X9411491Y-13770960D01*
X9411491Y-13770960D02*
X9401967Y-13761436D01*
X9640063Y-13580484D02*
X9659110Y-13580484D01*
X9659110Y-13580484D02*
X9678158Y-13590008D01*
X9678158Y-13590008D02*
X9687682Y-13599531D01*
X9687682Y-13599531D02*
X9697205Y-13618579D01*
X9697205Y-13618579D02*
X9706729Y-13656674D01*
X9706729Y-13656674D02*
X9706729Y-13704293D01*
X9706729Y-13704293D02*
X9697205Y-13742388D01*
X9697205Y-13742388D02*
X9687682Y-13761436D01*
X9687682Y-13761436D02*
X9678158Y-13770960D01*
X9678158Y-13770960D02*
X9659110Y-13780484D01*
X9659110Y-13780484D02*
X9640063Y-13780484D01*
X9640063Y-13780484D02*
X9621015Y-13770960D01*
X9621015Y-13770960D02*
X9611491Y-13761436D01*
X9611491Y-13761436D02*
X9601967Y-13742388D01*
X9601967Y-13742388D02*
X9592444Y-13704293D01*
X9592444Y-13704293D02*
X9592444Y-13656674D01*
X9592444Y-13656674D02*
X9601967Y-13618579D01*
X9601967Y-13618579D02*
X9611491Y-13599531D01*
X9611491Y-13599531D02*
X9621015Y-13590008D01*
X9621015Y-13590008D02*
X9640063Y-13580484D01*
X9830539Y-13580484D02*
X9849586Y-13580484D01*
X9849586Y-13580484D02*
X9868634Y-13590008D01*
X9868634Y-13590008D02*
X9878158Y-13599531D01*
X9878158Y-13599531D02*
X9887682Y-13618579D01*
X9887682Y-13618579D02*
X9897205Y-13656674D01*
X9897205Y-13656674D02*
X9897205Y-13704293D01*
X9897205Y-13704293D02*
X9887682Y-13742388D01*
X9887682Y-13742388D02*
X9878158Y-13761436D01*
X9878158Y-13761436D02*
X9868634Y-13770960D01*
X9868634Y-13770960D02*
X9849586Y-13780484D01*
X9849586Y-13780484D02*
X9830539Y-13780484D01*
X9830539Y-13780484D02*
X9811491Y-13770960D01*
X9811491Y-13770960D02*
X9801967Y-13761436D01*
X9801967Y-13761436D02*
X9792444Y-13742388D01*
X9792444Y-13742388D02*
X9782920Y-13704293D01*
X9782920Y-13704293D02*
X9782920Y-13656674D01*
X9782920Y-13656674D02*
X9792444Y-13618579D01*
X9792444Y-13618579D02*
X9801967Y-13599531D01*
X9801967Y-13599531D02*
X9811491Y-13590008D01*
X9811491Y-13590008D02*
X9830539Y-13580484D01*
X9982920Y-13780484D02*
X9982920Y-13647150D01*
X9982920Y-13666198D02*
X9992444Y-13656674D01*
X9992444Y-13656674D02*
X10011491Y-13647150D01*
X10011491Y-13647150D02*
X10040063Y-13647150D01*
X10040063Y-13647150D02*
X10059110Y-13656674D01*
X10059110Y-13656674D02*
X10068634Y-13675722D01*
X10068634Y-13675722D02*
X10068634Y-13780484D01*
X10068634Y-13675722D02*
X10078158Y-13656674D01*
X10078158Y-13656674D02*
X10097205Y-13647150D01*
X10097205Y-13647150D02*
X10125777Y-13647150D01*
X10125777Y-13647150D02*
X10144825Y-13656674D01*
X10144825Y-13656674D02*
X10154348Y-13675722D01*
X10154348Y-13675722D02*
X10154348Y-13780484D01*
X10249586Y-13780484D02*
X10249586Y-13647150D01*
X10249586Y-13666198D02*
X10259110Y-13656674D01*
X10259110Y-13656674D02*
X10278158Y-13647150D01*
X10278158Y-13647150D02*
X10306729Y-13647150D01*
X10306729Y-13647150D02*
X10325777Y-13656674D01*
X10325777Y-13656674D02*
X10335301Y-13675722D01*
X10335301Y-13675722D02*
X10335301Y-13780484D01*
X10335301Y-13675722D02*
X10344825Y-13656674D01*
X10344825Y-13656674D02*
X10363872Y-13647150D01*
X10363872Y-13647150D02*
X10392444Y-13647150D01*
X10392444Y-13647150D02*
X10411491Y-13656674D01*
X10411491Y-13656674D02*
X10421015Y-13675722D01*
X10421015Y-13675722D02*
X10421015Y-13780484D01*
X10811491Y-13570960D02*
X10640063Y-13828103D01*
X11068634Y-13580484D02*
X11087682Y-13580484D01*
X11087682Y-13580484D02*
X11106729Y-13590008D01*
X11106729Y-13590008D02*
X11116253Y-13599531D01*
X11116253Y-13599531D02*
X11125777Y-13618579D01*
X11125777Y-13618579D02*
X11135301Y-13656674D01*
X11135301Y-13656674D02*
X11135301Y-13704293D01*
X11135301Y-13704293D02*
X11125777Y-13742388D01*
X11125777Y-13742388D02*
X11116253Y-13761436D01*
X11116253Y-13761436D02*
X11106729Y-13770960D01*
X11106729Y-13770960D02*
X11087682Y-13780484D01*
X11087682Y-13780484D02*
X11068634Y-13780484D01*
X11068634Y-13780484D02*
X11049587Y-13770960D01*
X11049587Y-13770960D02*
X11040063Y-13761436D01*
X11040063Y-13761436D02*
X11030539Y-13742388D01*
X11030539Y-13742388D02*
X11021015Y-13704293D01*
X11021015Y-13704293D02*
X11021015Y-13656674D01*
X11021015Y-13656674D02*
X11030539Y-13618579D01*
X11030539Y-13618579D02*
X11040063Y-13599531D01*
X11040063Y-13599531D02*
X11049587Y-13590008D01*
X11049587Y-13590008D02*
X11068634Y-13580484D01*
X11221015Y-13761436D02*
X11230539Y-13770960D01*
X11230539Y-13770960D02*
X11221015Y-13780484D01*
X11221015Y-13780484D02*
X11211491Y-13770960D01*
X11211491Y-13770960D02*
X11221015Y-13761436D01*
X11221015Y-13761436D02*
X11221015Y-13780484D01*
X11354348Y-13580484D02*
X11373396Y-13580484D01*
X11373396Y-13580484D02*
X11392444Y-13590008D01*
X11392444Y-13590008D02*
X11401967Y-13599531D01*
X11401967Y-13599531D02*
X11411491Y-13618579D01*
X11411491Y-13618579D02*
X11421015Y-13656674D01*
X11421015Y-13656674D02*
X11421015Y-13704293D01*
X11421015Y-13704293D02*
X11411491Y-13742388D01*
X11411491Y-13742388D02*
X11401967Y-13761436D01*
X11401967Y-13761436D02*
X11392444Y-13770960D01*
X11392444Y-13770960D02*
X11373396Y-13780484D01*
X11373396Y-13780484D02*
X11354348Y-13780484D01*
X11354348Y-13780484D02*
X11335301Y-13770960D01*
X11335301Y-13770960D02*
X11325777Y-13761436D01*
X11325777Y-13761436D02*
X11316253Y-13742388D01*
X11316253Y-13742388D02*
X11306729Y-13704293D01*
X11306729Y-13704293D02*
X11306729Y-13656674D01*
X11306729Y-13656674D02*
X11316253Y-13618579D01*
X11316253Y-13618579D02*
X11325777Y-13599531D01*
X11325777Y-13599531D02*
X11335301Y-13590008D01*
X11335301Y-13590008D02*
X11354348Y-13580484D01*
X11611491Y-13780484D02*
X11497206Y-13780484D01*
X11554348Y-13780484D02*
X11554348Y-13580484D01*
X11554348Y-13580484D02*
X11535301Y-13609055D01*
X11535301Y-13609055D02*
X11516253Y-13628103D01*
X11516253Y-13628103D02*
X11497206Y-13637627D01*
X11706729Y-13780484D02*
X11744825Y-13780484D01*
X11744825Y-13780484D02*
X11763872Y-13770960D01*
X11763872Y-13770960D02*
X11773396Y-13761436D01*
X11773396Y-13761436D02*
X11792444Y-13732865D01*
X11792444Y-13732865D02*
X11801967Y-13694769D01*
X11801967Y-13694769D02*
X11801967Y-13618579D01*
X11801967Y-13618579D02*
X11792444Y-13599531D01*
X11792444Y-13599531D02*
X11782920Y-13590008D01*
X11782920Y-13590008D02*
X11763872Y-13580484D01*
X11763872Y-13580484D02*
X11725777Y-13580484D01*
X11725777Y-13580484D02*
X11706729Y-13590008D01*
X11706729Y-13590008D02*
X11697206Y-13599531D01*
X11697206Y-13599531D02*
X11687682Y-13618579D01*
X11687682Y-13618579D02*
X11687682Y-13666198D01*
X11687682Y-13666198D02*
X11697206Y-13685246D01*
X11697206Y-13685246D02*
X11706729Y-13694769D01*
X11706729Y-13694769D02*
X11725777Y-13704293D01*
X11725777Y-13704293D02*
X11763872Y-13704293D01*
X11763872Y-13704293D02*
X11782920Y-13694769D01*
X11782920Y-13694769D02*
X11792444Y-13685246D01*
X11792444Y-13685246D02*
X11801967Y-13666198D01*
X11868634Y-13580484D02*
X12001967Y-13580484D01*
X12001967Y-13580484D02*
X11916253Y-13780484D01*
X12068634Y-13580484D02*
X12068634Y-13618579D01*
X12144825Y-13580484D02*
X12144825Y-13618579D01*
X12440063Y-13856674D02*
X12430539Y-13847150D01*
X12430539Y-13847150D02*
X12411491Y-13818579D01*
X12411491Y-13818579D02*
X12401968Y-13799531D01*
X12401968Y-13799531D02*
X12392444Y-13770960D01*
X12392444Y-13770960D02*
X12382920Y-13723341D01*
X12382920Y-13723341D02*
X12382920Y-13685246D01*
X12382920Y-13685246D02*
X12392444Y-13637627D01*
X12392444Y-13637627D02*
X12401968Y-13609055D01*
X12401968Y-13609055D02*
X12411491Y-13590008D01*
X12411491Y-13590008D02*
X12430539Y-13561436D01*
X12430539Y-13561436D02*
X12440063Y-13551912D01*
X12497206Y-13580484D02*
X12630539Y-13580484D01*
X12630539Y-13580484D02*
X12544825Y-13780484D01*
X12859110Y-13780484D02*
X12859110Y-13580484D01*
X12944825Y-13780484D02*
X12944825Y-13675722D01*
X12944825Y-13675722D02*
X12935301Y-13656674D01*
X12935301Y-13656674D02*
X12916253Y-13647150D01*
X12916253Y-13647150D02*
X12887682Y-13647150D01*
X12887682Y-13647150D02*
X12868634Y-13656674D01*
X12868634Y-13656674D02*
X12859110Y-13666198D01*
X13068634Y-13780484D02*
X13049587Y-13770960D01*
X13049587Y-13770960D02*
X13040063Y-13761436D01*
X13040063Y-13761436D02*
X13030539Y-13742388D01*
X13030539Y-13742388D02*
X13030539Y-13685246D01*
X13030539Y-13685246D02*
X13040063Y-13666198D01*
X13040063Y-13666198D02*
X13049587Y-13656674D01*
X13049587Y-13656674D02*
X13068634Y-13647150D01*
X13068634Y-13647150D02*
X13097206Y-13647150D01*
X13097206Y-13647150D02*
X13116253Y-13656674D01*
X13116253Y-13656674D02*
X13125777Y-13666198D01*
X13125777Y-13666198D02*
X13135301Y-13685246D01*
X13135301Y-13685246D02*
X13135301Y-13742388D01*
X13135301Y-13742388D02*
X13125777Y-13761436D01*
X13125777Y-13761436D02*
X13116253Y-13770960D01*
X13116253Y-13770960D02*
X13097206Y-13780484D01*
X13097206Y-13780484D02*
X13068634Y-13780484D01*
X13249587Y-13780484D02*
X13230539Y-13770960D01*
X13230539Y-13770960D02*
X13221015Y-13751912D01*
X13221015Y-13751912D02*
X13221015Y-13580484D01*
X13401968Y-13770960D02*
X13382920Y-13780484D01*
X13382920Y-13780484D02*
X13344825Y-13780484D01*
X13344825Y-13780484D02*
X13325777Y-13770960D01*
X13325777Y-13770960D02*
X13316253Y-13751912D01*
X13316253Y-13751912D02*
X13316253Y-13675722D01*
X13316253Y-13675722D02*
X13325777Y-13656674D01*
X13325777Y-13656674D02*
X13344825Y-13647150D01*
X13344825Y-13647150D02*
X13382920Y-13647150D01*
X13382920Y-13647150D02*
X13401968Y-13656674D01*
X13401968Y-13656674D02*
X13411491Y-13675722D01*
X13411491Y-13675722D02*
X13411491Y-13694769D01*
X13411491Y-13694769D02*
X13316253Y-13713817D01*
X13487682Y-13770960D02*
X13506730Y-13780484D01*
X13506730Y-13780484D02*
X13544825Y-13780484D01*
X13544825Y-13780484D02*
X13563872Y-13770960D01*
X13563872Y-13770960D02*
X13573396Y-13751912D01*
X13573396Y-13751912D02*
X13573396Y-13742388D01*
X13573396Y-13742388D02*
X13563872Y-13723341D01*
X13563872Y-13723341D02*
X13544825Y-13713817D01*
X13544825Y-13713817D02*
X13516253Y-13713817D01*
X13516253Y-13713817D02*
X13497206Y-13704293D01*
X13497206Y-13704293D02*
X13487682Y-13685246D01*
X13487682Y-13685246D02*
X13487682Y-13675722D01*
X13487682Y-13675722D02*
X13497206Y-13656674D01*
X13497206Y-13656674D02*
X13516253Y-13647150D01*
X13516253Y-13647150D02*
X13544825Y-13647150D01*
X13544825Y-13647150D02*
X13563872Y-13656674D01*
X13640063Y-13856674D02*
X13649587Y-13847150D01*
X13649587Y-13847150D02*
X13668634Y-13818579D01*
X13668634Y-13818579D02*
X13678158Y-13799531D01*
X13678158Y-13799531D02*
X13687682Y-13770960D01*
X13687682Y-13770960D02*
X13697206Y-13723341D01*
X13697206Y-13723341D02*
X13697206Y-13685246D01*
X13697206Y-13685246D02*
X13687682Y-13637627D01*
X13687682Y-13637627D02*
X13678158Y-13609055D01*
X13678158Y-13609055D02*
X13668634Y-13590008D01*
X13668634Y-13590008D02*
X13649587Y-13561436D01*
X13649587Y-13561436D02*
X13640063Y-13551912D01*
D10*
X8825000Y-13913000D02*
X8825000Y-13993000D01*
X8785000Y-13953000D02*
X8865000Y-13953000D01*
D11*
X9163872Y-13844484D02*
X9182920Y-13844484D01*
X9182920Y-13844484D02*
X9201967Y-13854008D01*
X9201967Y-13854008D02*
X9211491Y-13863531D01*
X9211491Y-13863531D02*
X9221015Y-13882579D01*
X9221015Y-13882579D02*
X9230539Y-13920674D01*
X9230539Y-13920674D02*
X9230539Y-13968293D01*
X9230539Y-13968293D02*
X9221015Y-14006388D01*
X9221015Y-14006388D02*
X9211491Y-14025436D01*
X9211491Y-14025436D02*
X9201967Y-14034960D01*
X9201967Y-14034960D02*
X9182920Y-14044484D01*
X9182920Y-14044484D02*
X9163872Y-14044484D01*
X9163872Y-14044484D02*
X9144824Y-14034960D01*
X9144824Y-14034960D02*
X9135301Y-14025436D01*
X9135301Y-14025436D02*
X9125777Y-14006388D01*
X9125777Y-14006388D02*
X9116253Y-13968293D01*
X9116253Y-13968293D02*
X9116253Y-13920674D01*
X9116253Y-13920674D02*
X9125777Y-13882579D01*
X9125777Y-13882579D02*
X9135301Y-13863531D01*
X9135301Y-13863531D02*
X9144824Y-13854008D01*
X9144824Y-13854008D02*
X9163872Y-13844484D01*
X9316253Y-14025436D02*
X9325777Y-14034960D01*
X9325777Y-14034960D02*
X9316253Y-14044484D01*
X9316253Y-14044484D02*
X9306729Y-14034960D01*
X9306729Y-14034960D02*
X9316253Y-14025436D01*
X9316253Y-14025436D02*
X9316253Y-14044484D01*
X9440063Y-13930198D02*
X9421015Y-13920674D01*
X9421015Y-13920674D02*
X9411491Y-13911150D01*
X9411491Y-13911150D02*
X9401967Y-13892103D01*
X9401967Y-13892103D02*
X9401967Y-13882579D01*
X9401967Y-13882579D02*
X9411491Y-13863531D01*
X9411491Y-13863531D02*
X9421015Y-13854008D01*
X9421015Y-13854008D02*
X9440063Y-13844484D01*
X9440063Y-13844484D02*
X9478158Y-13844484D01*
X9478158Y-13844484D02*
X9497205Y-13854008D01*
X9497205Y-13854008D02*
X9506729Y-13863531D01*
X9506729Y-13863531D02*
X9516253Y-13882579D01*
X9516253Y-13882579D02*
X9516253Y-13892103D01*
X9516253Y-13892103D02*
X9506729Y-13911150D01*
X9506729Y-13911150D02*
X9497205Y-13920674D01*
X9497205Y-13920674D02*
X9478158Y-13930198D01*
X9478158Y-13930198D02*
X9440063Y-13930198D01*
X9440063Y-13930198D02*
X9421015Y-13939722D01*
X9421015Y-13939722D02*
X9411491Y-13949246D01*
X9411491Y-13949246D02*
X9401967Y-13968293D01*
X9401967Y-13968293D02*
X9401967Y-14006388D01*
X9401967Y-14006388D02*
X9411491Y-14025436D01*
X9411491Y-14025436D02*
X9421015Y-14034960D01*
X9421015Y-14034960D02*
X9440063Y-14044484D01*
X9440063Y-14044484D02*
X9478158Y-14044484D01*
X9478158Y-14044484D02*
X9497205Y-14034960D01*
X9497205Y-14034960D02*
X9506729Y-14025436D01*
X9506729Y-14025436D02*
X9516253Y-14006388D01*
X9516253Y-14006388D02*
X9516253Y-13968293D01*
X9516253Y-13968293D02*
X9506729Y-13949246D01*
X9506729Y-13949246D02*
X9497205Y-13939722D01*
X9497205Y-13939722D02*
X9478158Y-13930198D01*
X9640063Y-13844484D02*
X9659110Y-13844484D01*
X9659110Y-13844484D02*
X9678158Y-13854008D01*
X9678158Y-13854008D02*
X9687682Y-13863531D01*
X9687682Y-13863531D02*
X9697205Y-13882579D01*
X9697205Y-13882579D02*
X9706729Y-13920674D01*
X9706729Y-13920674D02*
X9706729Y-13968293D01*
X9706729Y-13968293D02*
X9697205Y-14006388D01*
X9697205Y-14006388D02*
X9687682Y-14025436D01*
X9687682Y-14025436D02*
X9678158Y-14034960D01*
X9678158Y-14034960D02*
X9659110Y-14044484D01*
X9659110Y-14044484D02*
X9640063Y-14044484D01*
X9640063Y-14044484D02*
X9621015Y-14034960D01*
X9621015Y-14034960D02*
X9611491Y-14025436D01*
X9611491Y-14025436D02*
X9601967Y-14006388D01*
X9601967Y-14006388D02*
X9592444Y-13968293D01*
X9592444Y-13968293D02*
X9592444Y-13920674D01*
X9592444Y-13920674D02*
X9601967Y-13882579D01*
X9601967Y-13882579D02*
X9611491Y-13863531D01*
X9611491Y-13863531D02*
X9621015Y-13854008D01*
X9621015Y-13854008D02*
X9640063Y-13844484D01*
X9830539Y-13844484D02*
X9849586Y-13844484D01*
X9849586Y-13844484D02*
X9868634Y-13854008D01*
X9868634Y-13854008D02*
X9878158Y-13863531D01*
X9878158Y-13863531D02*
X9887682Y-13882579D01*
X9887682Y-13882579D02*
X9897205Y-13920674D01*
X9897205Y-13920674D02*
X9897205Y-13968293D01*
X9897205Y-13968293D02*
X9887682Y-14006388D01*
X9887682Y-14006388D02*
X9878158Y-14025436D01*
X9878158Y-14025436D02*
X9868634Y-14034960D01*
X9868634Y-14034960D02*
X9849586Y-14044484D01*
X9849586Y-14044484D02*
X9830539Y-14044484D01*
X9830539Y-14044484D02*
X9811491Y-14034960D01*
X9811491Y-14034960D02*
X9801967Y-14025436D01*
X9801967Y-14025436D02*
X9792444Y-14006388D01*
X9792444Y-14006388D02*
X9782920Y-13968293D01*
X9782920Y-13968293D02*
X9782920Y-13920674D01*
X9782920Y-13920674D02*
X9792444Y-13882579D01*
X9792444Y-13882579D02*
X9801967Y-13863531D01*
X9801967Y-13863531D02*
X9811491Y-13854008D01*
X9811491Y-13854008D02*
X9830539Y-13844484D01*
X9982920Y-14044484D02*
X9982920Y-13911150D01*
X9982920Y-13930198D02*
X9992444Y-13920674D01*
X9992444Y-13920674D02*
X10011491Y-13911150D01*
X10011491Y-13911150D02*
X10040063Y-13911150D01*
X10040063Y-13911150D02*
X10059110Y-13920674D01*
X10059110Y-13920674D02*
X10068634Y-13939722D01*
X10068634Y-13939722D02*
X10068634Y-14044484D01*
X10068634Y-13939722D02*
X10078158Y-13920674D01*
X10078158Y-13920674D02*
X10097205Y-13911150D01*
X10097205Y-13911150D02*
X10125777Y-13911150D01*
X10125777Y-13911150D02*
X10144825Y-13920674D01*
X10144825Y-13920674D02*
X10154348Y-13939722D01*
X10154348Y-13939722D02*
X10154348Y-14044484D01*
X10249586Y-14044484D02*
X10249586Y-13911150D01*
X10249586Y-13930198D02*
X10259110Y-13920674D01*
X10259110Y-13920674D02*
X10278158Y-13911150D01*
X10278158Y-13911150D02*
X10306729Y-13911150D01*
X10306729Y-13911150D02*
X10325777Y-13920674D01*
X10325777Y-13920674D02*
X10335301Y-13939722D01*
X10335301Y-13939722D02*
X10335301Y-14044484D01*
X10335301Y-13939722D02*
X10344825Y-13920674D01*
X10344825Y-13920674D02*
X10363872Y-13911150D01*
X10363872Y-13911150D02*
X10392444Y-13911150D01*
X10392444Y-13911150D02*
X10411491Y-13920674D01*
X10411491Y-13920674D02*
X10421015Y-13939722D01*
X10421015Y-13939722D02*
X10421015Y-14044484D01*
X10811491Y-13834960D02*
X10640063Y-14092103D01*
X11068634Y-13844484D02*
X11087682Y-13844484D01*
X11087682Y-13844484D02*
X11106729Y-13854008D01*
X11106729Y-13854008D02*
X11116253Y-13863531D01*
X11116253Y-13863531D02*
X11125777Y-13882579D01*
X11125777Y-13882579D02*
X11135301Y-13920674D01*
X11135301Y-13920674D02*
X11135301Y-13968293D01*
X11135301Y-13968293D02*
X11125777Y-14006388D01*
X11125777Y-14006388D02*
X11116253Y-14025436D01*
X11116253Y-14025436D02*
X11106729Y-14034960D01*
X11106729Y-14034960D02*
X11087682Y-14044484D01*
X11087682Y-14044484D02*
X11068634Y-14044484D01*
X11068634Y-14044484D02*
X11049587Y-14034960D01*
X11049587Y-14034960D02*
X11040063Y-14025436D01*
X11040063Y-14025436D02*
X11030539Y-14006388D01*
X11030539Y-14006388D02*
X11021015Y-13968293D01*
X11021015Y-13968293D02*
X11021015Y-13920674D01*
X11021015Y-13920674D02*
X11030539Y-13882579D01*
X11030539Y-13882579D02*
X11040063Y-13863531D01*
X11040063Y-13863531D02*
X11049587Y-13854008D01*
X11049587Y-13854008D02*
X11068634Y-13844484D01*
X11221015Y-14025436D02*
X11230539Y-14034960D01*
X11230539Y-14034960D02*
X11221015Y-14044484D01*
X11221015Y-14044484D02*
X11211491Y-14034960D01*
X11211491Y-14034960D02*
X11221015Y-14025436D01*
X11221015Y-14025436D02*
X11221015Y-14044484D01*
X11354348Y-13844484D02*
X11373396Y-13844484D01*
X11373396Y-13844484D02*
X11392444Y-13854008D01*
X11392444Y-13854008D02*
X11401967Y-13863531D01*
X11401967Y-13863531D02*
X11411491Y-13882579D01*
X11411491Y-13882579D02*
X11421015Y-13920674D01*
X11421015Y-13920674D02*
X11421015Y-13968293D01*
X11421015Y-13968293D02*
X11411491Y-14006388D01*
X11411491Y-14006388D02*
X11401967Y-14025436D01*
X11401967Y-14025436D02*
X11392444Y-14034960D01*
X11392444Y-14034960D02*
X11373396Y-14044484D01*
X11373396Y-14044484D02*
X11354348Y-14044484D01*
X11354348Y-14044484D02*
X11335301Y-14034960D01*
X11335301Y-14034960D02*
X11325777Y-14025436D01*
X11325777Y-14025436D02*
X11316253Y-14006388D01*
X11316253Y-14006388D02*
X11306729Y-13968293D01*
X11306729Y-13968293D02*
X11306729Y-13920674D01*
X11306729Y-13920674D02*
X11316253Y-13882579D01*
X11316253Y-13882579D02*
X11325777Y-13863531D01*
X11325777Y-13863531D02*
X11335301Y-13854008D01*
X11335301Y-13854008D02*
X11354348Y-13844484D01*
X11487682Y-13844484D02*
X11611491Y-13844484D01*
X11611491Y-13844484D02*
X11544825Y-13920674D01*
X11544825Y-13920674D02*
X11573396Y-13920674D01*
X11573396Y-13920674D02*
X11592444Y-13930198D01*
X11592444Y-13930198D02*
X11601967Y-13939722D01*
X11601967Y-13939722D02*
X11611491Y-13958769D01*
X11611491Y-13958769D02*
X11611491Y-14006388D01*
X11611491Y-14006388D02*
X11601967Y-14025436D01*
X11601967Y-14025436D02*
X11592444Y-14034960D01*
X11592444Y-14034960D02*
X11573396Y-14044484D01*
X11573396Y-14044484D02*
X11516253Y-14044484D01*
X11516253Y-14044484D02*
X11497206Y-14034960D01*
X11497206Y-14034960D02*
X11487682Y-14025436D01*
X11801967Y-14044484D02*
X11687682Y-14044484D01*
X11744825Y-14044484D02*
X11744825Y-13844484D01*
X11744825Y-13844484D02*
X11725777Y-13873055D01*
X11725777Y-13873055D02*
X11706729Y-13892103D01*
X11706729Y-13892103D02*
X11687682Y-13901627D01*
X11982920Y-13844484D02*
X11887682Y-13844484D01*
X11887682Y-13844484D02*
X11878158Y-13939722D01*
X11878158Y-13939722D02*
X11887682Y-13930198D01*
X11887682Y-13930198D02*
X11906729Y-13920674D01*
X11906729Y-13920674D02*
X11954348Y-13920674D01*
X11954348Y-13920674D02*
X11973396Y-13930198D01*
X11973396Y-13930198D02*
X11982920Y-13939722D01*
X11982920Y-13939722D02*
X11992444Y-13958769D01*
X11992444Y-13958769D02*
X11992444Y-14006388D01*
X11992444Y-14006388D02*
X11982920Y-14025436D01*
X11982920Y-14025436D02*
X11973396Y-14034960D01*
X11973396Y-14034960D02*
X11954348Y-14044484D01*
X11954348Y-14044484D02*
X11906729Y-14044484D01*
X11906729Y-14044484D02*
X11887682Y-14034960D01*
X11887682Y-14034960D02*
X11878158Y-14025436D01*
X12068634Y-13844484D02*
X12068634Y-13882579D01*
X12144825Y-13844484D02*
X12144825Y-13882579D01*
X12440063Y-14120674D02*
X12430539Y-14111150D01*
X12430539Y-14111150D02*
X12411491Y-14082579D01*
X12411491Y-14082579D02*
X12401968Y-14063531D01*
X12401968Y-14063531D02*
X12392444Y-14034960D01*
X12392444Y-14034960D02*
X12382920Y-13987341D01*
X12382920Y-13987341D02*
X12382920Y-13949246D01*
X12382920Y-13949246D02*
X12392444Y-13901627D01*
X12392444Y-13901627D02*
X12401968Y-13873055D01*
X12401968Y-13873055D02*
X12411491Y-13854008D01*
X12411491Y-13854008D02*
X12430539Y-13825436D01*
X12430539Y-13825436D02*
X12440063Y-13815912D01*
X12601968Y-13911150D02*
X12601968Y-14044484D01*
X12554348Y-13834960D02*
X12506729Y-13977817D01*
X12506729Y-13977817D02*
X12630539Y-13977817D01*
X12859110Y-14044484D02*
X12859110Y-13844484D01*
X12944825Y-14044484D02*
X12944825Y-13939722D01*
X12944825Y-13939722D02*
X12935301Y-13920674D01*
X12935301Y-13920674D02*
X12916253Y-13911150D01*
X12916253Y-13911150D02*
X12887682Y-13911150D01*
X12887682Y-13911150D02*
X12868634Y-13920674D01*
X12868634Y-13920674D02*
X12859110Y-13930198D01*
X13068634Y-14044484D02*
X13049587Y-14034960D01*
X13049587Y-14034960D02*
X13040063Y-14025436D01*
X13040063Y-14025436D02*
X13030539Y-14006388D01*
X13030539Y-14006388D02*
X13030539Y-13949246D01*
X13030539Y-13949246D02*
X13040063Y-13930198D01*
X13040063Y-13930198D02*
X13049587Y-13920674D01*
X13049587Y-13920674D02*
X13068634Y-13911150D01*
X13068634Y-13911150D02*
X13097206Y-13911150D01*
X13097206Y-13911150D02*
X13116253Y-13920674D01*
X13116253Y-13920674D02*
X13125777Y-13930198D01*
X13125777Y-13930198D02*
X13135301Y-13949246D01*
X13135301Y-13949246D02*
X13135301Y-14006388D01*
X13135301Y-14006388D02*
X13125777Y-14025436D01*
X13125777Y-14025436D02*
X13116253Y-14034960D01*
X13116253Y-14034960D02*
X13097206Y-14044484D01*
X13097206Y-14044484D02*
X13068634Y-14044484D01*
X13249587Y-14044484D02*
X13230539Y-14034960D01*
X13230539Y-14034960D02*
X13221015Y-14015912D01*
X13221015Y-14015912D02*
X13221015Y-13844484D01*
X13401968Y-14034960D02*
X13382920Y-14044484D01*
X13382920Y-14044484D02*
X13344825Y-14044484D01*
X13344825Y-14044484D02*
X13325777Y-14034960D01*
X13325777Y-14034960D02*
X13316253Y-14015912D01*
X13316253Y-14015912D02*
X13316253Y-13939722D01*
X13316253Y-13939722D02*
X13325777Y-13920674D01*
X13325777Y-13920674D02*
X13344825Y-13911150D01*
X13344825Y-13911150D02*
X13382920Y-13911150D01*
X13382920Y-13911150D02*
X13401968Y-13920674D01*
X13401968Y-13920674D02*
X13411491Y-13939722D01*
X13411491Y-13939722D02*
X13411491Y-13958769D01*
X13411491Y-13958769D02*
X13316253Y-13977817D01*
X13487682Y-14034960D02*
X13506730Y-14044484D01*
X13506730Y-14044484D02*
X13544825Y-14044484D01*
X13544825Y-14044484D02*
X13563872Y-14034960D01*
X13563872Y-14034960D02*
X13573396Y-14015912D01*
X13573396Y-14015912D02*
X13573396Y-14006388D01*
X13573396Y-14006388D02*
X13563872Y-13987341D01*
X13563872Y-13987341D02*
X13544825Y-13977817D01*
X13544825Y-13977817D02*
X13516253Y-13977817D01*
X13516253Y-13977817D02*
X13497206Y-13968293D01*
X13497206Y-13968293D02*
X13487682Y-13949246D01*
X13487682Y-13949246D02*
X13487682Y-13939722D01*
X13487682Y-13939722D02*
X13497206Y-13920674D01*
X13497206Y-13920674D02*
X13516253Y-13911150D01*
X13516253Y-13911150D02*
X13544825Y-13911150D01*
X13544825Y-13911150D02*
X13563872Y-13920674D01*
X13640063Y-14120674D02*
X13649587Y-14111150D01*
X13649587Y-14111150D02*
X13668634Y-14082579D01*
X13668634Y-14082579D02*
X13678158Y-14063531D01*
X13678158Y-14063531D02*
X13687682Y-14034960D01*
X13687682Y-14034960D02*
X13697206Y-13987341D01*
X13697206Y-13987341D02*
X13697206Y-13949246D01*
X13697206Y-13949246D02*
X13687682Y-13901627D01*
X13687682Y-13901627D02*
X13678158Y-13873055D01*
X13678158Y-13873055D02*
X13668634Y-13854008D01*
X13668634Y-13854008D02*
X13649587Y-13825436D01*
X13649587Y-13825436D02*
X13640063Y-13815912D01*
D10*
X8851981Y-14248431D02*
X8851981Y-14185569D01*
X8789119Y-14185569D01*
X8789119Y-14248431D01*
X8851981Y-14248431D01*
D11*
X9163872Y-14108484D02*
X9182920Y-14108484D01*
X9182920Y-14108484D02*
X9201967Y-14118008D01*
X9201967Y-14118008D02*
X9211491Y-14127531D01*
X9211491Y-14127531D02*
X9221015Y-14146579D01*
X9221015Y-14146579D02*
X9230539Y-14184674D01*
X9230539Y-14184674D02*
X9230539Y-14232293D01*
X9230539Y-14232293D02*
X9221015Y-14270388D01*
X9221015Y-14270388D02*
X9211491Y-14289436D01*
X9211491Y-14289436D02*
X9201967Y-14298960D01*
X9201967Y-14298960D02*
X9182920Y-14308484D01*
X9182920Y-14308484D02*
X9163872Y-14308484D01*
X9163872Y-14308484D02*
X9144824Y-14298960D01*
X9144824Y-14298960D02*
X9135301Y-14289436D01*
X9135301Y-14289436D02*
X9125777Y-14270388D01*
X9125777Y-14270388D02*
X9116253Y-14232293D01*
X9116253Y-14232293D02*
X9116253Y-14184674D01*
X9116253Y-14184674D02*
X9125777Y-14146579D01*
X9125777Y-14146579D02*
X9135301Y-14127531D01*
X9135301Y-14127531D02*
X9144824Y-14118008D01*
X9144824Y-14118008D02*
X9163872Y-14108484D01*
X9316253Y-14289436D02*
X9325777Y-14298960D01*
X9325777Y-14298960D02*
X9316253Y-14308484D01*
X9316253Y-14308484D02*
X9306729Y-14298960D01*
X9306729Y-14298960D02*
X9316253Y-14289436D01*
X9316253Y-14289436D02*
X9316253Y-14308484D01*
X9440063Y-14194198D02*
X9421015Y-14184674D01*
X9421015Y-14184674D02*
X9411491Y-14175150D01*
X9411491Y-14175150D02*
X9401967Y-14156103D01*
X9401967Y-14156103D02*
X9401967Y-14146579D01*
X9401967Y-14146579D02*
X9411491Y-14127531D01*
X9411491Y-14127531D02*
X9421015Y-14118008D01*
X9421015Y-14118008D02*
X9440063Y-14108484D01*
X9440063Y-14108484D02*
X9478158Y-14108484D01*
X9478158Y-14108484D02*
X9497205Y-14118008D01*
X9497205Y-14118008D02*
X9506729Y-14127531D01*
X9506729Y-14127531D02*
X9516253Y-14146579D01*
X9516253Y-14146579D02*
X9516253Y-14156103D01*
X9516253Y-14156103D02*
X9506729Y-14175150D01*
X9506729Y-14175150D02*
X9497205Y-14184674D01*
X9497205Y-14184674D02*
X9478158Y-14194198D01*
X9478158Y-14194198D02*
X9440063Y-14194198D01*
X9440063Y-14194198D02*
X9421015Y-14203722D01*
X9421015Y-14203722D02*
X9411491Y-14213246D01*
X9411491Y-14213246D02*
X9401967Y-14232293D01*
X9401967Y-14232293D02*
X9401967Y-14270388D01*
X9401967Y-14270388D02*
X9411491Y-14289436D01*
X9411491Y-14289436D02*
X9421015Y-14298960D01*
X9421015Y-14298960D02*
X9440063Y-14308484D01*
X9440063Y-14308484D02*
X9478158Y-14308484D01*
X9478158Y-14308484D02*
X9497205Y-14298960D01*
X9497205Y-14298960D02*
X9506729Y-14289436D01*
X9506729Y-14289436D02*
X9516253Y-14270388D01*
X9516253Y-14270388D02*
X9516253Y-14232293D01*
X9516253Y-14232293D02*
X9506729Y-14213246D01*
X9506729Y-14213246D02*
X9497205Y-14203722D01*
X9497205Y-14203722D02*
X9478158Y-14194198D01*
X9630539Y-14194198D02*
X9611491Y-14184674D01*
X9611491Y-14184674D02*
X9601967Y-14175150D01*
X9601967Y-14175150D02*
X9592444Y-14156103D01*
X9592444Y-14156103D02*
X9592444Y-14146579D01*
X9592444Y-14146579D02*
X9601967Y-14127531D01*
X9601967Y-14127531D02*
X9611491Y-14118008D01*
X9611491Y-14118008D02*
X9630539Y-14108484D01*
X9630539Y-14108484D02*
X9668634Y-14108484D01*
X9668634Y-14108484D02*
X9687682Y-14118008D01*
X9687682Y-14118008D02*
X9697205Y-14127531D01*
X9697205Y-14127531D02*
X9706729Y-14146579D01*
X9706729Y-14146579D02*
X9706729Y-14156103D01*
X9706729Y-14156103D02*
X9697205Y-14175150D01*
X9697205Y-14175150D02*
X9687682Y-14184674D01*
X9687682Y-14184674D02*
X9668634Y-14194198D01*
X9668634Y-14194198D02*
X9630539Y-14194198D01*
X9630539Y-14194198D02*
X9611491Y-14203722D01*
X9611491Y-14203722D02*
X9601967Y-14213246D01*
X9601967Y-14213246D02*
X9592444Y-14232293D01*
X9592444Y-14232293D02*
X9592444Y-14270388D01*
X9592444Y-14270388D02*
X9601967Y-14289436D01*
X9601967Y-14289436D02*
X9611491Y-14298960D01*
X9611491Y-14298960D02*
X9630539Y-14308484D01*
X9630539Y-14308484D02*
X9668634Y-14308484D01*
X9668634Y-14308484D02*
X9687682Y-14298960D01*
X9687682Y-14298960D02*
X9697205Y-14289436D01*
X9697205Y-14289436D02*
X9706729Y-14270388D01*
X9706729Y-14270388D02*
X9706729Y-14232293D01*
X9706729Y-14232293D02*
X9697205Y-14213246D01*
X9697205Y-14213246D02*
X9687682Y-14203722D01*
X9687682Y-14203722D02*
X9668634Y-14194198D01*
X9801967Y-14308484D02*
X9840063Y-14308484D01*
X9840063Y-14308484D02*
X9859110Y-14298960D01*
X9859110Y-14298960D02*
X9868634Y-14289436D01*
X9868634Y-14289436D02*
X9887682Y-14260865D01*
X9887682Y-14260865D02*
X9897205Y-14222769D01*
X9897205Y-14222769D02*
X9897205Y-14146579D01*
X9897205Y-14146579D02*
X9887682Y-14127531D01*
X9887682Y-14127531D02*
X9878158Y-14118008D01*
X9878158Y-14118008D02*
X9859110Y-14108484D01*
X9859110Y-14108484D02*
X9821015Y-14108484D01*
X9821015Y-14108484D02*
X9801967Y-14118008D01*
X9801967Y-14118008D02*
X9792444Y-14127531D01*
X9792444Y-14127531D02*
X9782920Y-14146579D01*
X9782920Y-14146579D02*
X9782920Y-14194198D01*
X9782920Y-14194198D02*
X9792444Y-14213246D01*
X9792444Y-14213246D02*
X9801967Y-14222769D01*
X9801967Y-14222769D02*
X9821015Y-14232293D01*
X9821015Y-14232293D02*
X9859110Y-14232293D01*
X9859110Y-14232293D02*
X9878158Y-14222769D01*
X9878158Y-14222769D02*
X9887682Y-14213246D01*
X9887682Y-14213246D02*
X9897205Y-14194198D01*
X9982920Y-14308484D02*
X9982920Y-14175150D01*
X9982920Y-14194198D02*
X9992444Y-14184674D01*
X9992444Y-14184674D02*
X10011491Y-14175150D01*
X10011491Y-14175150D02*
X10040063Y-14175150D01*
X10040063Y-14175150D02*
X10059110Y-14184674D01*
X10059110Y-14184674D02*
X10068634Y-14203722D01*
X10068634Y-14203722D02*
X10068634Y-14308484D01*
X10068634Y-14203722D02*
X10078158Y-14184674D01*
X10078158Y-14184674D02*
X10097205Y-14175150D01*
X10097205Y-14175150D02*
X10125777Y-14175150D01*
X10125777Y-14175150D02*
X10144825Y-14184674D01*
X10144825Y-14184674D02*
X10154348Y-14203722D01*
X10154348Y-14203722D02*
X10154348Y-14308484D01*
X10249586Y-14308484D02*
X10249586Y-14175150D01*
X10249586Y-14194198D02*
X10259110Y-14184674D01*
X10259110Y-14184674D02*
X10278158Y-14175150D01*
X10278158Y-14175150D02*
X10306729Y-14175150D01*
X10306729Y-14175150D02*
X10325777Y-14184674D01*
X10325777Y-14184674D02*
X10335301Y-14203722D01*
X10335301Y-14203722D02*
X10335301Y-14308484D01*
X10335301Y-14203722D02*
X10344825Y-14184674D01*
X10344825Y-14184674D02*
X10363872Y-14175150D01*
X10363872Y-14175150D02*
X10392444Y-14175150D01*
X10392444Y-14175150D02*
X10411491Y-14184674D01*
X10411491Y-14184674D02*
X10421015Y-14203722D01*
X10421015Y-14203722D02*
X10421015Y-14308484D01*
X10811491Y-14098960D02*
X10640063Y-14356103D01*
X11068634Y-14108484D02*
X11087682Y-14108484D01*
X11087682Y-14108484D02*
X11106729Y-14118008D01*
X11106729Y-14118008D02*
X11116253Y-14127531D01*
X11116253Y-14127531D02*
X11125777Y-14146579D01*
X11125777Y-14146579D02*
X11135301Y-14184674D01*
X11135301Y-14184674D02*
X11135301Y-14232293D01*
X11135301Y-14232293D02*
X11125777Y-14270388D01*
X11125777Y-14270388D02*
X11116253Y-14289436D01*
X11116253Y-14289436D02*
X11106729Y-14298960D01*
X11106729Y-14298960D02*
X11087682Y-14308484D01*
X11087682Y-14308484D02*
X11068634Y-14308484D01*
X11068634Y-14308484D02*
X11049587Y-14298960D01*
X11049587Y-14298960D02*
X11040063Y-14289436D01*
X11040063Y-14289436D02*
X11030539Y-14270388D01*
X11030539Y-14270388D02*
X11021015Y-14232293D01*
X11021015Y-14232293D02*
X11021015Y-14184674D01*
X11021015Y-14184674D02*
X11030539Y-14146579D01*
X11030539Y-14146579D02*
X11040063Y-14127531D01*
X11040063Y-14127531D02*
X11049587Y-14118008D01*
X11049587Y-14118008D02*
X11068634Y-14108484D01*
X11221015Y-14289436D02*
X11230539Y-14298960D01*
X11230539Y-14298960D02*
X11221015Y-14308484D01*
X11221015Y-14308484D02*
X11211491Y-14298960D01*
X11211491Y-14298960D02*
X11221015Y-14289436D01*
X11221015Y-14289436D02*
X11221015Y-14308484D01*
X11354348Y-14108484D02*
X11373396Y-14108484D01*
X11373396Y-14108484D02*
X11392444Y-14118008D01*
X11392444Y-14118008D02*
X11401967Y-14127531D01*
X11401967Y-14127531D02*
X11411491Y-14146579D01*
X11411491Y-14146579D02*
X11421015Y-14184674D01*
X11421015Y-14184674D02*
X11421015Y-14232293D01*
X11421015Y-14232293D02*
X11411491Y-14270388D01*
X11411491Y-14270388D02*
X11401967Y-14289436D01*
X11401967Y-14289436D02*
X11392444Y-14298960D01*
X11392444Y-14298960D02*
X11373396Y-14308484D01*
X11373396Y-14308484D02*
X11354348Y-14308484D01*
X11354348Y-14308484D02*
X11335301Y-14298960D01*
X11335301Y-14298960D02*
X11325777Y-14289436D01*
X11325777Y-14289436D02*
X11316253Y-14270388D01*
X11316253Y-14270388D02*
X11306729Y-14232293D01*
X11306729Y-14232293D02*
X11306729Y-14184674D01*
X11306729Y-14184674D02*
X11316253Y-14146579D01*
X11316253Y-14146579D02*
X11325777Y-14127531D01*
X11325777Y-14127531D02*
X11335301Y-14118008D01*
X11335301Y-14118008D02*
X11354348Y-14108484D01*
X11487682Y-14108484D02*
X11611491Y-14108484D01*
X11611491Y-14108484D02*
X11544825Y-14184674D01*
X11544825Y-14184674D02*
X11573396Y-14184674D01*
X11573396Y-14184674D02*
X11592444Y-14194198D01*
X11592444Y-14194198D02*
X11601967Y-14203722D01*
X11601967Y-14203722D02*
X11611491Y-14222769D01*
X11611491Y-14222769D02*
X11611491Y-14270388D01*
X11611491Y-14270388D02*
X11601967Y-14289436D01*
X11601967Y-14289436D02*
X11592444Y-14298960D01*
X11592444Y-14298960D02*
X11573396Y-14308484D01*
X11573396Y-14308484D02*
X11516253Y-14308484D01*
X11516253Y-14308484D02*
X11497206Y-14298960D01*
X11497206Y-14298960D02*
X11487682Y-14289436D01*
X11792444Y-14108484D02*
X11697206Y-14108484D01*
X11697206Y-14108484D02*
X11687682Y-14203722D01*
X11687682Y-14203722D02*
X11697206Y-14194198D01*
X11697206Y-14194198D02*
X11716253Y-14184674D01*
X11716253Y-14184674D02*
X11763872Y-14184674D01*
X11763872Y-14184674D02*
X11782920Y-14194198D01*
X11782920Y-14194198D02*
X11792444Y-14203722D01*
X11792444Y-14203722D02*
X11801967Y-14222769D01*
X11801967Y-14222769D02*
X11801967Y-14270388D01*
X11801967Y-14270388D02*
X11792444Y-14289436D01*
X11792444Y-14289436D02*
X11782920Y-14298960D01*
X11782920Y-14298960D02*
X11763872Y-14308484D01*
X11763872Y-14308484D02*
X11716253Y-14308484D01*
X11716253Y-14308484D02*
X11697206Y-14298960D01*
X11697206Y-14298960D02*
X11687682Y-14289436D01*
X11925777Y-14108484D02*
X11944825Y-14108484D01*
X11944825Y-14108484D02*
X11963872Y-14118008D01*
X11963872Y-14118008D02*
X11973396Y-14127531D01*
X11973396Y-14127531D02*
X11982920Y-14146579D01*
X11982920Y-14146579D02*
X11992444Y-14184674D01*
X11992444Y-14184674D02*
X11992444Y-14232293D01*
X11992444Y-14232293D02*
X11982920Y-14270388D01*
X11982920Y-14270388D02*
X11973396Y-14289436D01*
X11973396Y-14289436D02*
X11963872Y-14298960D01*
X11963872Y-14298960D02*
X11944825Y-14308484D01*
X11944825Y-14308484D02*
X11925777Y-14308484D01*
X11925777Y-14308484D02*
X11906729Y-14298960D01*
X11906729Y-14298960D02*
X11897206Y-14289436D01*
X11897206Y-14289436D02*
X11887682Y-14270388D01*
X11887682Y-14270388D02*
X11878158Y-14232293D01*
X11878158Y-14232293D02*
X11878158Y-14184674D01*
X11878158Y-14184674D02*
X11887682Y-14146579D01*
X11887682Y-14146579D02*
X11897206Y-14127531D01*
X11897206Y-14127531D02*
X11906729Y-14118008D01*
X11906729Y-14118008D02*
X11925777Y-14108484D01*
X12068634Y-14108484D02*
X12068634Y-14146579D01*
X12144825Y-14108484D02*
X12144825Y-14146579D01*
X12440063Y-14384674D02*
X12430539Y-14375150D01*
X12430539Y-14375150D02*
X12411491Y-14346579D01*
X12411491Y-14346579D02*
X12401968Y-14327531D01*
X12401968Y-14327531D02*
X12392444Y-14298960D01*
X12392444Y-14298960D02*
X12382920Y-14251341D01*
X12382920Y-14251341D02*
X12382920Y-14213246D01*
X12382920Y-14213246D02*
X12392444Y-14165627D01*
X12392444Y-14165627D02*
X12401968Y-14137055D01*
X12401968Y-14137055D02*
X12411491Y-14118008D01*
X12411491Y-14118008D02*
X12430539Y-14089436D01*
X12430539Y-14089436D02*
X12440063Y-14079912D01*
X12621015Y-14308484D02*
X12506729Y-14308484D01*
X12563872Y-14308484D02*
X12563872Y-14108484D01*
X12563872Y-14108484D02*
X12544825Y-14137055D01*
X12544825Y-14137055D02*
X12525777Y-14156103D01*
X12525777Y-14156103D02*
X12506729Y-14165627D01*
X12697206Y-14127531D02*
X12706729Y-14118008D01*
X12706729Y-14118008D02*
X12725777Y-14108484D01*
X12725777Y-14108484D02*
X12773396Y-14108484D01*
X12773396Y-14108484D02*
X12792444Y-14118008D01*
X12792444Y-14118008D02*
X12801968Y-14127531D01*
X12801968Y-14127531D02*
X12811491Y-14146579D01*
X12811491Y-14146579D02*
X12811491Y-14165627D01*
X12811491Y-14165627D02*
X12801968Y-14194198D01*
X12801968Y-14194198D02*
X12687682Y-14308484D01*
X12687682Y-14308484D02*
X12811491Y-14308484D01*
X13049587Y-14308484D02*
X13049587Y-14108484D01*
X13135301Y-14308484D02*
X13135301Y-14203722D01*
X13135301Y-14203722D02*
X13125777Y-14184674D01*
X13125777Y-14184674D02*
X13106730Y-14175150D01*
X13106730Y-14175150D02*
X13078158Y-14175150D01*
X13078158Y-14175150D02*
X13059110Y-14184674D01*
X13059110Y-14184674D02*
X13049587Y-14194198D01*
X13259110Y-14308484D02*
X13240063Y-14298960D01*
X13240063Y-14298960D02*
X13230539Y-14289436D01*
X13230539Y-14289436D02*
X13221015Y-14270388D01*
X13221015Y-14270388D02*
X13221015Y-14213246D01*
X13221015Y-14213246D02*
X13230539Y-14194198D01*
X13230539Y-14194198D02*
X13240063Y-14184674D01*
X13240063Y-14184674D02*
X13259110Y-14175150D01*
X13259110Y-14175150D02*
X13287682Y-14175150D01*
X13287682Y-14175150D02*
X13306730Y-14184674D01*
X13306730Y-14184674D02*
X13316253Y-14194198D01*
X13316253Y-14194198D02*
X13325777Y-14213246D01*
X13325777Y-14213246D02*
X13325777Y-14270388D01*
X13325777Y-14270388D02*
X13316253Y-14289436D01*
X13316253Y-14289436D02*
X13306730Y-14298960D01*
X13306730Y-14298960D02*
X13287682Y-14308484D01*
X13287682Y-14308484D02*
X13259110Y-14308484D01*
X13440063Y-14308484D02*
X13421015Y-14298960D01*
X13421015Y-14298960D02*
X13411491Y-14279912D01*
X13411491Y-14279912D02*
X13411491Y-14108484D01*
X13592444Y-14298960D02*
X13573396Y-14308484D01*
X13573396Y-14308484D02*
X13535301Y-14308484D01*
X13535301Y-14308484D02*
X13516253Y-14298960D01*
X13516253Y-14298960D02*
X13506730Y-14279912D01*
X13506730Y-14279912D02*
X13506730Y-14203722D01*
X13506730Y-14203722D02*
X13516253Y-14184674D01*
X13516253Y-14184674D02*
X13535301Y-14175150D01*
X13535301Y-14175150D02*
X13573396Y-14175150D01*
X13573396Y-14175150D02*
X13592444Y-14184674D01*
X13592444Y-14184674D02*
X13601968Y-14203722D01*
X13601968Y-14203722D02*
X13601968Y-14222769D01*
X13601968Y-14222769D02*
X13506730Y-14241817D01*
X13678158Y-14298960D02*
X13697206Y-14308484D01*
X13697206Y-14308484D02*
X13735301Y-14308484D01*
X13735301Y-14308484D02*
X13754349Y-14298960D01*
X13754349Y-14298960D02*
X13763872Y-14279912D01*
X13763872Y-14279912D02*
X13763872Y-14270388D01*
X13763872Y-14270388D02*
X13754349Y-14251341D01*
X13754349Y-14251341D02*
X13735301Y-14241817D01*
X13735301Y-14241817D02*
X13706730Y-14241817D01*
X13706730Y-14241817D02*
X13687682Y-14232293D01*
X13687682Y-14232293D02*
X13678158Y-14213246D01*
X13678158Y-14213246D02*
X13678158Y-14203722D01*
X13678158Y-14203722D02*
X13687682Y-14184674D01*
X13687682Y-14184674D02*
X13706730Y-14175150D01*
X13706730Y-14175150D02*
X13735301Y-14175150D01*
X13735301Y-14175150D02*
X13754349Y-14184674D01*
X13830539Y-14384674D02*
X13840063Y-14375150D01*
X13840063Y-14375150D02*
X13859111Y-14346579D01*
X13859111Y-14346579D02*
X13868634Y-14327531D01*
X13868634Y-14327531D02*
X13878158Y-14298960D01*
X13878158Y-14298960D02*
X13887682Y-14251341D01*
X13887682Y-14251341D02*
X13887682Y-14213246D01*
X13887682Y-14213246D02*
X13878158Y-14165627D01*
X13878158Y-14165627D02*
X13868634Y-14137055D01*
X13868634Y-14137055D02*
X13859111Y-14118008D01*
X13859111Y-14118008D02*
X13840063Y-14089436D01*
X13840063Y-14089436D02*
X13830539Y-14079912D01*
M02*
