G04 #@! TF.GenerationSoftware,KiCad,Pcbnew,8.0.1*
G04 #@! TF.CreationDate,2024-04-17T20:24:04+03:00*
G04 #@! TF.ProjectId,Daughterboard,44617567-6874-4657-9262-6f6172642e6b,rev?*
G04 #@! TF.SameCoordinates,Original*
G04 #@! TF.FileFunction,Soldermask,Top*
G04 #@! TF.FilePolarity,Negative*
%FSLAX46Y46*%
G04 Gerber Fmt 4.6, Leading zero omitted, Abs format (unit mm)*
G04 Created by KiCad (PCBNEW 8.0.1) date 2024-04-17 20:24:04*
%MOMM*%
%LPD*%
G01*
G04 APERTURE LIST*
G04 Aperture macros list*
%AMRoundRect*
0 Rectangle with rounded corners*
0 $1 Rounding radius*
0 $2 $3 $4 $5 $6 $7 $8 $9 X,Y pos of 4 corners*
0 Add a 4 corners polygon primitive as box body*
4,1,4,$2,$3,$4,$5,$6,$7,$8,$9,$2,$3,0*
0 Add four circle primitives for the rounded corners*
1,1,$1+$1,$2,$3*
1,1,$1+$1,$4,$5*
1,1,$1+$1,$6,$7*
1,1,$1+$1,$8,$9*
0 Add four rect primitives between the rounded corners*
20,1,$1+$1,$2,$3,$4,$5,0*
20,1,$1+$1,$4,$5,$6,$7,0*
20,1,$1+$1,$6,$7,$8,$9,0*
20,1,$1+$1,$8,$9,$2,$3,0*%
%AMOutline5P*
0 Free polygon, 5 corners , with rotation*
0 The origin of the aperture is its center*
0 number of corners: always 5*
0 $1 to $10 corner X, Y*
0 $11 Rotation angle, in degrees counterclockwise*
0 create outline with 5 corners*
4,1,5,$1,$2,$3,$4,$5,$6,$7,$8,$9,$10,$1,$2,$11*%
%AMOutline6P*
0 Free polygon, 6 corners , with rotation*
0 The origin of the aperture is its center*
0 number of corners: always 6*
0 $1 to $12 corner X, Y*
0 $13 Rotation angle, in degrees counterclockwise*
0 create outline with 6 corners*
4,1,6,$1,$2,$3,$4,$5,$6,$7,$8,$9,$10,$11,$12,$1,$2,$13*%
%AMOutline7P*
0 Free polygon, 7 corners , with rotation*
0 The origin of the aperture is its center*
0 number of corners: always 7*
0 $1 to $14 corner X, Y*
0 $15 Rotation angle, in degrees counterclockwise*
0 create outline with 7 corners*
4,1,7,$1,$2,$3,$4,$5,$6,$7,$8,$9,$10,$11,$12,$13,$14,$1,$2,$15*%
%AMOutline8P*
0 Free polygon, 8 corners , with rotation*
0 The origin of the aperture is its center*
0 number of corners: always 8*
0 $1 to $16 corner X, Y*
0 $17 Rotation angle, in degrees counterclockwise*
0 create outline with 8 corners*
4,1,8,$1,$2,$3,$4,$5,$6,$7,$8,$9,$10,$11,$12,$13,$14,$15,$16,$1,$2,$17*%
G04 Aperture macros list end*
%ADD10RoundRect,0.140000X-0.170000X0.140000X-0.170000X-0.140000X0.170000X-0.140000X0.170000X0.140000X0*%
%ADD11RoundRect,0.135000X0.185000X-0.135000X0.185000X0.135000X-0.185000X0.135000X-0.185000X-0.135000X0*%
%ADD12RoundRect,0.200000X0.275000X-0.200000X0.275000X0.200000X-0.275000X0.200000X-0.275000X-0.200000X0*%
%ADD13RoundRect,0.250000X2.450000X-0.650000X2.450000X0.650000X-2.450000X0.650000X-2.450000X-0.650000X0*%
%ADD14RoundRect,0.135000X-0.185000X0.135000X-0.185000X-0.135000X0.185000X-0.135000X0.185000X0.135000X0*%
%ADD15RoundRect,0.225000X0.250000X-0.225000X0.250000X0.225000X-0.250000X0.225000X-0.250000X-0.225000X0*%
%ADD16C,1.000000*%
%ADD17RoundRect,0.200000X-0.200000X-0.275000X0.200000X-0.275000X0.200000X0.275000X-0.200000X0.275000X0*%
%ADD18RoundRect,0.225000X0.225000X0.250000X-0.225000X0.250000X-0.225000X-0.250000X0.225000X-0.250000X0*%
%ADD19RoundRect,0.250000X-2.450000X0.650000X-2.450000X-0.650000X2.450000X-0.650000X2.450000X0.650000X0*%
%ADD20C,1.400000*%
%ADD21RoundRect,0.140000X0.170000X-0.140000X0.170000X0.140000X-0.170000X0.140000X-0.170000X-0.140000X0*%
%ADD22RoundRect,0.150000X-0.825000X-0.150000X0.825000X-0.150000X0.825000X0.150000X-0.825000X0.150000X0*%
%ADD23C,1.397000*%
%ADD24RoundRect,0.225000X-0.225000X-0.250000X0.225000X-0.250000X0.225000X0.250000X-0.225000X0.250000X0*%
%ADD25RoundRect,0.250000X0.250000X0.475000X-0.250000X0.475000X-0.250000X-0.475000X0.250000X-0.475000X0*%
%ADD26RoundRect,0.112500X0.112500X-0.187500X0.112500X0.187500X-0.112500X0.187500X-0.112500X-0.187500X0*%
%ADD27Outline6P,-2.100000X1.435000X-1.485000X2.050000X1.485000X2.050000X2.100000X1.435000X2.100000X-2.050000X-2.100000X-2.050000X0.000000*%
%ADD28RoundRect,0.102000X-1.955000X-0.375000X1.955000X-0.375000X1.955000X0.375000X-1.955000X0.375000X0*%
%ADD29RoundRect,0.102000X-0.350000X-1.610000X0.350000X-1.610000X0.350000X1.610000X-0.350000X1.610000X0*%
%ADD30RoundRect,0.102000X-1.855000X-2.457500X1.855000X-2.457500X1.855000X2.457500X-1.855000X2.457500X0*%
G04 APERTURE END LIST*
D10*
X104400000Y-102970000D03*
X104400000Y-103930000D03*
D11*
X110900000Y-114010000D03*
X110900000Y-112990000D03*
D12*
X117000000Y-96425000D03*
X117000000Y-94775000D03*
D13*
X142100000Y-97950000D03*
X142100000Y-92850000D03*
D14*
X117225000Y-118890000D03*
X117225000Y-119910000D03*
D15*
X112600000Y-99800000D03*
X112600000Y-98250000D03*
D16*
X105800000Y-92500000D03*
D15*
X114900000Y-99550000D03*
X114900000Y-98000000D03*
D17*
X102375000Y-115800000D03*
X104025000Y-115800000D03*
D13*
X156000000Y-97950000D03*
X156000000Y-92850000D03*
D15*
X112500000Y-113775000D03*
X112500000Y-112225000D03*
D16*
X163400000Y-98200000D03*
D18*
X104750000Y-110600000D03*
X103200000Y-110600000D03*
D19*
X146500000Y-108350000D03*
X146500000Y-113450000D03*
D14*
X102400000Y-104890000D03*
X102400000Y-105910000D03*
D16*
X111800000Y-90400000D03*
D20*
X103000000Y-90600000D03*
X100460000Y-90600000D03*
D21*
X104400000Y-105880000D03*
X104400000Y-104920000D03*
D17*
X113950000Y-103000000D03*
X115600000Y-103000000D03*
D16*
X105800000Y-90400000D03*
D22*
X106425000Y-101614600D03*
X106425000Y-102884600D03*
X106425000Y-104154600D03*
X106425000Y-105424600D03*
X111375000Y-105424600D03*
X111375000Y-104154600D03*
X111375000Y-102884600D03*
X111375000Y-101614600D03*
D16*
X163400000Y-90600000D03*
D23*
X96340000Y-97140000D03*
X96340000Y-94600000D03*
X93800000Y-97140000D03*
X93800000Y-94600000D03*
X91260000Y-97140000D03*
X91260000Y-94600000D03*
D13*
X149050000Y-97950000D03*
X149050000Y-92850000D03*
D17*
X113950000Y-104600000D03*
X115600000Y-104600000D03*
D11*
X111000000Y-99560000D03*
X111000000Y-98540000D03*
D14*
X102600000Y-119090000D03*
X102600000Y-120110000D03*
D24*
X114050000Y-120200000D03*
X115600000Y-120200000D03*
D13*
X128200000Y-97950000D03*
X128200000Y-92850000D03*
D17*
X114000000Y-118600000D03*
X115650000Y-118600000D03*
D15*
X114225000Y-113775000D03*
X114225000Y-112225000D03*
D24*
X113625000Y-106600000D03*
X115175000Y-106600000D03*
D21*
X104425000Y-120080000D03*
X104425000Y-119120000D03*
D16*
X111800000Y-92500000D03*
D17*
X102575000Y-101600000D03*
X104225000Y-101600000D03*
D25*
X105100000Y-112400000D03*
X103200000Y-112400000D03*
D24*
X114050000Y-101450000D03*
X115600000Y-101450000D03*
D18*
X104200000Y-100000000D03*
X102650000Y-100000000D03*
D14*
X116900000Y-105380000D03*
X116900000Y-106400000D03*
D18*
X105175000Y-96200000D03*
X103625000Y-96200000D03*
D13*
X121250000Y-97950000D03*
X121250000Y-92850000D03*
D15*
X114900000Y-96375000D03*
X114900000Y-94825000D03*
D19*
X139500000Y-108350000D03*
X139500000Y-113450000D03*
D18*
X104000000Y-114200000D03*
X102450000Y-114200000D03*
D13*
X135150000Y-97950000D03*
X135150000Y-92850000D03*
D25*
X105150000Y-98000000D03*
X103250000Y-98000000D03*
D24*
X114050000Y-115500000D03*
X115600000Y-115500000D03*
D26*
X117000000Y-99900000D03*
X117000000Y-97800000D03*
D16*
X163400000Y-94600000D03*
D23*
X96132100Y-121189700D03*
X96132100Y-118649700D03*
X93592100Y-121189700D03*
X93592100Y-118649700D03*
X91052100Y-121189700D03*
X91052100Y-118649700D03*
D27*
X147052100Y-125349700D03*
X154052100Y-125349700D03*
X161052100Y-125349700D03*
D28*
X120755000Y-100715000D03*
D29*
X118750000Y-104250000D03*
D30*
X121405000Y-104297500D03*
D28*
X121205000Y-113665000D03*
D29*
X119200000Y-117200000D03*
D30*
X121855000Y-117247500D03*
D26*
X116425000Y-114050000D03*
X116425000Y-111950000D03*
D20*
X114350000Y-90600000D03*
X116890000Y-90600000D03*
D10*
X104425000Y-117120000D03*
X104425000Y-118080000D03*
D12*
X116500000Y-110625000D03*
X116500000Y-108975000D03*
D15*
X114200000Y-110775000D03*
X114200000Y-109225000D03*
D22*
X106520000Y-115845000D03*
X106520000Y-117115000D03*
X106520000Y-118385000D03*
X106520000Y-119655000D03*
X111470000Y-119655000D03*
X111470000Y-118385000D03*
X111470000Y-117115000D03*
X111470000Y-115845000D03*
D17*
X114000000Y-117000000D03*
X115650000Y-117000000D03*
M02*
