M48
; DRILL file {KiCad 8.0.1} date 2024-04-17T20:24:25+0300
; FORMAT={-:-/ absolute / metric / decimal}
; #@! TF.CreationDate,2024-04-17T20:24:25+03:00
; #@! TF.GenerationSoftware,Kicad,Pcbnew,8.0.1
; #@! TF.FileFunction,Plated,1,4,PTH
FMAT,2
METRIC
; #@! TA.AperFunction,Plated,PTH,ViaDrill
T1C0.400
; #@! TA.AperFunction,Plated,PTH,ComponentDrill
T2C0.500
; #@! TA.AperFunction,Plated,PTH,ComponentDrill
T3C0.800
; #@! TA.AperFunction,Plated,PTH,ComponentDrill
T4C0.889
%
G90
G05
T1
X102.1Y-110.3
X102.1Y-111.5
X102.2Y-96.0
X102.2Y-97.2
X102.4Y-103.0
X102.4Y-104.0
X102.6Y-117.1
X102.6Y-118.1
X103.4Y-103.0
X103.5Y-117.1
X103.6Y-104.8
X103.6Y-119.0
X106.7Y-110.3
X106.7Y-111.5
X106.7Y-112.7
X107.2Y-95.8
X107.2Y-97.2
X107.2Y-98.6
X110.9Y-109.6
X111.0Y-100.5
X111.0Y-114.9
X112.0Y-96.6
X112.5Y-109.6
X112.5Y-110.9
X112.9Y-100.8
X112.9Y-101.7
X112.9Y-114.9
X112.9Y-115.8
X113.2Y-94.8
X113.2Y-96.6
X113.9Y-107.8
X114.2Y-121.8
X115.3Y-110.8
X115.3Y-112.0
X115.7Y-121.4
X115.9Y-107.4
X116.0Y-96.9
X116.0Y-97.9
X116.8Y-115.4
X116.9Y-101.4
X116.9Y-107.4
X116.9Y-121.4
X117.0Y-103.2
X118.1Y-116.3
X118.862Y-90.3
X118.862Y-91.2
X119.845Y-90.3
X119.845Y-91.2
X120.02Y-103.3
X120.02Y-104.3
X120.02Y-105.2
X120.02Y-106.2
X120.02Y-107.2
X120.02Y-108.2
X120.02Y-109.2
X120.04Y-102.3
X120.564Y-115.282
X120.564Y-116.291
X120.564Y-117.3
X120.564Y-118.309
X120.564Y-119.318
X120.564Y-120.327
X120.564Y-121.336
X120.564Y-122.345
X120.564Y-123.355
X120.564Y-124.364
X120.564Y-125.373
X120.564Y-126.382
X120.828Y-90.3
X120.828Y-91.2
X121.0Y-103.3
X121.0Y-104.3
X121.0Y-105.2
X121.0Y-106.2
X121.0Y-107.2
X121.0Y-108.2
X121.0Y-109.2
X121.02Y-102.3
X121.482Y-115.282
X121.482Y-116.291
X121.482Y-117.3
X121.482Y-118.309
X121.482Y-119.318
X121.482Y-120.327
X121.482Y-121.336
X121.482Y-122.345
X121.482Y-123.355
X121.482Y-124.364
X121.482Y-125.373
X121.482Y-126.382
X121.81Y-90.3
X121.81Y-91.2
X121.98Y-103.3
X121.98Y-104.3
X121.98Y-105.2
X121.98Y-106.2
X121.98Y-107.2
X121.98Y-108.2
X121.98Y-109.2
X122.0Y-102.3
X122.4Y-115.282
X122.4Y-116.291
X122.4Y-117.3
X122.4Y-118.309
X122.4Y-119.318
X122.4Y-120.327
X122.4Y-121.336
X122.4Y-122.345
X122.4Y-123.355
X122.4Y-124.364
X122.4Y-125.373
X122.4Y-126.382
X122.792Y-90.3
X122.792Y-91.2
X122.96Y-103.3
X122.96Y-104.3
X122.96Y-105.2
X122.96Y-106.2
X122.96Y-107.2
X122.96Y-108.2
X122.96Y-109.2
X122.98Y-102.3
X123.318Y-115.282
X123.318Y-116.291
X123.318Y-117.3
X123.318Y-118.309
X123.318Y-119.318
X123.318Y-120.327
X123.318Y-121.336
X123.318Y-122.345
X123.318Y-123.355
X123.318Y-124.364
X123.318Y-125.373
X123.318Y-126.382
X123.775Y-90.3
X123.775Y-91.2
X123.94Y-103.3
X123.94Y-104.3
X123.94Y-105.2
X123.94Y-106.2
X123.94Y-107.2
X123.94Y-108.2
X123.94Y-109.2
X123.96Y-102.3
X124.236Y-115.282
X124.236Y-116.291
X124.236Y-117.3
X124.236Y-118.309
X124.236Y-119.318
X124.236Y-120.327
X124.236Y-121.336
X124.236Y-122.345
X124.236Y-123.355
X124.236Y-124.364
X124.236Y-125.373
X124.236Y-126.382
X124.757Y-90.3
X124.757Y-91.2
X124.92Y-103.3
X124.92Y-104.3
X124.92Y-105.2
X124.92Y-106.2
X124.92Y-107.2
X124.92Y-108.2
X124.92Y-109.2
X124.94Y-102.3
X125.155Y-115.282
X125.155Y-116.291
X125.155Y-117.3
X125.155Y-118.309
X125.155Y-119.318
X125.155Y-120.327
X125.155Y-121.336
X125.155Y-122.345
X125.155Y-123.355
X125.155Y-124.364
X125.155Y-125.373
X125.155Y-126.382
X125.74Y-90.3
X125.74Y-91.2
X126.073Y-115.282
X126.073Y-116.291
X126.073Y-117.3
X126.073Y-118.309
X126.073Y-119.318
X126.073Y-120.327
X126.073Y-121.336
X126.073Y-122.345
X126.073Y-123.355
X126.073Y-124.364
X126.073Y-125.373
X126.073Y-126.382
X126.722Y-90.3
X126.722Y-91.2
X126.991Y-115.282
X126.991Y-116.291
X126.991Y-117.3
X126.991Y-118.309
X126.991Y-119.318
X126.991Y-120.327
X126.991Y-121.336
X126.991Y-122.345
X126.991Y-123.355
X126.991Y-124.364
X126.991Y-125.373
X126.991Y-126.382
X127.705Y-90.3
X127.705Y-91.2
X127.909Y-115.282
X127.909Y-116.291
X127.909Y-117.3
X127.909Y-118.309
X127.909Y-119.318
X127.909Y-120.327
X127.909Y-121.336
X127.909Y-122.345
X127.909Y-123.355
X127.909Y-124.364
X127.909Y-125.373
X127.909Y-126.382
X128.688Y-90.3
X128.688Y-91.2
X128.827Y-115.282
X128.827Y-116.291
X128.827Y-117.3
X128.827Y-118.309
X128.827Y-119.318
X128.827Y-120.327
X128.827Y-121.336
X128.827Y-122.345
X128.827Y-123.355
X128.827Y-124.364
X128.827Y-125.373
X128.827Y-126.382
X129.67Y-90.3
X129.67Y-91.2
X129.745Y-115.282
X129.745Y-116.291
X129.745Y-117.3
X129.745Y-118.309
X129.745Y-119.318
X129.745Y-120.327
X129.745Y-121.336
X129.745Y-122.345
X129.745Y-123.355
X129.745Y-124.364
X129.745Y-125.373
X129.745Y-126.382
X130.653Y-90.3
X130.653Y-91.2
X131.635Y-90.3
X131.635Y-91.2
X132.618Y-90.3
X132.618Y-91.2
X133.6Y-90.3
X133.6Y-91.2
X134.582Y-90.3
X134.582Y-91.2
X135.565Y-90.3
X135.565Y-91.2
X136.547Y-90.3
X136.547Y-91.2
X137.53Y-90.3
X137.53Y-91.2
X138.512Y-90.3
X138.512Y-91.2
X139.495Y-90.3
X139.495Y-91.2
X140.477Y-90.3
X140.477Y-91.2
X141.46Y-90.3
X141.46Y-91.2
X142.442Y-90.3
X142.442Y-91.2
X143.425Y-90.3
X143.425Y-91.2
X144.407Y-90.3
X144.407Y-91.2
X145.39Y-90.3
X145.39Y-91.2
X146.373Y-90.3
X146.373Y-91.2
X147.355Y-90.3
X147.355Y-91.2
X148.338Y-90.3
X148.338Y-91.2
X149.32Y-90.3
X149.32Y-91.2
X150.302Y-90.3
X150.302Y-91.2
X151.285Y-90.3
X151.285Y-91.2
X152.267Y-90.3
X152.267Y-91.2
X152.7Y-115.25
X152.7Y-116.6
X152.7Y-117.95
X153.25Y-90.3
X153.25Y-91.2
X154.05Y-115.25
X154.05Y-116.6
X154.05Y-117.95
X154.232Y-90.3
X154.232Y-91.2
X155.215Y-90.3
X155.215Y-91.2
X155.4Y-115.25
X155.4Y-116.6
X155.4Y-117.95
X156.197Y-90.3
X156.197Y-91.2
X157.18Y-90.3
X157.18Y-91.2
X158.162Y-90.3
X158.162Y-91.2
X159.6Y-104.9
X159.6Y-105.8
X159.6Y-106.7
X159.6Y-107.6
X160.5Y-104.9
X160.5Y-105.8
X160.5Y-106.7
X160.5Y-107.6
X161.4Y-104.9
X161.4Y-105.8
X161.4Y-106.7
X161.4Y-107.6
X162.3Y-104.9
X162.3Y-105.8
X162.3Y-106.7
X162.3Y-107.6
T2
X105.8Y-90.4
X105.8Y-92.5
X111.8Y-90.4
X111.8Y-92.5
X163.4Y-90.6
X163.4Y-94.6
X163.4Y-98.2
T3
X100.46Y-90.6
X103.0Y-90.6
X114.35Y-90.6
X116.89Y-90.6
T4
X91.052Y-118.65
X91.052Y-121.19
X91.26Y-94.6
X91.26Y-97.14
X93.592Y-118.65
X93.592Y-121.19
X93.8Y-94.6
X93.8Y-97.14
X96.132Y-118.65
X96.132Y-121.19
X96.34Y-94.6
X96.34Y-97.14
M30
